<svg width="667" height="497" viewBox="0 0 667 497" fill="none" xmlns="http://www.w3.org/2000/svg">
<path d="M666.972 436.733H0V437.067H666.972V436.733Z" fill="#EBEBEB"/>
<path d="M600.141 458.196H555.961V458.53H600.141V458.196Z" fill="#EBEBEB"/>
<path d="M441.829 461.825H430.237V462.158H441.829V461.825Z" fill="#EBEBEB"/>
<path d="M554.627 445.817H529.029V446.151H554.627V445.817Z" fill="#EBEBEB"/>
<path d="M127.592 448.059H69.9787V448.392H127.592V448.059Z" fill="#EBEBEB"/>
<path d="M147.921 448.059H139.477V448.392H147.921V448.059Z" fill="#EBEBEB"/>
<path d="M300.338 453.688H175.374V454.021H300.338V453.688Z" fill="#EBEBEB"/>
<path d="M316.145 377.239H58.5735C56.5557 377.236 54.6217 376.432 53.1962 375.004C51.7707 373.576 50.97 371.64 50.97 369.623V7.55012C50.9876 5.54391 51.796 3.62563 53.2196 2.21197C54.6433 0.79831 56.5672 0.00343676 58.5735 0H316.145C318.165 0 320.102 0.802484 321.531 2.23092C322.959 3.65935 323.762 5.59671 323.762 7.61682V369.623C323.762 371.643 322.959 373.58 321.531 375.008C320.102 376.437 318.165 377.239 316.145 377.239ZM58.5735 0.26679C56.6441 0.270323 54.795 1.03923 53.432 2.40474C52.069 3.77024 51.3035 5.62077 51.3035 7.55012V369.623C51.3035 371.552 52.069 373.402 53.432 374.768C54.795 376.133 56.6441 376.902 58.5735 376.906H316.145C318.075 376.902 319.926 376.134 321.291 374.769C322.656 373.404 323.425 371.553 323.428 369.623V7.55012C323.425 5.61955 322.656 3.76905 321.291 2.40392C319.926 1.0388 318.075 0.270316 316.145 0.26679H58.5735Z" fill="#EBEBEB"/>
<path d="M604.69 377.239H347.106C345.087 377.236 343.151 376.432 341.724 375.005C340.296 373.577 339.492 371.642 339.489 369.623V7.55012C339.51 5.54269 340.321 3.62443 341.747 2.21114C343.173 0.797844 345.098 0.00339928 347.106 0H604.69C606.694 0.00694251 608.615 0.803367 610.035 2.21665C611.456 3.62994 612.263 5.54621 612.28 7.55012V369.623C612.28 371.638 611.482 373.571 610.059 374.999C608.636 376.427 606.706 377.232 604.69 377.239ZM347.106 0.26679C345.175 0.270316 343.325 1.0388 341.959 2.40392C340.594 3.76905 339.826 5.61955 339.822 7.55012V369.623C339.826 371.553 340.594 373.404 341.959 374.769C343.325 376.134 345.175 376.902 347.106 376.906H604.69C606.621 376.902 608.471 376.134 609.836 374.769C611.202 373.404 611.97 371.553 611.974 369.623V7.55012C611.97 5.61955 611.202 3.76905 609.836 2.40392C608.471 1.0388 606.621 0.270316 604.69 0.26679H347.106Z" fill="#EBEBEB"/>
<path d="M491.118 84.7722H463.946C434.971 84.7722 411.482 108.261 411.482 137.236V202.119C411.482 231.094 434.971 254.583 463.946 254.583H491.118C520.093 254.583 543.582 231.094 543.582 202.119V137.236C543.582 108.261 520.093 84.7722 491.118 84.7722Z" fill="#EBEBEB"/>
<path d="M496.334 94.4832H465.16C441.459 94.4832 422.247 113.696 422.247 137.396V201.959C422.247 225.659 441.459 244.872 465.16 244.872H496.334C520.034 244.872 539.247 225.659 539.247 201.959V137.396C539.247 113.696 520.034 94.4832 496.334 94.4832Z" fill="#407BFF"/>
<path d="M539.247 137.396V201.959C539.247 207.596 538.137 213.178 535.979 218.386C533.822 223.594 530.66 228.327 526.674 232.313C522.688 236.299 517.956 239.461 512.748 241.618C507.54 243.775 501.958 244.885 496.321 244.885H465.16C453.777 244.882 442.862 240.358 434.815 232.308C426.767 224.258 422.247 213.342 422.247 201.959V137.396C422.247 126.015 426.768 115.1 434.816 107.052C442.863 99.0044 453.778 94.4832 465.16 94.4832H496.321C507.703 94.4832 518.62 99.004 526.669 107.051C534.719 115.099 539.243 126.014 539.247 137.396Z" fill="#F0F0F0"/>
<path d="M539.247 146.014V162.021H490.278C486.598 162.021 483.07 160.559 480.468 157.958C477.866 155.356 476.405 151.827 476.405 148.148C476.405 144.468 477.866 140.94 480.468 138.338C483.07 135.736 486.598 134.275 490.278 134.275H490.518C490.584 131.019 491.704 127.872 493.709 125.306C495.715 122.74 498.498 120.893 501.642 120.043C504.785 119.192 508.12 119.384 511.146 120.589C514.172 121.793 516.725 123.946 518.424 126.725C519.471 126.532 520.534 126.434 521.599 126.431C524.073 126.427 526.52 126.957 528.771 127.986C531.021 129.014 533.024 130.516 534.641 132.389C536.258 134.262 537.452 136.462 538.141 138.838C538.83 141.215 538.998 143.713 538.633 146.16C538.835 146.099 539.04 146.05 539.247 146.014Z" fill="#FAFAFA"/>
<path d="M474.724 210.523C474.725 212.637 473.902 214.667 472.43 216.184C470.958 217.701 468.953 218.584 466.84 218.647H425.622C423.387 213.367 422.24 207.692 422.247 201.959V179.042C423.924 177.792 425.844 176.906 427.884 176.442C429.923 175.978 432.038 175.946 434.091 176.348C436.143 176.75 438.089 177.577 439.804 178.776C441.518 179.975 442.962 181.52 444.043 183.311C445.09 183.114 446.153 183.011 447.218 183.004C449.684 183.029 452.117 183.58 454.353 184.62C456.59 185.66 458.578 187.165 460.187 189.035C461.795 190.905 462.986 193.096 463.68 195.463C464.375 197.83 464.556 200.317 464.213 202.759C464.97 202.532 465.757 202.42 466.547 202.426C467.616 202.419 468.676 202.623 469.666 203.026C470.656 203.43 471.557 204.025 472.316 204.777C473.076 205.529 473.68 206.424 474.093 207.41C474.506 208.396 474.721 209.454 474.724 210.523Z" fill="#FAFAFA"/>
<path d="M210.963 84.7722H183.791C154.816 84.7722 131.327 108.261 131.327 137.236V202.119C131.327 231.094 154.816 254.583 183.791 254.583H210.963C239.938 254.583 263.427 231.094 263.427 202.119V137.236C263.427 108.261 239.938 84.7722 210.963 84.7722Z" fill="#EBEBEB"/>
<path d="M216.192 94.4832H185.018C161.318 94.4832 142.105 113.696 142.105 137.396V201.959C142.105 225.659 161.318 244.872 185.018 244.872H216.192C239.892 244.872 259.105 225.659 259.105 201.959V137.396C259.105 113.696 239.892 94.4832 216.192 94.4832Z" fill="#407BFF"/>
<path d="M259.092 137.396V201.959C259.094 207.596 257.985 213.177 255.829 218.385C253.673 223.593 250.513 228.326 246.528 232.312C242.543 236.298 237.811 239.46 232.604 241.618C227.397 243.775 221.816 244.885 216.179 244.885H185.018C176.577 244.887 168.324 242.398 161.291 237.73C154.258 233.063 148.758 226.425 145.48 218.647C143.233 213.371 142.081 207.694 142.092 201.959V137.396C142.095 126.014 146.619 115.099 154.669 107.051C162.719 99.004 173.636 94.4832 185.018 94.4832H216.179C227.56 94.4832 238.475 99.0044 246.523 107.052C254.571 115.1 259.092 126.015 259.092 137.396Z" fill="#F0F0F0"/>
<path d="M259.092 146.014V162.021H210.123C206.444 162.021 202.915 160.559 200.313 157.958C197.711 155.356 196.25 151.827 196.25 148.148C196.25 144.468 197.711 140.94 200.313 138.338C202.915 135.736 206.444 134.275 210.123 134.275H210.376C210.442 131.019 211.562 127.872 213.568 125.306C215.573 122.74 218.357 120.893 221.5 120.043C224.644 119.192 227.979 119.384 231.004 120.589C234.03 121.793 236.584 123.946 238.282 126.725C239.33 126.532 240.392 126.434 241.457 126.431C243.932 126.427 246.378 126.957 248.629 127.986C250.88 129.014 252.882 130.516 254.5 132.389C256.117 134.262 257.311 136.462 258 138.838C258.689 141.215 258.856 143.713 258.492 146.16C258.689 146.099 258.889 146.05 259.092 146.014Z" fill="#FAFAFA"/>
<path d="M194.582 210.523C194.583 212.637 193.761 214.667 192.289 216.184C190.817 217.701 188.811 218.584 186.699 218.647H145.48C143.233 213.371 142.081 207.694 142.092 201.959V179.042C143.77 177.791 145.691 176.905 147.732 176.441C149.773 175.977 151.888 175.945 153.942 176.347C155.996 176.749 157.943 177.576 159.658 178.776C161.373 179.975 162.819 181.52 163.902 183.311C164.949 183.114 166.011 183.011 167.076 183.004C171.645 183.007 176.025 184.825 179.255 188.056C182.484 191.288 184.298 195.67 184.298 200.238C184.282 201.083 184.211 201.925 184.084 202.76C184.837 202.533 185.619 202.421 186.405 202.426C187.474 202.421 188.533 202.626 189.522 203.03C190.512 203.434 191.412 204.029 192.171 204.781C192.93 205.533 193.534 206.427 193.948 207.412C194.362 208.397 194.577 209.454 194.582 210.523Z" fill="#FAFAFA"/>
<path d="M473.87 345.758H443.056L435.639 291.067C435.286 289.565 434.434 288.228 433.223 287.273C432.011 286.319 430.512 285.803 428.97 285.811H421.833C420.022 285.811 418.285 286.53 417.004 287.811C415.723 289.092 415.003 290.829 415.003 292.641V354.829C415.003 357.235 415.959 359.542 417.66 361.243C419.361 362.944 421.668 363.9 424.074 363.9H473.844C475.063 363.947 476.28 363.747 477.42 363.313C478.561 362.878 479.602 362.218 480.481 361.372C481.361 360.525 482.06 359.51 482.538 358.387C483.016 357.264 483.262 356.056 483.262 354.836C483.262 353.615 483.016 352.407 482.538 351.284C482.06 350.161 481.361 349.146 480.481 348.3C479.602 347.454 478.561 346.794 477.42 346.359C476.28 345.925 475.063 345.725 473.844 345.772L473.87 345.758Z" fill="#EBEBEB"/>
<path d="M466.747 345.758H435.92L428.503 291.067C428.15 289.565 427.298 288.228 426.086 287.273C424.875 286.319 423.375 285.803 421.833 285.811C420.022 285.811 418.285 286.53 417.004 287.811C415.723 289.092 415.003 290.829 415.003 292.641V354.829C415.003 357.235 415.959 359.542 417.66 361.243C419.361 362.944 421.668 363.9 424.074 363.9H466.76C469.104 363.81 471.322 362.816 472.948 361.126C474.575 359.436 475.483 357.181 475.483 354.836C475.483 352.49 474.575 350.236 472.948 348.546C471.322 346.856 469.104 345.862 466.76 345.772L466.747 345.758Z" fill="#E0E0E0"/>
<path d="M432.198 297.55H485.556C485.85 297.564 486.136 297.655 486.384 297.814C486.633 297.974 486.835 298.196 486.97 298.458C487.105 298.721 487.169 299.014 487.155 299.309C487.141 299.603 487.049 299.889 486.89 300.137L484.408 303.939C484.027 304.525 483.504 305.006 482.89 305.34C482.275 305.673 481.586 305.847 480.887 305.847H433.132L432.198 297.55Z" fill="#EBEBEB"/>
<path d="M479.793 300.137L477.325 303.939C476.943 304.523 476.42 305.003 475.805 305.334C475.19 305.664 474.502 305.836 473.804 305.833H433.132L432.118 297.536H478.392C478.695 297.537 478.992 297.62 479.251 297.776C479.51 297.931 479.723 298.154 479.867 298.42C480.01 298.686 480.079 298.987 480.066 299.289C480.053 299.591 479.959 299.884 479.793 300.137Z" fill="#E0E0E0"/>
<path d="M433.759 343.264H335.967L326.816 221.141C326.693 219.581 327.096 218.025 327.962 216.721C328.828 215.417 330.106 214.442 331.592 213.951C332.302 213.698 333.052 213.571 333.806 213.578H395.875C398.626 213.579 401.301 214.487 403.485 216.16C405.67 217.833 407.242 220.179 407.96 222.835C410.352 231.629 411.448 240.724 411.215 249.834C411.215 249.834 425.888 290.907 432.398 332.979C432.878 336.407 433.345 339.849 433.759 343.264Z" fill="#EBEBEB"/>
<path d="M344.358 213.951C344.358 213.951 354.896 218.927 355.683 248.047H402.438C402.438 248.047 404.585 220.101 393.22 213.951H344.358Z" fill="#E0E0E0"/>
<path d="M432.345 332.979C426.075 330.485 417.284 328.404 405.159 327.977C383.482 327.203 371.597 333.659 365.848 338.435C359.898 294.535 343.891 249.834 343.891 249.834C344.114 240.724 343.013 231.629 340.623 222.835C340.038 220.679 338.888 218.718 337.291 217.156C335.693 215.594 333.707 214.487 331.538 213.951C330.052 214.442 328.774 215.418 327.908 216.721C327.043 218.025 326.639 219.581 326.763 221.141L335.967 343.264H433.759C433.345 339.849 432.878 336.407 432.345 332.979Z" fill="#E0E0E0"/>
<path d="M486.703 353.495V359.258C486.703 363.149 485.157 366.882 482.405 369.634C479.653 372.385 475.921 373.931 472.029 373.931H345.492C344.203 373.931 342.927 373.677 341.736 373.184C340.546 372.69 339.465 371.967 338.554 371.055C337.643 370.143 336.921 369.061 336.43 367.87C335.938 366.678 335.685 365.402 335.687 364.113V338.768H471.989C473.924 338.763 475.841 339.141 477.629 339.879C479.418 340.617 481.042 341.702 482.41 343.071C483.777 344.44 484.861 346.065 485.597 347.854C486.334 349.643 486.71 351.56 486.703 353.495Z" fill="#EBEBEB"/>
<path d="M405.159 353.495V359.258C405.159 363.149 403.613 366.882 400.861 369.634C398.109 372.385 394.377 373.931 390.485 373.931H345.492C344.203 373.931 342.927 373.677 341.736 373.184C340.546 372.69 339.465 371.967 338.554 371.055C337.643 370.143 336.921 369.061 336.43 367.87C335.938 366.678 335.685 365.402 335.687 364.113V338.768H390.445C392.38 338.763 394.297 339.141 396.085 339.879C397.874 340.617 399.498 341.702 400.866 343.071C402.233 344.44 403.317 346.065 404.053 347.854C404.79 349.643 405.166 351.56 405.159 353.495Z" fill="#E0E0E0"/>
<path d="M456.089 386.991H351.628V430.637H456.089V386.991Z" fill="#E0E0E0"/>
<path d="M383.496 386.991H351.628V430.637H383.496V386.991Z" fill="#EBEBEB"/>
<path d="M474.644 373.945H342.77L349.907 389.939H464.453L474.644 373.945Z" fill="#E6E6E6"/>
<path d="M403.278 373.945L393.087 389.925H349.92L342.784 373.945H403.278Z" fill="#F5F5F5"/>
<path d="M456.889 428.81H349.467L344.358 436.733H464.026L456.889 428.81Z" fill="#E6E6E6"/>
<path d="M397.769 436.733H344.358L349.453 428.81H390.632L397.769 436.733Z" fill="#F5F5F5"/>
<path d="M382.135 345.758H351.307L343.891 291.067C343.538 289.565 342.686 288.228 341.474 287.273C340.263 286.319 338.763 285.803 337.221 285.811H330.084C328.273 285.811 326.536 286.53 325.255 287.811C323.974 289.092 323.255 290.829 323.255 292.641V354.829C323.258 357.234 324.215 359.539 325.915 361.239C327.616 362.94 329.921 363.896 332.325 363.9H382.108C384.452 363.81 386.67 362.816 388.296 361.126C389.923 359.436 390.831 357.181 390.831 354.836C390.831 352.49 389.923 350.236 388.296 348.546C386.67 346.856 384.452 345.862 382.108 345.772L382.135 345.758Z" fill="#E6E6E6"/>
<path d="M374.998 345.758H344.158L336.741 291.067C336.388 289.565 335.536 288.228 334.324 287.273C333.113 286.319 331.613 285.803 330.071 285.811C328.26 285.811 326.523 286.53 325.242 287.811C323.961 289.092 323.241 290.829 323.241 292.641V354.829C323.245 357.234 324.202 359.539 325.902 361.239C327.602 362.94 329.907 363.896 332.312 363.9H374.998C377.342 363.81 379.56 362.816 381.186 361.126C382.813 359.436 383.721 357.181 383.721 354.836C383.721 352.49 382.813 350.236 381.186 348.546C379.56 346.856 377.342 345.862 374.998 345.772V345.758Z" fill="#F0F0F0"/>
<path d="M340.383 297.55H393.74C394.044 297.548 394.342 297.629 394.604 297.784C394.865 297.938 395.08 298.161 395.225 298.428C395.37 298.694 395.44 298.996 395.427 299.299C395.415 299.602 395.321 299.897 395.154 300.151L392.673 303.952C392.291 304.538 391.769 305.02 391.154 305.353C390.539 305.686 389.851 305.86 389.152 305.86H341.383L340.383 297.55Z" fill="#E6E6E6"/>
<path d="M388.044 300.137L385.577 303.939C385.194 304.523 384.671 305.003 384.056 305.334C383.441 305.664 382.753 305.836 382.055 305.833H341.383L340.369 297.536H386.644C386.946 297.537 387.243 297.62 387.502 297.776C387.762 297.931 387.974 298.154 388.118 298.42C388.261 298.686 388.33 298.987 388.317 299.289C388.304 299.591 388.21 299.884 388.044 300.137Z" fill="#F0F0F0"/>
<path d="M333.486 496.974C476.328 496.974 592.124 490.214 592.124 481.874C592.124 473.534 476.328 466.774 333.486 466.774C190.644 466.774 74.8476 473.534 74.8476 481.874C74.8476 490.214 190.644 496.974 333.486 496.974Z" fill="#F5F5F5"/>
<path d="M550.572 469.001V477.005C550.572 477.359 550.713 477.698 550.963 477.948C551.213 478.198 551.552 478.339 551.906 478.339C552.153 478.342 552.396 478.276 552.608 478.149C552.82 478.022 552.993 477.838 553.107 477.619L557.709 469.015L550.572 469.001Z" fill="#263238"/>
<path opacity="0.1" d="M550.572 469.001V477.005C550.572 477.359 550.713 477.698 550.963 477.948C551.213 478.198 551.552 478.339 551.906 478.339C552.153 478.342 552.396 478.276 552.608 478.149C552.82 478.022 552.993 477.838 553.107 477.619L557.709 469.015L550.572 469.001Z" fill="white"/>
<path d="M558.923 476.618C558.923 479.793 556.762 482.368 554.094 482.368C551.426 482.368 549.265 479.793 549.265 476.618C549.265 473.443 551.426 470.869 554.094 470.869C556.762 470.869 558.923 473.443 558.923 476.618Z" fill="#263238"/>
<path opacity="0.1" d="M555.454 479.806C556.935 479.806 558.136 478.379 558.136 476.618C558.136 474.857 556.935 473.43 555.454 473.43C553.974 473.43 552.773 474.857 552.773 476.618C552.773 478.379 553.974 479.806 555.454 479.806Z" fill="white"/>
<path d="M554.574 469.001V477.005C554.574 477.359 554.714 477.698 554.965 477.948C555.215 478.198 555.554 478.339 555.908 478.339C556.155 478.342 556.398 478.276 556.61 478.149C556.822 478.022 556.995 477.838 557.108 477.619L561.711 469.015L554.574 469.001Z" fill="#263238"/>
<path opacity="0.2" d="M554.574 469.001V477.005C554.574 477.359 554.714 477.698 554.965 477.948C555.215 478.198 555.554 478.339 555.908 478.339C556.155 478.342 556.398 478.276 556.61 478.149C556.822 478.022 556.995 477.838 557.108 477.619L561.711 469.015L554.574 469.001Z" fill="white"/>
<path d="M499.869 469.001V477.005C499.869 477.359 500.009 477.698 500.26 477.948C500.51 478.198 500.849 478.339 501.203 478.339C501.45 478.342 501.693 478.276 501.905 478.149C502.117 478.022 502.29 477.838 502.403 477.619L507.005 469.015L499.869 469.001Z" fill="#263238"/>
<path opacity="0.1" d="M499.869 469.001V477.005C499.869 477.359 500.009 477.698 500.26 477.948C500.51 478.198 500.849 478.339 501.203 478.339C501.45 478.342 501.693 478.276 501.905 478.149C502.117 478.022 502.29 477.838 502.403 477.619L507.005 469.015L499.869 469.001Z" fill="white"/>
<path d="M508.233 476.618C508.233 479.793 506.072 482.368 503.404 482.368C500.736 482.368 498.562 479.793 498.562 476.618C498.562 473.443 500.736 470.869 503.404 470.869C506.072 470.869 508.233 473.443 508.233 476.618Z" fill="#263238"/>
<path opacity="0.1" d="M504.764 479.806C506.245 479.806 507.446 478.379 507.446 476.618C507.446 474.857 506.245 473.43 504.764 473.43C503.284 473.43 502.083 474.857 502.083 476.618C502.083 478.379 503.284 479.806 504.764 479.806Z" fill="white"/>
<path d="M503.871 469.001V477.005C503.871 477.359 504.011 477.698 504.261 477.948C504.512 478.198 504.851 478.339 505.205 478.339C505.452 478.342 505.695 478.276 505.907 478.149C506.119 478.022 506.292 477.838 506.405 477.619L511.007 469.015L503.871 469.001Z" fill="#263238"/>
<path opacity="0.2" d="M503.871 469.001V477.005C503.871 477.359 504.011 477.698 504.261 477.948C504.512 478.198 504.851 478.339 505.205 478.339C505.452 478.342 505.695 478.276 505.907 478.149C506.119 478.022 506.292 477.838 506.405 477.619L511.007 469.015L503.871 469.001Z" fill="white"/>
<path d="M511.888 469.001V477.005C511.888 477.359 512.028 477.698 512.278 477.948C512.529 478.198 512.868 478.339 513.222 478.339C513.469 478.342 513.712 478.276 513.924 478.149C514.136 478.022 514.309 477.838 514.422 477.619L519.024 469.015L511.888 469.001Z" fill="#263238"/>
<path opacity="0.2" d="M511.888 469.001V477.005C511.888 477.359 512.028 477.698 512.278 477.948C512.529 478.198 512.868 478.339 513.222 478.339C513.469 478.342 513.712 478.276 513.924 478.149C514.136 478.022 514.309 477.838 514.422 477.619L519.024 469.015L511.888 469.001Z" fill="white"/>
<path d="M515.423 482.368C518.09 482.368 520.252 479.793 520.252 476.618C520.252 473.443 518.09 470.869 515.423 470.869C512.756 470.869 510.594 473.443 510.594 476.618C510.594 479.793 512.756 482.368 515.423 482.368Z" fill="#263238"/>
<path opacity="0.2" d="M516.77 479.806C518.251 479.806 519.451 478.379 519.451 476.618C519.451 474.857 518.251 473.43 516.77 473.43C515.289 473.43 514.089 474.857 514.089 476.618C514.089 478.379 515.289 479.806 516.77 479.806Z" fill="white"/>
<path d="M515.89 469.001V477.005C515.89 477.359 516.03 477.698 516.28 477.948C516.53 478.198 516.87 478.339 517.223 478.339C517.471 478.342 517.714 478.276 517.926 478.149C518.138 478.022 518.31 477.838 518.424 477.619L523.026 469.015L515.89 469.001Z" fill="#263238"/>
<path opacity="0.4" d="M515.89 469.001V477.005C515.89 477.359 516.03 477.698 516.28 477.948C516.53 478.198 516.87 478.339 517.223 478.339C517.471 478.342 517.714 478.276 517.926 478.149C518.138 478.022 518.31 477.838 518.424 477.619L523.026 469.015L515.89 469.001Z" fill="white"/>
<path d="M461.185 469.001V477.005C461.185 477.359 461.325 477.698 461.575 477.948C461.825 478.198 462.165 478.339 462.518 478.339C462.768 478.344 463.014 478.28 463.228 478.153C463.443 478.025 463.618 477.84 463.732 477.619L468.334 469.015L461.185 469.001Z" fill="#263238"/>
<path opacity="0.2" d="M461.185 469.001V477.005C461.185 477.359 461.325 477.698 461.575 477.948C461.825 478.198 462.165 478.339 462.518 478.339C462.768 478.344 463.014 478.28 463.228 478.153C463.443 478.025 463.618 477.84 463.732 477.619L468.334 469.015L461.185 469.001Z" fill="white"/>
<path d="M464.733 482.368C467.4 482.368 469.562 479.793 469.562 476.618C469.562 473.443 467.4 470.869 464.733 470.869C462.066 470.869 459.904 473.443 459.904 476.618C459.904 479.793 462.066 482.368 464.733 482.368Z" fill="#263238"/>
<path opacity="0.2" d="M466.08 479.806C467.561 479.806 468.761 478.379 468.761 476.618C468.761 474.857 467.561 473.43 466.08 473.43C464.599 473.43 463.399 474.857 463.399 476.618C463.399 478.379 464.599 479.806 466.08 479.806Z" fill="white"/>
<path d="M465.186 469.001V477.005C465.186 477.359 465.327 477.698 465.577 477.948C465.827 478.198 466.167 478.339 466.52 478.339C466.767 478.342 467.011 478.276 467.223 478.149C467.435 478.022 467.607 477.838 467.721 477.619L472.323 469.015L465.186 469.001Z" fill="#263238"/>
<path opacity="0.4" d="M465.186 469.001V477.005C465.186 477.359 465.327 477.698 465.577 477.948C465.827 478.198 466.167 478.339 466.52 478.339C466.767 478.342 467.011 478.276 467.223 478.149C467.435 478.022 467.607 477.838 467.721 477.619L472.323 469.015L465.186 469.001Z" fill="white"/>
<path d="M496.747 469.628C496.571 469.628 496.401 469.558 496.276 469.433C496.151 469.308 496.081 469.138 496.081 468.961V453.368C496.081 453.191 496.151 453.021 496.276 452.896C496.401 452.771 496.571 452.701 496.747 452.701C496.923 452.704 497.091 452.775 497.215 452.9C497.34 453.024 497.411 453.192 497.414 453.368V468.961C497.411 469.137 497.34 469.305 497.215 469.429C497.091 469.554 496.923 469.625 496.747 469.628Z" fill="#263238"/>
<path d="M554.441 469.628C554.264 469.628 554.094 469.558 553.969 469.433C553.844 469.308 553.774 469.138 553.774 468.961V453.368C553.774 453.191 553.844 453.021 553.969 452.896C554.094 452.771 554.264 452.701 554.441 452.701C554.617 452.701 554.787 452.771 554.912 452.896C555.037 453.021 555.108 453.191 555.108 453.368V468.961C555.108 469.138 555.037 469.308 554.912 469.433C554.787 469.558 554.617 469.628 554.441 469.628Z" fill="#263238"/>
<path d="M565.406 426.649H549.812C549.636 426.645 549.468 426.574 549.344 426.45C549.22 426.325 549.148 426.158 549.145 425.982C549.145 425.805 549.215 425.635 549.34 425.51C549.465 425.385 549.635 425.315 549.812 425.315H565.406C565.582 425.315 565.752 425.385 565.877 425.51C566.002 425.635 566.072 425.805 566.072 425.982C566.069 426.158 565.998 426.325 565.873 426.45C565.749 426.574 565.581 426.645 565.406 426.649Z" fill="#263238"/>
<path d="M565.406 357.777H549.812C549.635 357.777 549.465 357.707 549.34 357.582C549.215 357.457 549.145 357.287 549.145 357.11C549.145 356.933 549.215 356.764 549.34 356.639C549.465 356.513 549.635 356.443 549.812 356.443H565.406C565.582 356.443 565.752 356.513 565.877 356.639C566.002 356.764 566.072 356.933 566.072 357.11C566.072 357.287 566.002 357.457 565.877 357.582C565.752 357.707 565.582 357.777 565.406 357.777Z" fill="#263238"/>
<path d="M565.406 288.906H549.812C549.635 288.906 549.465 288.835 549.34 288.71C549.215 288.585 549.145 288.416 549.145 288.239C549.145 288.062 549.215 287.892 549.34 287.767C549.465 287.642 549.635 287.572 549.812 287.572H565.406C565.582 287.572 565.752 287.642 565.877 287.767C566.002 287.892 566.072 288.062 566.072 288.239C566.072 288.416 566.002 288.585 565.877 288.71C565.752 288.835 565.582 288.906 565.406 288.906Z" fill="#263238"/>
<g opacity="0.3">
<path d="M496.747 469.628C496.571 469.628 496.401 469.558 496.276 469.433C496.151 469.308 496.081 469.138 496.081 468.961V453.368C496.081 453.191 496.151 453.021 496.276 452.896C496.401 452.771 496.571 452.701 496.747 452.701C496.923 452.704 497.091 452.775 497.215 452.9C497.34 453.024 497.411 453.192 497.414 453.368V468.961C497.411 469.137 497.34 469.305 497.215 469.429C497.091 469.554 496.923 469.625 496.747 469.628Z" fill="white"/>
</g>
<g opacity="0.3">
<path d="M554.441 469.628C554.264 469.628 554.094 469.558 553.969 469.433C553.844 469.308 553.774 469.138 553.774 468.961V453.368C553.774 453.191 553.844 453.021 553.969 452.896C554.094 452.771 554.264 452.701 554.441 452.701C554.617 452.701 554.787 452.771 554.912 452.896C555.037 453.021 555.108 453.191 555.108 453.368V468.961C555.108 469.138 555.037 469.308 554.912 469.433C554.787 469.558 554.617 469.628 554.441 469.628Z" fill="white"/>
</g>
<g opacity="0.5">
<path d="M565.406 426.649H549.812C549.636 426.645 549.468 426.574 549.344 426.45C549.22 426.325 549.148 426.158 549.145 425.982C549.145 425.805 549.215 425.635 549.34 425.51C549.465 425.385 549.635 425.315 549.812 425.315H565.406C565.582 425.315 565.752 425.385 565.877 425.51C566.002 425.635 566.072 425.805 566.072 425.982C566.069 426.158 565.998 426.325 565.873 426.45C565.749 426.574 565.581 426.645 565.406 426.649Z" fill="white"/>
</g>
<g opacity="0.5">
<path d="M565.406 357.777H549.812C549.635 357.777 549.465 357.707 549.34 357.582C549.215 357.457 549.145 357.287 549.145 357.11C549.145 356.933 549.215 356.764 549.34 356.639C549.465 356.513 549.635 356.443 549.812 356.443H565.406C565.582 356.443 565.752 356.513 565.877 356.639C566.002 356.764 566.072 356.933 566.072 357.11C566.072 357.287 566.002 357.457 565.877 357.582C565.752 357.707 565.582 357.777 565.406 357.777Z" fill="white"/>
</g>
<g opacity="0.5">
<path d="M565.406 288.906H549.812C549.635 288.906 549.465 288.835 549.34 288.71C549.215 288.585 549.145 288.416 549.145 288.239C549.145 288.062 549.215 287.892 549.34 287.767C549.465 287.642 549.635 287.572 549.812 287.572H565.406C565.582 287.572 565.752 287.642 565.877 287.767C566.002 287.892 566.072 288.062 566.072 288.239C566.072 288.416 566.002 288.585 565.877 288.71C565.752 288.835 565.582 288.906 565.406 288.906Z" fill="white"/>
</g>
<path d="M565.045 470.295H456.502C456.149 470.295 455.809 470.155 455.559 469.905C455.309 469.654 455.168 469.315 455.168 468.961C455.168 468.608 455.309 468.268 455.559 468.018C455.809 467.768 456.149 467.627 456.502 467.627H563.711V250.355H493.012V460.678C493.012 461.031 492.872 461.371 492.622 461.621C492.372 461.871 492.032 462.012 491.678 462.012C491.325 462.012 490.985 461.871 490.735 461.621C490.485 461.371 490.344 461.031 490.344 460.678V249.021C490.344 248.667 490.485 248.328 490.735 248.077C490.985 247.827 491.325 247.687 491.678 247.687H565.045C565.399 247.687 565.738 247.827 565.989 248.077C566.239 248.328 566.379 248.667 566.379 249.021V468.961C566.379 469.137 566.345 469.31 566.278 469.472C566.211 469.634 566.112 469.781 565.989 469.905C565.865 470.029 565.718 470.127 565.556 470.194C565.394 470.261 565.221 470.295 565.045 470.295Z" fill="#263238"/>
<g opacity="0.5">
<path d="M565.045 470.295H456.502C456.149 470.295 455.809 470.155 455.559 469.905C455.309 469.654 455.168 469.315 455.168 468.961C455.168 468.608 455.309 468.268 455.559 468.018C455.809 467.768 456.149 467.627 456.502 467.627H563.711V250.355H493.012V460.678C493.012 461.031 492.872 461.371 492.622 461.621C492.372 461.871 492.032 462.012 491.678 462.012C491.325 462.012 490.985 461.871 490.735 461.621C490.485 461.371 490.344 461.031 490.344 460.678V249.021C490.344 248.667 490.485 248.328 490.735 248.077C490.985 247.827 491.325 247.687 491.678 247.687H565.045C565.399 247.687 565.738 247.827 565.989 248.077C566.239 248.328 566.379 248.667 566.379 249.021V468.961C566.379 469.137 566.345 469.31 566.278 469.472C566.211 469.634 566.112 469.781 565.989 469.905C565.865 470.029 565.718 470.127 565.556 470.194C565.394 470.261 565.221 470.295 565.045 470.295Z" fill="white"/>
</g>
<path d="M460.731 469.628C460.554 469.628 460.384 469.558 460.259 469.433C460.134 469.308 460.064 469.138 460.064 468.961V453.368C460.064 453.191 460.134 453.021 460.259 452.896C460.384 452.771 460.554 452.701 460.731 452.701C460.907 452.704 461.074 452.775 461.199 452.9C461.323 453.024 461.395 453.192 461.398 453.368V468.961C461.395 469.137 461.323 469.305 461.199 469.429C461.074 469.554 460.907 469.625 460.731 469.628Z" fill="#263238"/>
<path d="M518.424 469.628C518.247 469.628 518.077 469.558 517.952 469.433C517.827 469.308 517.757 469.138 517.757 468.961V453.368C517.757 453.191 517.827 453.021 517.952 452.896C518.077 452.771 518.247 452.701 518.424 452.701C518.6 452.704 518.768 452.775 518.892 452.9C519.016 453.024 519.088 453.192 519.091 453.368V468.961C519.088 469.137 519.016 469.305 518.892 469.429C518.768 469.554 518.6 469.625 518.424 469.628Z" fill="#263238"/>
<g opacity="0.5">
<path d="M460.731 469.628C460.554 469.628 460.384 469.558 460.259 469.433C460.134 469.308 460.064 469.138 460.064 468.961V453.368C460.064 453.191 460.134 453.021 460.259 452.896C460.384 452.771 460.554 452.701 460.731 452.701C460.907 452.704 461.074 452.775 461.199 452.9C461.323 453.024 461.395 453.192 461.398 453.368V468.961C461.395 469.137 461.323 469.305 461.199 469.429C461.074 469.554 460.907 469.625 460.731 469.628Z" fill="white"/>
</g>
<g opacity="0.5">
<path d="M518.424 469.628C518.247 469.628 518.077 469.558 517.952 469.433C517.827 469.308 517.757 469.138 517.757 468.961V453.368C517.757 453.191 517.827 453.021 517.952 452.896C518.077 452.771 518.247 452.701 518.424 452.701C518.6 452.704 518.768 452.775 518.892 452.9C519.016 453.024 519.088 453.192 519.091 453.368V468.961C519.088 469.137 519.016 469.305 518.892 469.429C518.768 469.554 518.6 469.625 518.424 469.628Z" fill="white"/>
</g>
<path d="M461.398 269.95H460.064V283.943H461.398V269.95Z" fill="#263238"/>
<path d="M520.332 269.95H518.998V283.943H520.332V269.95Z" fill="#263238"/>
<path d="M497.414 269.95H496.081V283.943H497.414V269.95Z" fill="#263238"/>
<path d="M556.348 269.95H555.014V283.943H556.348V269.95Z" fill="#263238"/>
<g opacity="0.6">
<path d="M461.398 269.95H460.064V283.943H461.398V269.95Z" fill="white"/>
</g>
<g opacity="0.6">
<path d="M520.332 269.95H518.998V283.943H520.332V269.95Z" fill="white"/>
</g>
<g opacity="0.5">
<path d="M497.414 269.95H496.081V283.943H497.414V269.95Z" fill="white"/>
</g>
<g opacity="0.5">
<path d="M556.348 269.95H555.014V283.943H556.348V269.95Z" fill="white"/>
</g>
<path d="M558.029 271.298H457.85C457.496 271.298 457.157 271.157 456.906 270.907C456.656 270.657 456.516 270.317 456.516 269.964C456.516 269.61 456.656 269.271 456.906 269.02C457.157 268.77 457.496 268.63 457.85 268.63H558.029C558.383 268.63 558.722 268.77 558.972 269.02C559.222 269.271 559.363 269.61 559.363 269.964C559.363 270.139 559.328 270.312 559.261 270.474C559.194 270.636 559.096 270.783 558.972 270.907C558.848 271.031 558.701 271.129 558.539 271.196C558.377 271.263 558.204 271.298 558.029 271.298Z" fill="#263238"/>
<g opacity="0.7">
<path d="M558.029 271.298H457.85C457.496 271.298 457.157 271.157 456.906 270.907C456.656 270.657 456.516 270.317 456.516 269.964C456.516 269.61 456.656 269.271 456.906 269.02C457.157 268.77 457.496 268.63 457.85 268.63H558.029C558.383 268.63 558.722 268.77 558.972 269.02C559.222 269.271 559.363 269.61 559.363 269.964C559.363 270.139 559.328 270.312 559.261 270.474C559.194 270.636 559.096 270.783 558.972 270.907C558.848 271.031 558.701 271.129 558.539 271.196C558.377 271.263 558.204 271.298 558.029 271.298Z" fill="white"/>
</g>
<path d="M559.376 280.995H456.502V463.506H559.376V280.995Z" fill="#263238"/>
<path opacity="0.5" d="M559.376 280.995H456.502V463.506H559.376V280.995Z" fill="white"/>
<path opacity="0.5" d="M523.146 280.995H456.502V463.506H523.146V280.995Z" fill="white"/>
<path opacity="0.3" d="M518.424 286.971H460.731V304.566H518.424V286.971Z" fill="white"/>
<path opacity="0.2" d="M498.148 302.632H480.994C480.469 302.628 479.967 302.417 479.597 302.045C479.227 301.673 479.019 301.169 479.019 300.644C479.019 300.385 479.07 300.128 479.17 299.889C479.269 299.649 479.414 299.432 479.598 299.248C479.781 299.065 479.999 298.92 480.238 298.82C480.478 298.721 480.734 298.67 480.994 298.67H498.148C498.672 298.67 499.174 298.878 499.544 299.248C499.914 299.619 500.122 300.121 500.122 300.644C500.122 301.169 499.915 301.673 499.545 302.045C499.175 302.417 498.673 302.628 498.148 302.632Z" fill="black"/>
<path opacity="0.3" d="M518.424 312.383H460.731V329.978H518.424V312.383Z" fill="white"/>
<path opacity="0.2" d="M498.148 328.044H480.994C480.734 328.044 480.478 327.992 480.238 327.893C479.999 327.794 479.781 327.649 479.598 327.465C479.414 327.282 479.269 327.064 479.17 326.825C479.07 326.585 479.019 326.329 479.019 326.069C479.019 325.544 479.227 325.041 479.597 324.669C479.967 324.296 480.469 324.085 480.994 324.082H498.148C498.673 324.085 499.175 324.296 499.545 324.669C499.915 325.041 500.122 325.544 500.122 326.069C500.122 326.593 499.914 327.095 499.544 327.465C499.174 327.836 498.672 328.044 498.148 328.044Z" fill="black"/>
<path opacity="0.3" d="M518.424 337.795H460.731V355.389H518.424V337.795Z" fill="white"/>
<path opacity="0.2" d="M498.148 353.495H480.994C480.734 353.495 480.478 353.444 480.238 353.345C479.999 353.246 479.781 353.1 479.598 352.917C479.414 352.734 479.269 352.516 479.17 352.276C479.07 352.037 479.019 351.78 479.019 351.521C479.019 350.996 479.227 350.493 479.597 350.12C479.967 349.748 480.469 349.537 480.994 349.533H498.148C498.673 349.537 499.175 349.748 499.545 350.12C499.915 350.493 500.122 350.996 500.122 351.521C500.122 352.045 499.914 352.547 499.544 352.917C499.174 353.287 498.672 353.495 498.148 353.495Z" fill="black"/>
<path opacity="0.3" d="M518.424 363.22H460.731V380.814H518.424V363.22Z" fill="white"/>
<path opacity="0.2" d="M498.148 378.84H480.994C480.734 378.84 480.478 378.789 480.238 378.69C479.999 378.591 479.781 378.445 479.598 378.262C479.414 378.079 479.269 377.861 479.17 377.621C479.07 377.382 479.019 377.125 479.019 376.866C479.019 376.607 479.07 376.35 479.17 376.11C479.269 375.871 479.414 375.653 479.598 375.47C479.781 375.287 479.999 375.141 480.238 375.042C480.478 374.943 480.734 374.892 480.994 374.892H498.148C498.672 374.892 499.174 375.1 499.544 375.47C499.914 375.84 500.122 376.342 500.122 376.866C500.122 377.389 499.914 377.892 499.544 378.262C499.174 378.632 498.672 378.84 498.148 378.84Z" fill="black"/>
<path opacity="0.3" d="M518.424 386.27H460.731V454.702H518.424V386.27Z" fill="white"/>
<path d="M316.251 235.388L328.684 242.658L325.522 248.767L312.13 239.71L316.251 235.388Z" fill="#FFC2BC"/>
<path d="M378.147 371.09C398.409 405.199 399.063 468.121 399.063 468.121L392.073 470.202C389.845 460.731 370.009 404.505 357.497 376.252C356.443 373.878 353.869 368.982 354.562 364.714C355.656 357.884 358.644 349.787 362.566 341.383C375.652 313.477 399.263 282.116 399.263 282.116L424.955 290.586C424.955 290.586 415.79 317.265 380.067 364.273C379.24 365.367 378.4 366.474 377.533 367.595C377.351 368.185 377.312 368.809 377.419 369.416C377.525 370.024 377.775 370.598 378.147 371.09Z" fill="#FFC2BC"/>
<path opacity="0.2" d="M424.968 290.586C424.968 290.586 415.804 317.265 380.081 364.273C369.049 357.15 364.367 348.64 362.579 341.383C375.665 313.477 399.276 282.116 399.276 282.116L424.968 290.586Z" fill="black"/>
<path d="M400.183 481.874H398.276L397.742 479.513L391.419 482.367H375.412C375.412 482.367 372.864 479.806 380.494 477.765C380.867 477.664 381.229 477.526 381.575 477.352C385.643 475.444 391.433 469.001 391.433 469.001H400.183C400.453 469.429 400.694 469.875 400.904 470.335C401.837 472.216 403.491 476.218 400.183 481.874Z" fill="#263238"/>
<path d="M400.877 470.269C399.716 468.935 394.434 474.657 390.565 476.592C387.111 478.312 383.229 479.073 381.508 477.325C385.577 475.418 391.979 467.094 391.979 467.094H399.036C399.036 467.094 400.463 469.442 400.877 470.269Z" fill="#FFC2BC"/>
<path d="M403.225 367.288C442.349 299.617 432.078 282.983 432.078 282.983L407.133 272.498C407.133 272.498 387.577 333.593 380.534 362.606C379.52 366.808 381.695 371.944 382.548 374.331C392.78 403.491 408.107 461.118 409.561 470.736L416.231 469.175C416.231 469.175 421.006 406.479 403.518 370.836C403.193 370.31 402.996 369.714 402.945 369.098C402.894 368.481 402.99 367.861 403.225 367.288Z" fill="#FFC2BC"/>
<path d="M417.524 481.874H415.617L415.083 479.513L408.76 482.367H392.753C392.753 482.367 390.205 479.806 397.835 477.765C398.209 477.664 398.571 477.526 398.916 477.352C402.984 475.444 408.774 469.001 408.774 469.001H417.524C417.795 469.429 418.035 469.875 418.245 470.335C419.179 472.216 420.833 476.218 417.524 481.874Z" fill="#263238"/>
<path d="M418.218 470.269C417.058 468.935 411.775 474.657 407.907 476.592C404.452 478.312 400.57 479.073 398.849 477.325C402.918 475.418 409.321 467.094 409.321 467.094H416.391C416.391 467.094 417.805 469.442 418.218 470.269Z" fill="#FFC2BC"/>
<path d="M353.295 208.269C354.042 208.269 348.893 239.55 347.599 244.285C346.305 249.021 319.493 236.188 319.493 236.188L315.158 242.858C315.158 242.858 338.675 262.627 348.786 260.399C358.898 258.172 366.528 223.169 366.528 223.169L353.295 208.269Z" fill="#68D668"/>
<path opacity="0.5" d="M315.158 242.858C315.158 242.858 338.688 262.64 348.786 260.413C352.788 259.519 356.51 253.329 359.458 246.233C362.323 238.963 364.641 231.49 366.394 223.876L366.541 223.182L365.074 221.475L359.618 215.139L353.348 208.295C353.855 209.536 348.88 239.656 347.599 244.312C346.319 248.967 319.506 236.215 319.506 236.215L315.158 242.858Z" fill="white"/>
<path opacity="0.2" d="M359.445 246.233C362.309 238.963 364.628 231.49 366.381 223.876C365.954 223.049 365.527 222.235 365.047 221.475C363.668 219.021 361.813 216.867 359.591 215.138L359.391 214.992C359.391 214.992 353.642 231.693 359.445 246.233Z" fill="black"/>
<path d="M355.176 353.842L414.336 360.165C414.336 360.165 442.656 313.944 443.897 302.979C447.298 272.938 434.079 257.104 430.757 248.901C430.05 247.14 427.049 239.496 427.049 239.496L385.256 249.234L388.178 274.859C388.178 274.859 372.784 295.269 355.176 353.842Z" fill="#68D668"/>
<path opacity="0.3" d="M355.176 353.842L414.336 360.165C414.336 360.165 442.656 313.944 443.897 302.979C447.298 272.938 434.079 257.104 430.757 248.901C430.05 247.14 427.049 239.496 427.049 239.496L385.256 249.234L388.178 274.859C388.178 274.859 372.784 295.269 355.176 353.842Z" fill="white"/>
<path d="M417.018 249.581L429.116 246.393L427.036 240.43L415.163 243.245L417.018 249.581Z" fill="black"/>
<path d="M391.473 256.331L414.95 250.128L413.082 243.738L389.432 249.314L391.473 256.331Z" fill="black"/>
<path d="M387.351 249.808L384.923 250.381L387.377 257.411L389.405 256.878L387.351 249.808Z" fill="black"/>
<path d="M396.806 255.415L405.967 253.119L404.225 246.171L395.064 248.467L396.806 255.415Z" fill="white"/>
<path d="M356.497 208.936C356.497 208.936 379.174 238.523 381.748 243.898C382.829 246.179 383.896 248.687 385.083 251.622L427.049 240.43C419.139 211.083 412.375 195.716 408.987 188.046C408.958 187.963 408.922 187.883 408.881 187.806C408.987 188.046 389.005 186.259 385.737 187.366C380.499 189.075 375.412 191.217 370.53 193.769C365.114 196.623 356.497 208.936 356.497 208.936Z" fill="#263238"/>
<path d="M390.192 186.379L390.392 228.998C390.392 228.998 369.049 214.165 368.916 192.875L353.322 208.189C353.322 208.189 361.766 229.252 378.813 240.43L384.589 253.609L396.995 251.622L397.849 246.286L402.184 249.794L429.116 243.712C429.116 243.712 415.897 191.888 413.349 189.193C409.521 185.205 390.192 186.379 390.192 186.379Z" fill="#68D668"/>
<path opacity="0.5" d="M429.116 243.725L402.197 249.808L397.849 246.299L396.995 251.635L384.603 253.623L378.84 240.43C361.806 229.252 353.348 208.189 353.348 208.189L368.942 192.862C369.036 214.205 390.432 228.998 390.432 228.998L390.232 186.312C390.232 186.312 409.601 185.138 413.389 189.153C414.51 190.34 417.698 201.092 420.926 212.737C422.393 218.006 423.847 223.409 425.128 228.278C427.409 237.029 429.116 243.725 429.116 243.725Z" fill="white"/>
<path d="M387.164 186.219C389.215 200.133 390.294 214.173 390.392 228.238L402.184 205.988L394.274 201.506L408.52 199.158C408.52 199.158 397.128 184.284 387.164 186.219Z" fill="#FEE380"/>
<path d="M390.392 228.998C390.392 228.998 370.65 211.323 368.916 192.875C368.916 192.875 361.779 202.373 362.112 213.284L371.103 207.575L369.009 217.513C369.009 217.513 378.84 226.77 390.392 228.998Z" fill="#FEE380"/>
<g opacity="0.3">
<path d="M387.164 186.219C389.215 200.133 390.294 214.173 390.392 228.238L402.184 205.988L394.274 201.506L408.52 199.158C408.52 199.158 397.128 184.284 387.164 186.219Z" fill="white"/>
<path d="M390.392 228.998C390.392 228.998 370.65 211.323 368.916 192.875C368.916 192.875 361.779 202.373 362.112 213.284L371.103 207.575L369.009 217.513C369.009 217.513 378.84 226.77 390.392 228.998Z" fill="white"/>
</g>
<path d="M378.427 186.018C386.524 184.271 389.525 184.271 394.274 196.93L383.536 199.158L384.87 211.003L376.759 201.852L370.476 206.788C370.476 206.788 363.847 189.193 378.427 186.018Z" fill="#263238"/>
<path opacity="0.2" d="M378.427 186.018C386.524 184.271 389.525 184.271 394.274 196.93L383.536 199.158L384.87 211.003L376.759 201.852L370.476 206.788C370.476 206.788 363.847 189.193 378.427 186.018Z" fill="white"/>
<path d="M383.536 207.575L382.308 199.131L384.589 186.018C375.345 185.712 374.545 175.267 374.545 175.267L366.541 185.498C367.965 186.633 369.303 187.873 370.543 189.207C375.732 194.956 373.211 197.33 373.211 197.33L377.52 200.532L383.536 207.575Z" fill="#FFC2BC"/>
<path opacity="0.2" d="M366.528 185.498C367.952 186.633 369.29 187.873 370.53 189.207C374.198 184.071 374.611 175.267 374.611 175.267L366.528 185.498Z" fill="black"/>
<path d="M371.103 191.714C371.103 191.714 379.974 189.98 382.548 184.444L384.923 185.498C384.923 185.498 388.084 193.942 381.962 196.837C380.174 197.647 378.186 197.905 376.251 197.577C374.316 197.249 372.524 196.35 371.103 194.996V191.714Z" fill="#006600"/>
<path d="M371.997 190.914C369.516 187.979 366.088 190.501 362.659 192.515C361.755 193.107 360.73 193.489 359.659 193.632C358.587 193.776 357.498 193.676 356.47 193.342C356.47 193.342 360.352 196.25 364.22 196.25C366.337 196.32 368.434 195.817 370.29 194.796C369.017 195.12 367.884 195.848 367.059 196.87C366.235 197.892 365.763 199.153 365.714 200.465C365.447 205.214 363.046 205.481 363.046 205.481C364.165 205.998 365.421 206.136 366.625 205.873C367.829 205.611 368.914 204.963 369.716 204.027C372.984 200.732 373.998 193.288 371.997 190.914Z" fill="#006600"/>
<path d="M348.906 170.065C341.85 168.344 333.94 159.086 343.691 147.387C353.442 135.689 369.596 139.451 372.784 145.68C372.784 145.68 380.521 146.08 381.641 159.473C382.762 172.866 369.009 176.921 369.009 176.921L348.906 170.065Z" fill="#263238"/>
<path d="M357.817 147.748C347.012 150.416 344.945 157.005 346.866 168.33C349.267 182.484 354.749 191.621 367.542 185.352C384.896 176.854 375.745 143.372 357.817 147.748Z" fill="#FFC2BC"/>
<path d="M353.695 166.036C353.22 167.859 352.531 169.618 351.641 171.278C352.067 171.647 352.586 171.89 353.142 171.982C353.697 172.074 354.267 172.01 354.789 171.799L353.695 166.036Z" fill="#D4827D"/>
<path d="M360.165 163.542C360.352 164.435 360.992 165.049 361.592 164.875C362.193 164.702 362.513 163.915 362.313 163.021C362.112 162.128 361.486 161.514 360.885 161.687C360.285 161.861 359.898 162.648 360.165 163.542Z" fill="#263238"/>
<path d="M361.072 161.674L358.964 161.407C358.964 161.407 360.285 162.741 361.072 161.674Z" fill="#263238"/>
<path d="M348.96 165.783C349.16 166.676 349.8 167.29 350.387 167.117C350.974 166.943 351.307 166.156 351.121 165.262C350.934 164.369 350.28 163.755 349.68 163.928C349.08 164.102 348.76 164.889 348.96 165.783Z" fill="#263238"/>
<path d="M349.947 163.915L347.839 163.582C347.839 163.582 349.16 164.996 349.947 163.915Z" fill="#263238"/>
<path d="M363.473 157.032C363.366 157.031 363.262 156.993 363.18 156.925C362.492 156.512 361.72 156.258 360.921 156.184C360.122 156.11 359.316 156.218 358.564 156.498C358.505 156.522 358.441 156.533 358.377 156.532C358.313 156.53 358.25 156.516 358.192 156.49C358.133 156.464 358.081 156.427 358.037 156.38C357.993 156.333 357.959 156.278 357.937 156.218C357.914 156.16 357.903 156.097 357.904 156.034C357.906 155.971 357.92 155.909 357.946 155.852C357.972 155.794 358.01 155.743 358.057 155.7C358.103 155.658 358.158 155.625 358.217 155.605C359.121 155.257 360.093 155.126 361.057 155.221C362.02 155.316 362.948 155.635 363.767 156.151C363.865 156.232 363.929 156.347 363.946 156.473C363.963 156.599 363.933 156.727 363.86 156.832C363.816 156.893 363.758 156.943 363.69 156.978C363.623 157.013 363.549 157.031 363.473 157.032Z" fill="#263238"/>
<path d="M346.332 159.927C346.272 159.927 346.213 159.916 346.158 159.893C346.103 159.87 346.053 159.836 346.012 159.793C345.965 159.749 345.928 159.697 345.903 159.638C345.878 159.58 345.865 159.517 345.865 159.453C345.865 159.389 345.878 159.326 345.903 159.268C345.928 159.209 345.965 159.156 346.012 159.113C346.551 158.444 347.237 157.908 348.016 157.547C348.796 157.186 349.648 157.01 350.507 157.032C350.57 157.039 350.632 157.058 350.687 157.088C350.743 157.119 350.792 157.16 350.832 157.209C350.872 157.259 350.901 157.316 350.919 157.377C350.936 157.438 350.941 157.502 350.934 157.565C350.917 157.692 350.852 157.807 350.753 157.886C350.654 157.966 350.527 158.004 350.4 157.992C349.693 157.991 348.993 158.149 348.356 158.456C347.718 158.764 347.158 159.212 346.719 159.766C346.671 159.821 346.611 159.863 346.544 159.891C346.477 159.919 346.404 159.931 346.332 159.927Z" fill="#263238"/>
<path d="M374.051 163.075C374.051 163.075 366.835 155.431 365.941 148.401C365.941 148.401 342.397 144.866 346.639 166.85C346.639 166.85 339.849 148.068 358.311 143.119C376.772 138.17 383.309 165.342 375.652 175.774C375.692 175.774 378.533 167.864 374.051 163.075Z" fill="#263238"/>
<path d="M372.837 165.796C372.637 164.527 372.944 163.23 373.693 162.186C374.442 161.142 375.573 160.436 376.839 160.22C380.267 159.766 383.509 166.249 375.612 169.931C374.531 170.465 373.571 169.411 372.837 165.796Z" fill="#FFC2BC"/>
<path d="M355.603 176.694C356.558 177.558 357.45 178.49 358.271 179.482L358.858 179.135C361.525 177.548 362.206 175.947 362.179 174.64C362.158 174.006 361.979 173.387 361.659 172.839C361.49 172.519 361.279 172.223 361.032 171.959C359.84 173.665 358.292 175.094 356.497 176.147C355.963 176.494 355.603 176.694 355.603 176.694Z" fill="#263238"/>
<path d="M356.497 176.147L357.31 176.948C359.791 175.44 361.312 174.053 361.659 172.839C361.49 172.519 361.279 172.223 361.032 171.959C359.84 173.665 358.293 175.094 356.497 176.147Z" fill="white"/>
<path d="M358.831 179.135C361.499 177.548 362.179 175.947 362.152 174.64C361.158 175.263 360.282 176.058 359.565 176.988C359.098 177.608 358.841 178.36 358.831 179.135Z" fill="#DE5753"/>
<path d="M373.504 146.734C373.504 146.734 377.146 129.393 385.657 137.276C394.167 145.16 389.658 157.899 377.093 153.203L373.504 146.734Z" fill="#263238"/>
<path opacity="0.2" d="M425.101 228.331C419.379 222.755 414.95 212.577 414.95 212.577C416.934 212.388 418.934 212.459 420.899 212.791C422.367 218.06 423.821 223.502 425.101 228.331Z" fill="black"/>
<path d="M408.881 187.806C415.163 183.391 444.43 223.516 444.43 223.516L446.231 222.062C453.995 221.248 455.128 230.559 455.128 230.559C455.128 230.559 452.154 240.697 444.457 237.109C436.76 233.52 414.95 212.577 414.95 212.577C414.95 212.577 403.918 191.288 408.881 187.806Z" fill="#68D668"/>
<path opacity="0.5" d="M455.128 230.559C455.128 230.559 452.154 240.697 444.457 237.109C436.76 233.52 414.95 212.577 414.95 212.577C414.95 212.577 403.918 191.234 408.881 187.806C414.136 184.111 435.439 211.55 442.296 220.648C443.63 222.435 444.43 223.516 444.43 223.516L446.231 222.062C453.995 221.248 455.128 230.559 455.128 230.559Z" fill="white"/>
<path opacity="0.2" d="M444.43 223.516C443.248 224.53 442.409 225.886 442.029 227.397C442.029 227.397 440.802 223.116 442.296 220.648C443.643 222.435 444.43 223.516 444.43 223.516Z" fill="black"/>
<path d="M445.19 225.25L448.886 219.314C448.706 218.562 448.573 217.8 448.485 217.033C448.312 215.699 472.496 217.34 472.496 217.34L463.812 223.516L456.849 221.555L454.008 230.332C453.095 230.605 452.136 230.689 451.19 230.578C450.244 230.468 449.33 230.166 448.505 229.69C447.679 229.214 446.96 228.575 446.39 227.811C445.82 227.048 445.412 226.176 445.19 225.25Z" fill="#FFC2BC"/>
<path d="M483.128 183.511L480.7 191.581L481.407 191.541L483.742 183.511H483.128Z" fill="#263238"/>
<path d="M483.661 213.391H472.776L471.336 191.794H485.115L483.661 213.391Z" fill="#263238"/>
<path opacity="0.6" d="M482.154 201.426C482.141 202.201 481.899 202.955 481.459 203.593C481.018 204.232 480.399 204.726 479.679 205.013C478.959 205.301 478.17 205.369 477.411 205.21C476.652 205.051 475.957 204.671 475.414 204.118C474.87 203.565 474.502 202.864 474.355 202.102C474.209 201.341 474.29 200.553 474.59 199.838C474.89 199.123 475.394 198.512 476.04 198.083C476.685 197.653 477.444 197.424 478.219 197.424C478.741 197.424 479.259 197.528 479.74 197.73C480.222 197.931 480.659 198.227 481.025 198.6C481.392 198.972 481.68 199.414 481.874 199.899C482.068 200.384 482.163 200.903 482.154 201.426Z" fill="white"/>
<path d="M481.314 201.426C481.314 202.038 481.132 202.636 480.792 203.145C480.452 203.654 479.969 204.05 479.403 204.285C478.838 204.519 478.216 204.58 477.615 204.461C477.015 204.341 476.463 204.047 476.031 203.614C475.598 203.181 475.303 202.63 475.184 202.029C475.064 201.429 475.126 200.807 475.36 200.241C475.594 199.676 475.991 199.192 476.5 198.852C477.009 198.512 477.607 198.331 478.219 198.331C479.04 198.331 479.827 198.657 480.407 199.237C480.988 199.818 481.314 200.605 481.314 201.426Z" fill="#006600"/>
<path d="M485.716 192.368H470.722L472.176 189.193H484.262L485.716 192.368Z" fill="#263238"/>
<path opacity="0.6" d="M485.716 192.368H470.722L472.176 189.193H484.262L485.716 192.368Z" fill="white"/>
<path d="M485.983 190.781H470.469V192.368H485.983V190.781Z" fill="#263238"/>
<path opacity="0.7" d="M485.983 190.781H470.469V192.368H485.983V190.781Z" fill="white"/>
<path d="M434.492 211.564C433.617 211.619 432.74 211.488 431.919 211.18C431.099 210.872 430.352 210.394 429.73 209.776C429.114 209.091 428.685 208.258 428.486 207.358C428.288 206.458 428.326 205.521 428.596 204.64C428.69 204.3 428.859 203.984 429.089 203.717C429.32 203.449 429.607 203.236 429.93 203.093C431.918 202.239 435.133 203.773 435.493 203.947C435.65 204.023 435.771 204.158 435.828 204.323C435.886 204.488 435.876 204.67 435.8 204.827C435.723 204.985 435.588 205.105 435.423 205.163C435.258 205.22 435.077 205.21 434.919 205.134C434.079 204.72 431.664 203.8 430.45 204.307C430.296 204.368 430.158 204.466 430.049 204.591C429.94 204.716 429.863 204.866 429.823 205.027C429.619 205.688 429.588 206.39 429.736 207.066C429.883 207.741 430.203 208.367 430.664 208.882C431.558 209.829 433.412 210.79 437.2 209.909C437.284 209.888 437.372 209.884 437.458 209.897C437.544 209.91 437.626 209.941 437.7 209.987C437.773 210.033 437.837 210.094 437.886 210.165C437.936 210.237 437.97 210.318 437.987 210.403C438.023 210.573 437.992 210.75 437.9 210.897C437.808 211.043 437.662 211.149 437.494 211.19C436.511 211.428 435.504 211.553 434.492 211.564Z" fill="#263238"/>
<g opacity="0.4">
<path d="M434.492 211.564C433.617 211.619 432.74 211.488 431.919 211.18C431.099 210.872 430.352 210.394 429.73 209.776C429.114 209.091 428.685 208.258 428.486 207.358C428.288 206.458 428.326 205.521 428.596 204.64C428.69 204.3 428.859 203.984 429.089 203.717C429.32 203.449 429.607 203.236 429.93 203.093C431.918 202.239 435.133 203.773 435.493 203.947C435.65 204.023 435.771 204.158 435.828 204.323C435.886 204.488 435.876 204.67 435.8 204.827C435.723 204.985 435.588 205.105 435.423 205.163C435.258 205.22 435.077 205.21 434.919 205.134C434.079 204.72 431.664 203.8 430.45 204.307C430.296 204.368 430.158 204.466 430.049 204.591C429.94 204.716 429.863 204.866 429.823 205.027C429.619 205.688 429.588 206.39 429.736 207.066C429.883 207.741 430.203 208.367 430.664 208.882C431.558 209.829 433.412 210.79 437.2 209.909C437.284 209.888 437.372 209.884 437.458 209.897C437.544 209.91 437.626 209.941 437.7 209.987C437.773 210.033 437.837 210.094 437.886 210.165C437.936 210.237 437.97 210.318 437.987 210.403C438.023 210.573 437.992 210.75 437.9 210.897C437.808 211.043 437.662 211.149 437.494 211.19C436.511 211.428 435.504 211.553 434.492 211.564Z" fill="white"/>
</g>
<path d="M453.434 202.986C453.428 204.724 453.051 206.44 452.329 208.02C451.606 209.6 450.555 211.009 449.246 212.15C448.515 212.77 447.685 213.261 446.791 213.604H440.588C439.701 213.264 438.88 212.772 438.161 212.15C436.846 211.013 435.791 209.606 435.068 208.025C434.345 206.443 433.972 204.725 433.972 202.986H453.434Z" fill="#263238"/>
<path opacity="0.6" d="M453.434 202.986C453.428 204.724 453.051 206.44 452.329 208.02C451.606 209.6 450.555 211.009 449.246 212.15C448.515 212.77 447.685 213.261 446.791 213.604H440.588C439.701 213.264 438.88 212.772 438.161 212.15C436.846 211.013 435.791 209.606 435.068 208.025C434.345 206.443 433.972 204.725 433.972 202.986H453.434Z" fill="white"/>
<path d="M449.753 213.604H437.64L438.121 212.15H449.286L449.753 213.604Z" fill="#263238"/>
<path opacity="0.4" d="M449.753 213.604H437.64L438.121 212.15H449.286L449.753 213.604Z" fill="white"/>
<path d="M441.309 193.075C441.185 193.698 441.25 194.344 441.495 194.929C441.778 195.472 442.113 195.986 442.496 196.463C442.95 197.049 443.31 197.701 443.563 198.397C443.622 198.599 443.666 198.804 443.696 199.011C443.71 199.22 443.71 199.429 443.696 199.638C443.644 199.827 443.572 200.01 443.483 200.185C443.386 200.325 443.274 200.455 443.15 200.572C443.274 199.955 443.155 199.314 442.816 198.784C442.509 198.304 442.096 197.811 441.682 197.25C441.207 196.641 440.871 195.935 440.695 195.183C440.601 194.809 440.609 194.416 440.716 194.046C440.824 193.675 441.029 193.34 441.309 193.075Z" fill="#407BFF"/>
<path d="M443.029 188.606C442.906 189.229 442.971 189.875 443.216 190.461C443.504 191.001 443.838 191.514 444.217 191.995C444.68 192.576 445.044 193.23 445.297 193.929C445.358 194.129 445.398 194.334 445.417 194.542C445.438 194.751 445.438 194.961 445.417 195.169C445.362 195.358 445.291 195.541 445.204 195.716C445.103 195.854 444.992 195.983 444.87 196.103C444.936 195.798 444.94 195.483 444.883 195.176C444.825 194.869 444.708 194.577 444.537 194.316C444.23 193.822 443.817 193.342 443.403 192.782C442.928 192.172 442.591 191.467 442.416 190.714C442.325 190.34 442.334 189.948 442.441 189.578C442.549 189.208 442.752 188.873 443.029 188.606Z" fill="#407BFF"/>
<path opacity="0.7" d="M441.309 193.075C441.185 193.698 441.25 194.344 441.495 194.929C441.778 195.472 442.113 195.986 442.496 196.463C442.95 197.049 443.31 197.701 443.563 198.397C443.622 198.599 443.666 198.804 443.696 199.011C443.71 199.22 443.71 199.429 443.696 199.638C443.644 199.827 443.572 200.01 443.483 200.185C443.386 200.325 443.274 200.455 443.15 200.572C443.274 199.955 443.155 199.314 442.816 198.784C442.509 198.304 442.096 197.811 441.682 197.25C441.207 196.641 440.871 195.935 440.695 195.183C440.601 194.809 440.609 194.416 440.716 194.046C440.824 193.675 441.029 193.34 441.309 193.075Z" fill="white"/>
<path opacity="0.7" d="M443.029 188.606C442.906 189.229 442.971 189.875 443.216 190.461C443.504 191.001 443.838 191.514 444.217 191.995C444.68 192.576 445.044 193.23 445.297 193.929C445.358 194.129 445.398 194.334 445.417 194.542C445.438 194.751 445.438 194.961 445.417 195.169C445.362 195.358 445.291 195.541 445.204 195.716C445.103 195.854 444.992 195.983 444.87 196.103C444.936 195.798 444.94 195.483 444.883 195.176C444.825 194.869 444.708 194.577 444.537 194.316C444.23 193.822 443.817 193.342 443.403 192.782C442.928 192.172 442.591 191.467 442.416 190.714C442.325 190.34 442.334 189.948 442.441 189.578C442.549 189.208 442.752 188.873 443.029 188.606Z" fill="white"/>
<path d="M465.293 193.889C465.149 194.722 464.926 195.539 464.626 196.33C464.775 196.349 464.911 196.423 465.009 196.536C465.107 196.649 465.161 196.794 465.16 196.944V201.612C465.16 201.773 465.1 201.929 464.991 202.047C464.883 202.166 464.733 202.239 464.573 202.253C464.733 202.26 464.884 202.329 464.994 202.446C465.104 202.563 465.163 202.719 465.16 202.88V207.562C465.16 207.72 465.099 207.872 464.989 207.986C464.88 208.101 464.731 208.168 464.573 208.175C464.732 208.185 464.881 208.256 464.99 208.373C465.099 208.489 465.16 208.643 465.16 208.802V213.431C465.16 213.599 465.094 213.759 464.977 213.879C464.86 213.999 464.7 214.068 464.533 214.071H455.582C455.414 214.068 455.255 213.999 455.138 213.879C455.02 213.759 454.955 213.599 454.955 213.431V208.749C454.955 208.589 455.015 208.436 455.124 208.319C455.233 208.203 455.383 208.132 455.542 208.122C455.384 208.115 455.234 208.047 455.125 207.933C455.016 207.819 454.955 207.667 454.955 207.508V202.826C454.951 202.666 455.011 202.51 455.12 202.393C455.23 202.276 455.381 202.206 455.542 202.199C455.381 202.186 455.232 202.112 455.123 201.994C455.014 201.875 454.954 201.72 454.955 201.559V196.89C454.954 196.736 455.012 196.588 455.115 196.474C455.219 196.36 455.362 196.29 455.515 196.277C455.215 195.486 454.992 194.669 454.848 193.835C454.813 193.686 454.786 193.534 454.768 193.382C454.426 191.3 454.517 189.171 455.035 187.126C455.238 186.363 455.572 185.641 456.022 184.991C457.629 182.908 458.446 180.323 458.33 177.695H461.785C461.668 180.323 462.486 182.908 464.092 184.991C464.542 185.641 464.876 186.363 465.08 187.126C465.272 187.797 465.402 188.485 465.466 189.18C465.615 190.75 465.556 192.333 465.293 193.889Z" fill="#407BFF"/>
<path opacity="0.6" d="M465.293 193.889C465.149 194.722 464.926 195.539 464.626 196.33C464.775 196.349 464.911 196.423 465.009 196.536C465.107 196.649 465.161 196.794 465.16 196.944V201.612C465.16 201.773 465.1 201.929 464.991 202.047C464.883 202.166 464.733 202.239 464.573 202.253C464.733 202.26 464.884 202.329 464.994 202.446C465.104 202.563 465.163 202.719 465.16 202.88V207.562C465.16 207.72 465.099 207.872 464.989 207.986C464.88 208.101 464.731 208.168 464.573 208.175C464.732 208.185 464.881 208.256 464.99 208.373C465.099 208.489 465.16 208.643 465.16 208.802V213.431C465.16 213.599 465.094 213.759 464.977 213.879C464.86 213.999 464.7 214.068 464.533 214.071H455.582C455.414 214.068 455.255 213.999 455.138 213.879C455.02 213.759 454.955 213.599 454.955 213.431V208.749C454.955 208.589 455.015 208.436 455.124 208.319C455.233 208.203 455.383 208.132 455.542 208.122C455.384 208.115 455.234 208.047 455.125 207.933C455.016 207.819 454.955 207.667 454.955 207.508V202.826C454.951 202.666 455.011 202.51 455.12 202.393C455.23 202.276 455.381 202.206 455.542 202.199C455.381 202.186 455.232 202.112 455.123 201.994C455.014 201.875 454.954 201.72 454.955 201.559V196.89C454.954 196.736 455.012 196.588 455.115 196.474C455.219 196.36 455.362 196.29 455.515 196.277C455.215 195.486 454.992 194.669 454.848 193.835C454.813 193.686 454.786 193.534 454.768 193.382C454.426 191.3 454.517 189.171 455.035 187.126C455.238 186.363 455.572 185.641 456.022 184.991C457.629 182.908 458.446 180.323 458.33 177.695H461.785C461.668 180.323 462.486 182.908 464.092 184.991C464.542 185.641 464.876 186.363 465.08 187.126C465.272 187.797 465.402 188.485 465.466 189.18C465.615 190.75 465.556 192.333 465.293 193.889Z" fill="white"/>
<path d="M462.012 177.081H458.103C457.919 177.081 457.77 177.23 457.77 177.415V178.482C457.77 178.666 457.919 178.815 458.103 178.815H462.012C462.196 178.815 462.345 178.666 462.345 178.482V177.415C462.345 177.23 462.196 177.081 462.012 177.081Z" fill="#68D668"/>
<path d="M465.293 193.889H454.875C454.84 193.739 454.813 193.588 454.795 193.435C454.453 191.354 454.544 189.224 455.062 187.179H465.106C465.299 187.85 465.429 188.538 465.493 189.233C465.628 190.787 465.561 192.352 465.293 193.889Z" fill="#68D668"/>
<path opacity="0.4" d="M465.293 193.889H454.875C454.84 193.739 454.813 193.588 454.795 193.435C455.527 193.573 456.28 193.56 457.007 193.397C457.734 193.234 458.42 192.925 459.024 192.488C461.238 190.847 463.119 188.873 465.493 189.233C465.628 190.787 465.561 192.352 465.293 193.889Z" fill="white"/>
<path opacity="0.1" d="M455.542 202.253H464.573C461.618 203.069 458.497 203.069 455.542 202.253Z" fill="black"/>
<path opacity="0.1" d="M455.515 196.33H464.626C463.187 196.802 461.667 196.979 460.157 196.85C458.591 196.958 457.019 196.782 455.515 196.33Z" fill="black"/>
<path opacity="0.1" d="M455.542 208.175H464.573C463.089 208.488 461.58 208.657 460.064 208.682C458.544 208.656 457.03 208.486 455.542 208.175Z" fill="black"/>
<path d="M478.299 217.686H438.654L425.315 213.818H491.638L478.299 217.686Z" fill="#263238"/>
<path d="M492.772 214.525H424.194C424.113 214.527 424.031 214.512 423.955 214.482C423.879 214.452 423.81 214.407 423.752 214.35C423.693 214.293 423.647 214.225 423.615 214.149C423.584 214.074 423.567 213.993 423.567 213.911C423.567 213.745 423.633 213.586 423.751 213.468C423.868 213.35 424.028 213.284 424.194 213.284H492.786C492.952 213.284 493.111 213.35 493.229 213.468C493.347 213.586 493.413 213.745 493.413 213.911C493.413 213.994 493.396 214.076 493.363 214.152C493.331 214.229 493.283 214.298 493.224 214.355C493.164 214.412 493.093 214.457 493.015 214.486C492.938 214.515 492.855 214.529 492.772 214.525Z" fill="#263238"/>
<path opacity="0.1" d="M492.772 214.525H424.194C424.113 214.527 424.031 214.512 423.955 214.482C423.879 214.452 423.81 214.407 423.752 214.35C423.693 214.293 423.647 214.225 423.615 214.149C423.584 214.074 423.567 213.993 423.567 213.911C423.567 213.745 423.633 213.586 423.751 213.468C423.868 213.35 424.028 213.284 424.194 213.284H492.786C492.952 213.284 493.111 213.35 493.229 213.468C493.347 213.586 493.413 213.745 493.413 213.911C493.413 213.994 493.396 214.076 493.363 214.152C493.331 214.229 493.283 214.298 493.224 214.355C493.164 214.412 493.093 214.457 493.015 214.486C492.938 214.515 492.855 214.529 492.772 214.525Z" fill="white"/>
<path d="M312.143 239.71L302.605 240.27L308.648 230.012C308.648 230.012 317.159 231.039 316.265 235.348L312.143 239.71Z" fill="#FFC2BC"/>
<path d="M295.175 235.548L300.618 228.238L308.635 230.012L302.592 240.27L295.175 235.548Z" fill="#FFC2BC"/>
<path d="M273.832 376.826H238.082L229.438 313.383C229.017 311.652 228.029 310.111 226.633 309.004C225.236 307.898 223.51 307.289 221.728 307.274H213.431C211.332 307.278 209.32 308.114 207.837 309.6C206.354 311.085 205.521 313.098 205.521 315.198V387.337C205.521 390.125 206.628 392.799 208.6 394.77C210.571 396.741 213.244 397.849 216.032 397.849H273.779C276.567 397.849 279.24 396.741 281.211 394.77C283.183 392.799 284.29 390.125 284.29 387.337C284.29 384.55 283.183 381.876 281.211 379.905C279.24 377.933 276.567 376.826 273.779 376.826H273.832Z" fill="#263238"/>
<path opacity="0.5" d="M273.832 376.826H238.082L229.438 313.383C229.017 311.652 228.029 310.111 226.633 309.004C225.236 307.898 223.51 307.289 221.728 307.274H213.431C211.332 307.278 209.32 308.114 207.837 309.6C206.354 311.085 205.521 313.098 205.521 315.198V387.337C205.521 390.125 206.628 392.799 208.6 394.77C210.571 396.741 213.244 397.849 216.032 397.849H273.779C276.567 397.849 279.24 396.741 281.211 394.77C283.183 392.799 284.29 390.125 284.29 387.337C284.29 384.55 283.183 381.876 281.211 379.905C279.24 377.933 276.567 376.826 273.779 376.826H273.832Z" fill="white"/>
<path opacity="0.2" d="M265.562 376.826H229.799L221.195 313.383C220.786 311.645 219.802 310.096 218.402 308.987C217.003 307.878 215.27 307.275 213.484 307.274C211.385 307.278 209.373 308.114 207.89 309.6C206.407 311.085 205.574 313.098 205.574 315.198V387.337C205.574 390.125 206.682 392.799 208.653 394.77C210.624 396.741 213.298 397.849 216.086 397.849H265.562C268.349 397.849 271.023 396.741 272.994 394.77C274.966 392.799 276.073 390.125 276.073 387.337C276.073 384.55 274.966 381.876 272.994 379.905C271.023 377.933 268.349 376.826 265.562 376.826Z" fill="black"/>
<path d="M225.437 320.894H287.385C287.737 320.894 288.083 320.99 288.386 321.171C288.688 321.352 288.937 321.61 289.105 321.92C289.273 322.23 289.354 322.58 289.34 322.932C289.326 323.284 289.217 323.626 289.026 323.922L286.158 328.324C285.712 328.999 285.106 329.554 284.394 329.938C283.682 330.322 282.885 330.524 282.076 330.525H226.57L225.437 320.894Z" fill="#263238"/>
<path opacity="0.5" d="M288.986 323.922L286.104 328.324C285.662 329.003 285.057 329.56 284.344 329.945C283.631 330.329 282.833 330.529 282.022 330.525H226.57L225.397 320.894H287.345C287.697 320.894 288.043 320.99 288.346 321.171C288.648 321.352 288.897 321.61 289.065 321.92C289.233 322.23 289.314 322.58 289.3 322.932C289.286 323.284 289.177 323.626 288.986 323.922Z" fill="white"/>
<path opacity="0.2" d="M280.702 323.922L277.834 328.324C277.389 329 276.783 329.556 276.071 329.94C275.358 330.324 274.562 330.525 273.752 330.525H226.57L225.397 320.894H279.074C279.428 320.892 279.774 320.987 280.078 321.168C280.381 321.348 280.63 321.608 280.797 321.919C280.964 322.23 281.044 322.581 281.027 322.934C281.01 323.286 280.898 323.628 280.702 323.922Z" fill="black"/>
<path d="M253.209 424.648H132.02V475.284H253.209V424.648Z" fill="#263238"/>
<path opacity="0.4" d="M253.209 424.648H132.02V475.284H253.209V424.648Z" fill="white"/>
<path opacity="0.2" d="M168.997 424.648H132.02V475.284H168.997V424.648Z" fill="white"/>
<path d="M274.726 409.521H121.749L130.02 428.063H262.894L274.726 409.521Z" fill="#263238"/>
<path opacity="0.5" d="M274.726 409.521L262.894 428.063H130.033L121.749 409.521H274.726Z" fill="white"/>
<path opacity="0.5" d="M191.928 409.521L180.109 428.063H130.033L121.749 409.521H191.928Z" fill="white"/>
<path d="M254.13 473.163H129.499L123.59 482.368H262.4L254.13 473.163Z" fill="#263238"/>
<path opacity="0.5" d="M262.4 482.368H123.577L129.499 473.163H254.13L262.4 482.368Z" fill="white"/>
<path opacity="0.5" d="M185.538 482.368H123.577L129.499 473.163H177.254L185.538 482.368Z" fill="white"/>
<path d="M227.291 373.931H113.905L103.234 232.253C103.093 230.443 103.561 228.638 104.564 227.125C105.567 225.612 107.048 224.477 108.77 223.903C109.598 223.617 110.468 223.473 111.344 223.476H183.377C186.569 223.479 189.671 224.532 192.204 226.473C194.738 228.413 196.563 231.133 197.397 234.214C200.166 244.421 201.438 254.976 201.172 265.548C201.172 265.548 218.233 313.183 225.743 361.992C226.277 365.981 226.77 369.969 227.291 373.931Z" fill="#006600"/>
<path opacity="0.2" d="M227.291 373.931H113.905L103.234 232.253C103.093 230.443 103.561 228.638 104.564 227.125C105.567 225.612 107.048 224.477 108.77 223.903C109.598 223.617 110.468 223.473 111.344 223.476H183.377C186.569 223.479 189.671 224.532 192.204 226.473C194.738 228.413 196.563 231.133 197.397 234.214C200.166 244.421 201.438 254.976 201.172 265.548C201.172 265.548 218.233 313.183 225.743 361.992C226.277 365.981 226.77 369.969 227.291 373.931Z" fill="#68D668"/>
<path d="M123.59 223.903C123.59 223.903 135.796 229.692 136.716 263.467H190.954C190.954 263.467 193.449 231.039 180.283 223.903H123.59Z" fill="#68D668"/>
<path opacity="0.2" d="M225.65 361.992C218.38 359.098 208.189 356.657 194.116 356.19C168.957 355.283 155.191 362.779 148.508 368.315C141.598 317.399 123.03 265.602 123.03 265.602C123.296 255.029 122.024 244.474 119.255 234.267C118.572 231.765 117.234 229.491 115.379 227.678C113.525 225.866 111.22 224.581 108.703 223.956C106.981 224.531 105.501 225.665 104.498 227.178C103.494 228.691 103.026 230.496 103.167 232.306L113.839 373.985H227.224C226.77 369.969 226.277 365.981 225.65 361.992Z" fill="#68D668"/>
<path d="M288.719 385.763V392.433C288.715 396.96 286.915 401.301 283.714 404.503C280.513 407.704 276.172 409.504 271.644 409.507H124.83C123.335 409.507 121.854 409.213 120.473 408.64C119.092 408.067 117.837 407.228 116.78 406.17C115.723 405.112 114.885 403.856 114.314 402.474C113.743 401.092 113.45 399.611 113.452 398.116V368.689H271.644C273.887 368.689 276.107 369.13 278.178 369.989C280.25 370.847 282.132 372.104 283.718 373.69C285.303 375.275 286.561 377.158 287.419 379.229C288.277 381.301 288.719 383.521 288.719 385.763Z" fill="#006600"/>
<path opacity="0.2" d="M288.719 385.763V392.433C288.715 396.96 286.915 401.301 283.714 404.503C280.513 407.704 276.172 409.504 271.644 409.507H124.83C123.335 409.507 121.854 409.213 120.473 408.64C119.092 408.067 117.837 407.228 116.78 406.17C115.723 405.112 114.885 403.856 114.314 402.474C113.743 401.092 113.45 399.611 113.452 398.116V368.689H271.644C273.887 368.689 276.107 369.13 278.178 369.989C280.25 370.847 282.132 372.104 283.718 373.69C285.303 375.275 286.561 377.158 287.419 379.229C288.277 381.301 288.719 383.521 288.719 385.763Z" fill="#68D668"/>
<path opacity="0.2" d="M194.116 385.763V392.433C194.112 396.96 192.312 401.301 189.111 404.503C185.909 407.704 181.568 409.504 177.041 409.507H124.83C123.335 409.507 121.854 409.213 120.473 408.64C119.092 408.067 117.837 407.228 116.78 406.17C115.723 405.112 114.885 403.856 114.314 402.474C113.743 401.092 113.45 399.611 113.452 398.116V368.689H177.041C179.283 368.689 181.504 369.13 183.575 369.989C185.647 370.847 187.529 372.104 189.115 373.69C190.7 375.275 191.958 377.158 192.816 379.229C193.674 381.301 194.116 383.521 194.116 385.763Z" fill="black"/>
<path d="M253.449 216.686L251.168 205.241L264.548 210.763C264.548 210.763 264.748 221.261 259.332 220.914L253.449 216.686Z" fill="#B97964"/>
<path d="M255.557 195.449L265.321 200.799L264.548 210.803L251.102 205.241L255.557 195.449Z" fill="#B97964"/>
<path d="M253.383 216.686L248.607 229.318L256.344 231.759L259.332 220.954L253.383 216.686Z" fill="#B97964"/>
<path d="M207.322 243.685C213.298 246.046 230.185 256.197 233.347 255.997C236.508 255.797 251.288 220.328 251.288 220.328L259.732 224.143C259.732 224.143 245.219 270.631 241.791 271.404C238.362 272.178 207.322 263.467 207.322 263.467V243.685Z" fill="#263238"/>
<path d="M327.443 472.083L335.7 465.24L323.628 443.003L315.398 449.846L327.443 472.083Z" fill="#B97964"/>
<path d="M335.7 463.732L325.109 469.415C324.929 469.504 324.791 469.66 324.724 469.849C324.657 470.038 324.665 470.246 324.749 470.429L328.751 479.099C328.986 479.54 329.385 479.87 329.862 480.017C330.34 480.165 330.856 480.118 331.298 479.886C334.967 477.832 336.634 476.672 341.25 474.137C344.104 472.59 349.907 469.802 353.482 467.081C357.057 464.359 354.256 460.891 352.508 461.745C348.333 463.719 341.41 464.052 337.621 463.399C336.962 463.294 336.286 463.411 335.7 463.732Z" fill="#263238"/>
<path d="M339.916 463.532C339.067 463.968 338.172 464.308 337.248 464.546C337.202 464.562 337.152 464.564 337.105 464.552C337.057 464.54 337.014 464.515 336.981 464.479C336.958 464.436 336.945 464.388 336.945 464.339C336.945 464.29 336.958 464.242 336.981 464.199C337.168 463.826 338.862 460.571 340.262 460.397C340.42 460.379 340.581 460.401 340.728 460.462C340.875 460.522 341.004 460.62 341.103 460.744C341.284 460.91 341.415 461.122 341.484 461.357C341.552 461.592 341.554 461.842 341.49 462.078C341.173 462.748 340.608 463.269 339.916 463.532ZM340.289 460.931C339.542 461.024 338.395 462.652 337.621 463.946C339.489 463.359 340.703 462.612 340.916 461.972C340.95 461.816 340.944 461.655 340.897 461.503C340.85 461.351 340.765 461.214 340.649 461.104C340.604 461.039 340.541 460.988 340.468 460.957C340.395 460.926 340.314 460.917 340.236 460.931H340.289Z" fill="#407BFF"/>
<path d="M337.261 464.533C337.249 464.539 337.235 464.542 337.221 464.542C337.207 464.542 337.194 464.539 337.181 464.533C337.14 464.532 337.099 464.522 337.062 464.503C337.026 464.485 336.993 464.458 336.968 464.426C336.968 464.346 335.234 461.758 335.634 460.291C335.697 460.106 335.801 459.937 335.937 459.796C336.073 459.656 336.238 459.547 336.421 459.477C336.61 459.378 336.828 459.347 337.037 459.391C337.247 459.435 337.434 459.55 337.568 459.717C338.328 460.624 337.995 463.359 337.354 464.413C337.348 464.438 337.337 464.462 337.321 464.483C337.304 464.503 337.284 464.52 337.261 464.533ZM336.541 460.077C336.453 460.125 336.376 460.189 336.314 460.267C336.252 460.345 336.207 460.435 336.181 460.531C335.9 461.385 336.674 462.972 337.181 463.852C337.631 462.648 337.631 461.322 337.181 460.117C337.088 459.997 336.928 459.891 336.594 460.024L336.541 460.077Z" fill="#407BFF"/>
<path d="M314.958 463.959L307.888 472.029L301.311 463.492L292.467 452.007L299.51 443.937L308.355 455.409L314.958 463.959Z" fill="#B97964"/>
<path opacity="0.2" d="M308.355 455.409L301.311 463.492L292.467 452.007L299.51 443.937L308.355 455.409Z" fill="black"/>
<path d="M314.731 462.465L305.18 469.775C305.015 469.893 304.903 470.071 304.868 470.271C304.833 470.47 304.878 470.675 304.993 470.842L310.329 478.753C310.633 479.155 311.085 479.421 311.585 479.491C312.086 479.561 312.593 479.43 312.997 479.126C316.291 476.525 317.732 475.124 321.907 471.869C324.482 469.882 329.764 466.213 332.859 462.945C335.954 459.677 332.632 456.716 331.045 457.823C327.243 460.491 320.453 461.825 316.612 461.825C315.931 461.822 315.268 462.047 314.731 462.465Z" fill="#263238"/>
<path d="M318.813 461.611C318.028 462.172 317.187 462.65 316.305 463.039C316.267 463.069 316.22 463.086 316.171 463.086C316.123 463.086 316.076 463.069 316.038 463.039C316 463.007 315.972 462.965 315.958 462.917C315.944 462.87 315.944 462.819 315.958 462.772C316.078 462.372 317.292 458.89 318.626 458.49C318.78 458.444 318.944 458.44 319.101 458.477C319.258 458.515 319.402 458.593 319.52 458.703C319.739 458.843 319.912 459.044 320.019 459.281C320.126 459.518 320.161 459.781 320.12 460.037C319.891 460.704 319.426 461.264 318.813 461.611ZM318.813 458.943C318.092 459.144 317.212 460.944 316.705 462.332C318.466 461.465 319.546 460.558 319.64 459.864C319.654 459.706 319.626 459.547 319.558 459.404C319.49 459.261 319.385 459.138 319.253 459.05C319.197 458.993 319.126 458.953 319.048 458.934C318.97 458.915 318.889 458.918 318.813 458.943Z" fill="#407BFF"/>
<path d="M316.398 463.012C316.392 463.031 316.382 463.048 316.368 463.062C316.354 463.076 316.337 463.086 316.318 463.092C316.277 463.099 316.234 463.095 316.195 463.081C316.155 463.067 316.12 463.043 316.091 463.012C316.091 462.945 313.944 460.611 314.157 459.13C314.191 458.94 314.265 458.758 314.376 458.599C314.486 458.441 314.63 458.308 314.797 458.21C314.969 458.081 315.177 458.011 315.391 458.011C315.605 458.011 315.814 458.081 315.985 458.21C316.878 458.997 316.972 461.745 316.505 462.892C316.505 462.922 316.494 462.95 316.475 462.972C316.455 462.995 316.428 463.009 316.398 463.012ZM314.984 458.73C314.903 458.789 314.834 458.865 314.784 458.952C314.733 459.04 314.701 459.137 314.691 459.237C314.557 460.131 315.571 461.571 316.198 462.358C316.475 461.104 316.29 459.792 315.678 458.663C315.594 458.593 315.488 458.554 315.378 458.554C315.268 458.554 315.162 458.593 315.078 458.663L314.984 458.73Z" fill="#407BFF"/>
<path d="M211.363 340.729L208.215 305.86L149.989 307.194C149.989 307.194 143.106 355.776 148.108 364.7C157.059 380.641 215.752 371.583 229.478 372.944C235.081 375.932 291.32 459.384 291.32 459.384L307.327 449.646C307.327 449.646 268.27 369.222 262.4 361.312C248.887 343.104 230.652 347.306 211.363 340.729Z" fill="#263238"/>
<path d="M330.978 449.686L318.653 458.463C318.653 458.463 291 406.199 278.941 384.563C275.833 378.987 273.765 375.439 273.472 375.359C272.671 375.132 271.378 374.892 269.884 374.638C266.629 374.091 262.32 373.491 259.626 372.784C232.133 365.634 164.435 352.481 164.435 352.481L189.393 328.47C189.393 328.47 292.467 338.115 305.1 368.609C310.009 380.428 330.978 449.686 330.978 449.686Z" fill="#263238"/>
<path opacity="0.2" d="M278.941 384.563C275.833 378.987 273.765 375.439 273.472 375.359C272.671 375.132 271.378 374.892 269.884 374.638C269.577 374.078 260.386 357.097 257.358 354.496C249.968 348.159 222.782 343.824 213.711 342.343C206.134 341.13 180.683 338.875 180.683 338.875C180.683 338.875 225.597 334.993 259.465 344.291C276.193 348.893 282.689 374.345 278.941 384.563Z" fill="black"/>
<path d="M209.549 312.983L209.269 317.492H148.695L149.242 312.983H209.549Z" fill="black"/>
<path d="M188.566 317.932H194.276C194.909 317.932 195.423 317.419 195.423 316.785V313.357C195.423 312.723 194.909 312.21 194.276 312.21H188.566C187.933 312.21 187.419 312.723 187.419 313.357V316.785C187.419 317.419 187.933 317.932 188.566 317.932Z" fill="white"/>
<path d="M146.28 244.112C146.28 244.112 162.848 237.896 176.814 237.989C190.781 238.082 205.574 244.112 205.574 244.112C208.263 266.29 209.297 288.637 208.669 310.969H149.495C149.495 310.969 153.497 265.215 146.28 244.112Z" fill="#FEE380"/>
<path opacity="0.4" d="M146.28 244.112C146.28 244.112 162.848 237.896 176.814 237.989C190.781 238.082 205.574 244.112 205.574 244.112C208.263 266.29 209.297 288.637 208.669 310.969H149.495C149.495 310.969 153.497 265.215 146.28 244.112Z" fill="#FDC800"/>
<path d="M155.778 241.097C164.204 249.974 169.714 261.215 171.572 273.312C174.947 293.975 160.9 339.716 160.9 339.716H143.559L149.508 310.902L142.025 245.072L155.778 241.097Z" fill="#263238"/>
<path d="M189.42 239.336C189.42 239.336 205.547 279.861 210.123 326.549C210.123 326.549 216.793 311.596 207.362 243.685L189.42 239.336Z" fill="#263238"/>
<path opacity="0.2" d="M155.778 241.097C164.204 249.974 169.714 261.215 171.572 273.312C174.947 293.975 160.9 339.716 160.9 339.716H143.559L149.508 310.902L142.025 245.072L155.778 241.097Z" fill="white"/>
<path opacity="0.2" d="M189.42 239.336C189.42 239.336 205.547 279.861 210.123 326.549C210.123 326.549 216.793 311.596 207.362 243.685L189.42 239.336Z" fill="white"/>
<path d="M204.32 247.713C204.32 247.713 198.878 235.708 172.306 234.854H171.625V234.948C157.766 236.989 152.67 241.537 149.428 249.501L163.141 254.837L158.086 263.547L172.079 282.943C172.079 282.943 172.399 257.598 161.1 243.685C161.1 243.685 164.289 238.909 172.799 237.922C180.483 237.682 190.14 242.831 190.14 242.831C195.189 255.222 199.235 267.997 202.239 281.035L204.4 258.892L198.958 255.117L204.32 247.713Z" fill="#263238"/>
<path d="M162.408 242.631C166.718 246.036 171.94 248.087 177.415 248.527C179.406 248.52 181.371 248.067 183.164 247.201C184.958 246.336 186.535 245.079 187.779 243.525C187.779 243.525 180.483 237.762 179.509 234.828C178.973 233.007 178.8 231.099 179.002 229.212C179.087 228.16 179.225 227.114 179.415 226.077L162.901 213.845C165.102 221.915 167.757 236.775 162.408 242.631Z" fill="#B97964"/>
<path opacity="0.2" d="M166.743 221.621C167.397 231.533 175.547 234.267 179.536 234.827C178.999 233.007 178.827 231.099 179.029 229.212L166.743 221.621Z" fill="black"/>
<path d="M187.499 183.151C197.704 181.977 195.503 203.066 188.3 210.15C181.096 217.233 176.814 188.806 176.814 188.806C176.814 188.806 184.498 183.497 187.499 183.151Z" fill="#263238"/>
<path d="M166.596 225.797C168.671 228.056 171.43 229.572 174.449 230.112C177.469 230.652 180.582 230.186 183.311 228.785C186.87 227.035 189.631 223.997 191.034 220.288C191.235 219.774 191.404 219.248 191.541 218.713C194.129 208.789 192.955 192.288 182.203 187.659C179.827 186.625 177.226 186.215 174.648 186.47C172.069 186.724 169.598 187.633 167.47 189.112C165.341 190.59 163.627 192.589 162.489 194.917C161.35 197.245 160.827 199.825 160.967 202.413C161.407 213.498 161.1 220.101 166.596 225.797Z" fill="#B97964"/>
<path d="M177.708 205.854C177.628 206.748 178.148 207.495 178.748 207.508C179.349 207.522 179.829 206.788 179.856 205.894C179.882 205.001 179.402 204.24 178.815 204.24C178.228 204.24 177.735 204.934 177.708 205.854Z" fill="#263238"/>
<path d="M187.913 206.054C187.833 206.948 188.366 207.695 188.953 207.708C189.54 207.722 190.034 206.988 190.06 206.094C190.087 205.201 189.607 204.454 189.02 204.44C188.433 204.427 187.939 205.201 187.913 206.054Z" fill="#263238"/>
<path d="M184.671 206.441C185.689 209.22 187.085 211.846 188.82 214.245C188.192 214.677 187.477 214.965 186.726 215.09C185.974 215.214 185.204 215.172 184.471 214.965L184.671 206.441Z" fill="#A24E3F"/>
<path d="M174.613 202.479C174.709 202.496 174.807 202.487 174.898 202.455C174.989 202.422 175.07 202.366 175.134 202.293C175.53 201.758 176.048 201.325 176.643 201.029C177.239 200.732 177.896 200.58 178.562 200.585C178.701 200.596 178.84 200.552 178.947 200.462C179.054 200.373 179.122 200.244 179.135 200.105C179.143 200.036 179.136 199.965 179.116 199.899C179.095 199.832 179.062 199.77 179.017 199.716C178.972 199.663 178.917 199.619 178.855 199.587C178.793 199.555 178.725 199.536 178.655 199.531C177.815 199.505 176.982 199.682 176.225 200.047C175.468 200.411 174.81 200.953 174.306 201.626C174.217 201.734 174.174 201.873 174.186 202.013C174.199 202.153 174.266 202.282 174.373 202.373C174.445 202.424 174.527 202.461 174.613 202.479Z" fill="#263238"/>
<path d="M192.368 202.626C192.472 202.659 192.584 202.659 192.688 202.626C192.752 202.599 192.809 202.559 192.857 202.509C192.905 202.459 192.943 202.4 192.967 202.335C192.992 202.271 193.004 202.202 193.002 202.133C193 202.063 192.984 201.995 192.955 201.932C192.614 201.163 192.095 200.484 191.441 199.953C190.787 199.422 190.017 199.054 189.193 198.878C189.054 198.859 188.912 198.896 188.8 198.981C188.687 199.066 188.613 199.192 188.593 199.331C188.578 199.469 188.616 199.607 188.701 199.716C188.786 199.826 188.91 199.898 189.047 199.918C189.693 200.074 190.295 200.378 190.805 200.806C191.314 201.235 191.717 201.775 191.981 202.386C192.024 202.452 192.081 202.508 192.148 202.549C192.215 202.591 192.29 202.617 192.368 202.626Z" fill="#263238"/>
<path d="M169.411 188.74L170.145 193.609C169.33 194.028 168.703 194.737 168.386 195.597C168.07 196.457 168.088 197.404 168.437 198.251C170.131 202.253 167.97 208.762 164.889 211.39C164.889 211.39 164.742 209.603 163.248 210.056C161.754 210.51 162.434 219.781 165.476 224.129C165.476 224.129 160.94 220.247 158.166 210.576C155.605 201.639 155.111 194.142 156.832 190.567L169.411 188.74Z" fill="#263238"/>
<path d="M155.911 211.403C157.095 213.937 159.234 215.899 161.861 216.859C165.342 218.113 167.343 215.058 166.61 211.63C165.916 208.576 163.301 204.16 159.686 204.427C156.071 204.694 154.511 208.282 155.911 211.403Z" fill="#B97964"/>
<path d="M188.913 188.246C188.913 188.246 184.511 197.691 182.644 196.25C180.776 194.809 184.284 192.541 184.284 192.541C184.284 192.541 173.613 198.971 172.145 198.037C170.678 197.104 177.695 193.622 177.695 193.622C177.695 193.622 168.357 200.478 166.196 197.971C164.035 195.463 180.082 186.179 188.913 188.246Z" fill="#263238"/>
<path d="M185.285 217.686C184.833 218.971 184.472 220.286 184.204 221.621H183.484C180.229 221.461 178.762 220.288 178.148 219.1C177.847 218.497 177.7 217.827 177.721 217.153C177.711 216.769 177.761 216.387 177.868 216.019C179.833 217.014 181.99 217.569 184.191 217.646L185.285 217.686Z" fill="#263238"/>
<path d="M184.178 217.62L183.831 218.767C180.763 218.62 178.615 218.1 177.708 217.126C177.698 216.743 177.748 216.36 177.855 215.992C179.819 216.987 181.977 217.542 184.178 217.62Z" fill="white"/>
<path d="M183.484 221.595C180.229 221.435 178.762 220.261 178.148 219.074C179.382 219.156 180.592 219.454 181.723 219.954C182.469 220.301 183.085 220.876 183.484 221.595Z" fill="#DE5753"/>
<path d="M186.645 191.528C186.645 191.528 193.062 178.602 180.176 178.602C167.29 178.602 150.255 184.698 156.058 200.772C156.071 200.772 167.65 192.088 186.645 191.528Z" fill="#263238"/>
<path d="M192.582 212.417C192.461 214.792 188.913 216.192 188.913 216.192C188.273 214.952 184.178 216.192 184.178 216.192C182.456 215.287 180.673 214.502 178.842 213.845C177.608 213.747 176.368 213.747 175.134 213.845C172.386 212.711 166.063 206.441 166.063 206.441L164.849 207.508L166.183 216.192C163.715 223.502 168.317 229.452 179.055 230.932C189.794 232.413 191.674 225.357 192.768 221.595C193.862 217.833 192.582 212.417 192.582 212.417ZM185.285 226.557C183.484 227.771 184.178 223.889 184.178 223.889H180.803C180.803 223.889 179.856 226.05 177.708 223.889C175.56 221.728 176.814 215.179 176.814 215.179C178.975 214.672 184.178 217.633 184.178 217.633C184.178 217.633 186.632 215.699 187.926 217.393C189.22 219.087 187.099 225.357 185.285 226.557Z" fill="#263238"/>
<path d="M167.397 376.826H131.647L123.043 313.383C122.621 311.652 121.634 310.111 120.237 309.004C118.841 307.898 117.115 307.289 115.333 307.274H107.049C106.009 307.274 104.979 307.479 104.019 307.877C103.058 308.276 102.186 308.86 101.451 309.596C100.716 310.332 100.134 311.205 99.737 312.166C99.3403 313.128 99.137 314.158 99.1387 315.198V387.337C99.1387 390.125 100.246 392.799 102.217 394.77C104.189 396.741 106.862 397.849 109.65 397.849H167.397C170.184 397.849 172.858 396.741 174.829 394.77C176.801 392.799 177.908 390.125 177.908 387.337C177.908 384.55 176.801 381.876 174.829 379.905C172.858 377.933 170.184 376.826 167.397 376.826Z" fill="#263238"/>
<path opacity="0.5" d="M167.397 376.826H131.647L123.043 313.383C122.621 311.652 121.634 310.111 120.237 309.004C118.841 307.898 117.115 307.289 115.333 307.274H107.049C106.009 307.274 104.979 307.479 104.019 307.877C103.058 308.276 102.186 308.86 101.451 309.596C100.716 310.332 100.134 311.205 99.737 312.166C99.3403 313.128 99.137 314.158 99.1387 315.198V387.337C99.1387 390.125 100.246 392.799 102.217 394.77C104.189 396.741 106.862 397.849 109.65 397.849H167.397C170.184 397.849 172.858 396.741 174.829 394.77C176.801 392.799 177.908 390.125 177.908 387.337C177.908 384.55 176.801 381.876 174.829 379.905C172.858 377.933 170.184 376.826 167.397 376.826Z" fill="white"/>
<path opacity="0.2" d="M159.113 376.826H123.363L114.719 313.383C114.31 311.645 113.326 310.096 111.927 308.987C110.528 307.878 108.795 307.275 107.009 307.274C105.969 307.274 104.939 307.479 103.979 307.877C103.018 308.276 102.146 308.86 101.411 309.596C100.676 310.332 100.094 311.205 99.697 312.166C99.3003 313.128 99.097 314.158 99.0987 315.198V387.337C99.0987 390.125 100.206 392.799 102.177 394.77C104.149 396.741 106.822 397.849 109.61 397.849H159.073C161.861 397.849 164.534 396.741 166.506 394.77C168.477 392.799 169.584 390.125 169.584 387.337C169.584 384.55 168.477 381.876 166.506 379.905C164.534 377.933 161.861 376.826 159.073 376.826H159.113Z" fill="white"/>
<path d="M118.961 320.894H180.909C181.262 320.894 181.608 320.99 181.91 321.171C182.213 321.352 182.461 321.61 182.629 321.92C182.797 322.23 182.878 322.58 182.865 322.932C182.851 323.284 182.742 323.626 182.55 323.922L179.682 328.324C179.237 328.999 178.631 329.554 177.918 329.938C177.206 330.322 176.41 330.524 175.6 330.525H120.135L118.961 320.894Z" fill="#263238"/>
<path opacity="0.5" d="M182.55 323.922L179.669 328.324C179.226 329.002 178.621 329.559 177.908 329.943C177.195 330.327 176.397 330.527 175.587 330.525H120.135L118.961 320.894H180.909C181.262 320.894 181.608 320.99 181.91 321.171C182.213 321.352 182.461 321.61 182.629 321.92C182.797 322.23 182.878 322.58 182.865 322.932C182.851 323.284 182.742 323.626 182.55 323.922Z" fill="white"/>
<path opacity="0.2" d="M174.266 323.922L171.398 328.324C170.954 329 170.348 329.556 169.636 329.94C168.923 330.324 168.126 330.525 167.317 330.525H120.135L118.961 320.894H172.639C172.992 320.892 173.339 320.987 173.642 321.168C173.946 321.348 174.194 321.608 174.362 321.919C174.529 322.23 174.608 322.581 174.591 322.934C174.575 323.286 174.462 323.628 174.266 323.922Z" fill="white"/>
<path d="M173.413 312.983L184.084 317.572L171.919 325.482C171.919 325.482 163.155 319.706 166.503 315.438L173.413 312.983Z" fill="#B97964"/>
<path d="M189.66 326.79L179.722 331.805L171.919 325.509L184.111 317.572L189.66 326.79Z" fill="#B97964"/>
<path d="M156.272 307.274L173.386 312.983L166.836 318.519L153.897 315.238L156.272 307.274Z" fill="#B97964"/>
<path d="M142.012 245.072C135.475 249.141 122.109 298.697 125.658 304.673C129.059 310.369 161.354 319.24 161.354 319.24L163.795 309.809C163.795 309.809 141.211 300.844 138.917 297.363C136.623 293.881 148.695 268.243 148.695 268.243C148.695 268.243 150.229 260.239 148.695 255.103C147.161 249.968 142.012 245.072 142.012 245.072Z" fill="#263238"/>
</svg>
