<svg width="145" height="26" viewBox="0 0 145 26" fill="none" xmlns="http://www.w3.org/2000/svg">
<path d="M141.424 19.9623V15.1918H144.139V19.9623C144.139 23.6686 142.928 25.4667 139.222 25.4667C135.442 25.4667 133.718 23.6686 133.718 19.9623V2.75195H136.837V7.6325H144.139V10.4581H136.837V19.9623C136.837 21.7604 137.607 22.6044 139.259 22.6044C140.837 22.6044 141.424 21.7604 141.424 19.9623Z" fill="#006600"/>
<path d="M128.598 19.9621V18.7144H131.607V19.9621C131.607 23.6317 129.992 25.4665 126.213 25.4665C122.507 25.4665 120.745 23.7051 120.745 19.9621V12.9165C120.745 9.21021 122.507 7.41211 126.249 7.41211C129.992 7.41211 131.607 9.21021 131.607 12.9165V14.0907H128.635V12.9165C128.635 11.1184 127.864 10.2744 126.249 10.2744C124.635 10.2744 123.828 11.1184 123.828 12.9165V19.9621C123.828 21.7602 124.635 22.6042 126.213 22.6042C127.864 22.6042 128.598 21.7602 128.598 19.9621Z" fill="#006600"/>
<path d="M118.603 19.1548V19.9621C118.603 23.6317 116.805 25.4665 113.025 25.4665C109.319 25.4665 107.557 23.7051 107.557 19.9621V12.9165C107.557 9.21021 109.319 7.41211 113.062 7.41211C116.805 7.41211 118.603 9.21021 118.603 12.9165V17.2833H110.64V20.0355C110.64 21.7969 111.447 22.6776 113.025 22.6776C114.676 22.6776 115.484 21.7969 115.484 20.0355V19.1548H118.603ZM115.484 14.9348V12.8431C115.484 11.0817 114.713 10.201 113.062 10.201C111.447 10.201 110.64 11.0817 110.64 12.8431V14.9348H115.484Z" fill="#006600"/>
<path d="M105.421 25.2463H102.228V12.6963C102.228 10.9716 101.421 10.201 99.9528 10.201C98.485 10.201 97.8612 10.9349 97.3107 12.7697V25.2463H94.1549V7.63228H97.0906L97.2007 10.1643H97.3474C98.1181 8.25611 99.329 7.41211 101.201 7.41211C103.696 7.41211 105.421 9.06342 105.421 12.1092V25.2463Z" fill="#006600"/>
<path d="M92.0179 25.2463H88.8254V12.6963C88.8254 10.9716 88.0181 10.201 86.5503 10.201C85.0824 10.201 84.4586 10.9349 83.9082 12.7697V25.2463H80.7523V7.63228H83.688L83.7981 10.1643H83.9449C84.7155 8.25611 85.9264 7.41211 87.7979 7.41211C90.2932 7.41211 92.0179 9.06342 92.0179 12.1092V25.2463Z" fill="#006600"/>
<path d="M78.6095 12.9165V19.9621C78.6095 23.7417 76.8481 25.4665 73.1051 25.4665C69.3621 25.4665 67.6007 23.7417 67.6007 19.9621V12.9165C67.6007 9.13681 69.3621 7.41211 73.1051 7.41211C76.8481 7.41211 78.6095 9.13681 78.6095 12.9165ZM75.527 19.9621V12.9165C75.527 11.1184 74.7197 10.2744 73.1051 10.2744C71.4905 10.2744 70.6832 11.1184 70.6832 12.9165V19.9621C70.6832 21.7602 71.4905 22.6042 73.1051 22.6042C74.7197 22.6042 75.527 21.7602 75.527 19.9621Z" fill="#006600"/>
<path d="M62.4163 19.5595V15.3028H65.5354V19.376C65.5354 23.4492 63.5905 25.4675 59.921 25.4675C56.1413 25.4675 54.1964 23.2658 54.1964 19.3026V6.75264C54.1964 2.6794 56.1413 0.661133 59.8109 0.661133C63.5171 0.661133 65.5354 2.6794 65.5354 6.71594V9.61491H62.4163V6.71594C62.4163 4.80776 61.5723 3.74358 59.921 3.74358C58.3063 3.74358 57.4623 4.77106 57.4623 6.67925V19.5595C57.4623 21.431 58.1963 22.4217 59.921 22.4217C61.5723 22.4217 62.4163 21.5044 62.4163 19.5595Z" fill="#006600"/>
<path d="M52.1299 25.2463H48.9374V12.6963C48.9374 10.9716 48.1668 10.201 46.7723 10.201C45.3412 10.201 44.7541 10.9349 44.2403 12.7697V25.2463H41.1946V12.6963C41.1946 10.9716 40.424 10.201 39.0295 10.201C37.5984 10.201 37.0113 10.9349 36.4975 12.7697V25.2463H33.3417V7.63228H36.2773L36.3874 10.1643H36.5342C37.2681 8.25611 38.4424 7.41211 40.2038 7.41211C42.0753 7.41211 43.5064 8.43959 43.9835 10.3845C44.9743 8.07263 46.3687 7.41211 48.02 7.41211C50.4419 7.41211 52.1299 9.06342 52.1299 12.1092V25.2463Z" fill="#FDC800"/>
<path d="M20.0107 7.63281H23.2033V19.9626C23.2033 21.9442 23.9005 22.6781 25.4784 22.6781C27.0563 22.6781 27.6068 21.9442 28.0471 19.8158V7.63281H31.203V25.2468H28.2306L28.1572 22.7148H28.0104C27.2031 24.6964 26.0656 25.467 24.1207 25.467C21.1116 25.467 20.0107 23.5221 20.0107 19.9259V7.63281Z" fill="#FDC800"/>
<path d="M17.8986 25.2465H14.7428V0.586914H17.8986V25.2465Z" fill="#FDC800"/>
<path d="M13.199 25.2469H9.96979L9.0157 19.5223H4.53881L3.65811 25.2469H0.465576L4.6122 0.880859H9.0524L13.199 25.2469ZM6.70386 6.01827L4.97916 16.6968H8.57535L6.85065 6.01827H6.70386Z" fill="#FDC800"/>
</svg>
