<svg width="491" height="423" viewBox="0 0 491 423" fill="none" xmlns="http://www.w3.org/2000/svg">
<path d="M490.707 324.087H302.458V215.15H490.707V324.087ZM303.607 322.938H489.559V216.299H303.607V322.938Z" fill="#E0E0E0"/>
<path d="M451.872 273.237H327.671V276.878H451.872V273.237Z" fill="#F0F0F0"/>
<path d="M460.43 286.814H327.671V290.788H460.43V286.814Z" fill="#F0F0F0"/>
<path d="M460.43 300.551H327.671V304.526H460.43V300.551Z" fill="#F0F0F0"/>
<path d="M371.077 253.515H327.671V262.968H371.077V253.515Z" fill="#F0F0F0"/>
<path d="M490.133 215.725H303.067V233.069H490.133V215.725Z" fill="#E0E0E0"/>
<path d="M475.741 230.473C475.5 230.244 477.912 227.337 481.116 223.983C484.321 220.629 487.135 218.091 487.365 218.309C487.595 218.527 485.194 221.445 481.989 224.81C478.785 228.176 475.97 230.703 475.741 230.473Z" fill="white"/>
<path d="M487.388 230.473C487.158 230.703 484.356 228.176 481.139 224.81C477.923 221.445 475.523 218.539 475.764 218.309C476.005 218.079 478.796 220.606 482.012 223.983C485.229 227.36 487.606 230.243 487.388 230.473Z" fill="white"/>
<path d="M259.063 0H71.9963V107.799H259.063V0Z" fill="#E6E6E6"/>
<path d="M220.813 57.5236H96.6116V61.1647H220.813V57.5236Z" fill="#F0F0F0"/>
<path d="M229.371 71.1004H96.6116V75.0747H229.371V71.1004Z" fill="#F0F0F0"/>
<path d="M229.371 84.838H96.6116V88.8123H229.371V84.838Z" fill="#F0F0F0"/>
<path d="M140.018 37.8015H96.6116V47.2548H140.018V37.8015Z" fill="#F0F0F0"/>
<path d="M259.063 0H71.9963V17.3444H259.063V0Z" fill="#E0E0E0"/>
<path d="M244.039 14.6681C243.797 14.4498 246.21 11.5323 249.414 8.1783C252.619 4.82429 255.433 2.28581 255.663 2.51554C255.893 2.74527 253.492 5.6513 250.287 9.00531C247.082 12.3593 244.268 14.8748 244.039 14.6681Z" fill="white"/>
<path d="M255.663 14.668C255.433 14.8977 252.63 12.3707 249.414 9.00525C246.198 5.63976 243.797 2.7452 244.039 2.51548C244.28 2.28575 247.071 4.81274 250.287 8.17823C253.503 11.5437 255.904 14.4498 255.663 14.668Z" fill="white"/>
<path d="M188.215 200.253H0V91.3048H188.215V200.253ZM1.14863 199.104H187.066V92.4534H1.14863V199.104Z" fill="#E0E0E0"/>
<path d="M149.391 149.403H25.1895V153.044H149.391V149.403Z" fill="#F0F0F0"/>
<path d="M157.948 162.979H25.1895V166.954H157.948V162.979Z" fill="#F0F0F0"/>
<path d="M157.948 176.717H25.1895V180.691H157.948V176.717Z" fill="#F0F0F0"/>
<path d="M68.5963 129.681H25.1895V139.134H68.5963V129.681Z" fill="#F0F0F0"/>
<path d="M187.641 91.8792H0.574219V109.224H187.641V91.8792Z" fill="#E0E0E0"/>
<path d="M405.433 225.212H184.551V422.961H405.433V225.212Z" fill="#E6E6E6"/>
<path d="M195.658 162.922H22.6282V342.695H195.658V162.922Z" fill="#F0F0F0"/>
<path d="M195.658 162.922H22.6282V182.506H195.658V162.922Z" fill="#E0E0E0"/>
<path d="M36.9172 172.513C36.8857 173.223 36.6463 173.909 36.2288 174.484C35.8113 175.059 35.2341 175.499 34.5687 175.75C33.9033 176 33.1791 176.049 32.4859 175.892C31.7927 175.734 31.1611 175.376 30.6695 174.863C30.1778 174.349 29.8478 173.703 29.7202 173.003C29.5927 172.304 29.6734 171.583 29.9522 170.929C30.231 170.275 30.6957 169.717 31.2887 169.325C31.8816 168.933 32.5766 168.723 33.2875 168.723C34.2706 168.747 35.2041 169.159 35.8842 169.869C36.5643 170.579 36.9357 171.53 36.9172 172.513Z" fill="white"/>
<path d="M51.654 172.513C51.6247 173.227 51.3863 173.916 50.9683 174.495C50.5503 175.074 49.9713 175.517 49.3032 175.77C48.6352 176.022 47.9077 176.073 47.2112 175.915C46.5147 175.757 45.88 175.398 45.3861 174.882C44.8921 174.366 44.5608 173.717 44.4333 173.014C44.3058 172.311 44.3877 171.587 44.6689 170.93C44.9501 170.274 45.4181 169.714 46.0147 169.322C46.6113 168.929 47.3102 168.721 48.0243 168.723C49.0074 168.747 49.941 169.159 50.6211 169.869C51.3012 170.579 51.6725 171.53 51.654 172.513Z" fill="white"/>
<path d="M66.3911 172.513C66.3618 173.227 66.1233 173.916 65.7053 174.495C65.2874 175.074 64.7083 175.517 64.0403 175.77C63.3722 176.022 62.6447 176.073 61.9482 175.915C61.2517 175.757 60.617 175.398 60.1231 174.882C59.6292 174.366 59.2979 173.717 59.1703 173.014C59.0428 172.311 59.1248 171.587 59.4059 170.93C59.6871 170.274 60.1551 169.714 60.7518 169.322C61.3484 168.929 62.0473 168.721 62.7614 168.723C63.7445 168.747 64.678 169.159 65.3581 169.869C66.0382 170.579 66.4096 171.53 66.3911 172.513Z" fill="white"/>
<path d="M466 39.3177H245.118V259.465H466V39.3177Z" fill="#F0F0F0"/>
<path d="M466 39.3177H245.118V65.1045H466V39.3177Z" fill="#E0E0E0"/>
<path d="M263.933 51.9527C263.892 52.8901 263.577 53.7951 263.027 54.5551C262.477 55.3151 261.715 55.8967 260.837 56.2277C259.959 56.5588 259.003 56.6246 258.088 56.4171C257.173 56.2096 256.339 55.7379 255.69 55.0605C255.04 54.3831 254.604 53.53 254.436 52.6069C254.267 51.6839 254.373 50.7316 254.741 49.8684C255.109 49.0051 255.722 48.2689 256.505 47.7512C257.287 47.2335 258.205 46.957 259.143 46.9561C260.44 46.9863 261.672 47.5289 262.57 48.4654C263.467 49.4018 263.957 50.6557 263.933 51.9527Z" fill="white"/>
<path d="M281.932 48.5757C282.569 49.2672 282.988 50.1308 283.137 51.0589C283.287 51.987 283.16 52.9386 282.772 53.795C282.385 54.6515 281.754 55.3749 280.958 55.8753C280.162 56.3756 279.237 56.6307 278.297 56.6088C277.357 56.5868 276.444 56.2889 275.673 55.752C274.901 55.215 274.305 54.4629 273.957 53.5893C273.61 52.7158 273.528 51.7593 273.72 50.8392C273.913 49.9191 274.372 49.076 275.04 48.4149C275.976 47.5241 277.227 47.0408 278.519 47.0709C279.811 47.1011 281.038 47.6422 281.932 48.5757Z" fill="white"/>
<path d="M302.734 51.9527C302.693 52.8901 302.378 53.7951 301.828 54.5551C301.278 55.3151 300.516 55.8967 299.638 56.2277C298.76 56.5588 297.804 56.6246 296.889 56.4171C295.974 56.2096 295.14 55.7379 294.491 55.0605C293.841 54.3831 293.405 53.53 293.237 52.6069C293.068 51.6839 293.174 50.7316 293.542 49.8684C293.91 49.0051 294.523 48.2689 295.306 47.7512C296.088 47.2335 297.006 46.957 297.944 46.9561C299.241 46.9863 300.473 47.5289 301.371 48.4654C302.268 49.4018 302.758 50.6557 302.734 51.9527Z" fill="white"/>
</svg>
