<svg width="65" height="6" viewBox="0 0 65 6" fill="none" xmlns="http://www.w3.org/2000/svg">
<g opacity="0.2">
<path d="M5.49091 3.05227C5.45702 3.5143 5.28824 3.95621 5.00551 4.32321C4.72277 4.6902 4.33853 4.96612 3.90043 5.11675C3.46233 5.26738 2.98964 5.28608 2.541 5.17055C2.09236 5.05502 1.68751 4.81035 1.37665 4.46686C1.06579 4.12336 0.862616 3.69614 0.792306 3.23823C0.721995 2.78032 0.787641 2.31185 0.981121 1.89091C1.1746 1.46998 1.48741 1.11511 1.88072 0.870296C2.27403 0.625488 2.73053 0.501516 3.19365 0.513767C3.83357 0.549425 4.43364 0.835953 4.8637 1.31116C5.29376 1.78638 5.51911 2.41198 5.49091 3.05227Z" fill="white"/>
<path d="M12.8077 3.08675C12.8303 3.41058 12.786 3.73556 12.6776 4.04154C12.5692 4.34752 12.399 4.62794 12.1776 4.86533C11.9562 5.10273 11.6884 5.29203 11.3907 5.42146C11.093 5.55089 10.7718 5.61769 10.4472 5.61769C10.1226 5.61769 9.80148 5.55089 9.50378 5.42146C9.20609 5.29203 8.93821 5.10273 8.71681 4.86533C8.49541 4.62794 8.32523 4.34752 8.21685 4.04154C8.10846 3.73556 8.0642 3.41058 8.0868 3.08675C8.0642 2.76293 8.10846 2.43791 8.21685 2.13193C8.32523 1.82595 8.49541 1.54553 8.71681 1.30814C8.93821 1.07075 9.20609 0.881445 9.50378 0.752016C9.80148 0.622586 10.1226 0.555786 10.4472 0.555786C10.7718 0.555786 11.093 0.622586 11.3907 0.752016C11.6884 0.881445 11.9562 1.07075 12.1776 1.30814C12.399 1.54553 12.5692 1.82595 12.6776 2.13193C12.786 2.43791 12.8303 2.76293 12.8077 3.08675Z" fill="white"/>
<path d="M20.1359 3.12112C20.102 3.58315 19.9333 4.02506 19.6505 4.39205C19.3678 4.75905 18.9836 5.03496 18.5454 5.18559C18.1073 5.33623 17.6347 5.35493 17.186 5.2394C16.7374 5.12387 16.3325 4.8792 16.0217 4.5357C15.7108 4.19221 15.5076 3.76499 15.4373 3.30708C15.367 2.84917 15.4327 2.3807 15.6261 1.95976C15.8196 1.53882 16.1324 1.18395 16.5257 0.939144C16.919 0.694335 17.3756 0.570363 17.8387 0.582615C18.4775 0.621181 19.0758 0.908552 19.5053 1.3831C19.9347 1.85764 20.1611 2.4816 20.1359 3.12112Z" fill="white"/>
<path d="M27.4528 3.15567C27.4189 3.6177 27.2502 4.05961 26.9674 4.4266C26.6847 4.79359 26.3004 5.06951 25.8623 5.22014C25.4242 5.37077 24.9516 5.38948 24.5029 5.27395C24.0543 5.15842 23.6494 4.91375 23.3386 4.57025C23.0277 4.22675 22.8245 3.79957 22.7542 3.34166C22.6839 2.88375 22.7496 2.41525 22.9431 1.99431C23.1365 1.57337 23.4493 1.2185 23.8426 0.97369C24.2359 0.728881 24.6925 0.604909 25.1556 0.617161C25.7944 0.655727 26.3927 0.943098 26.8222 1.41764C27.2516 1.89219 27.478 2.51614 27.4528 3.15567Z" fill="white"/>
<path d="M34.7696 3.17861C34.7379 3.64133 34.5709 4.08453 34.2894 4.45312C34.0079 4.82172 33.6243 5.09946 33.1862 5.25182C32.7481 5.40418 32.275 5.42443 31.8255 5.31008C31.376 5.19572 30.9701 4.9518 30.6581 4.60862C30.3461 4.26544 30.1418 3.83813 30.0707 3.37982C29.9996 2.92151 30.0647 2.45242 30.258 2.03082C30.4513 1.60922 30.7643 1.25373 31.1579 1.00852C31.5516 0.763315 32.0087 0.639181 32.4723 0.651606C33.1091 0.690159 33.7056 0.975935 34.1348 1.44799C34.5639 1.92004 34.7917 2.54104 34.7696 3.17861Z" fill="white"/>
<path d="M42.0978 3.21305C42.0664 3.67337 41.9011 4.11447 41.6223 4.48209C41.3435 4.84971 40.9633 5.12783 40.5285 5.28215C40.0937 5.43648 39.6232 5.46031 39.175 5.35072C38.7268 5.24113 38.3205 5.00287 38.0059 4.66532C37.6914 4.32776 37.4824 3.90562 37.4047 3.45082C37.3269 2.99602 37.3839 2.52842 37.5685 2.10557C37.7531 1.68271 38.0573 1.32303 38.4436 1.07083C38.83 0.818619 39.2817 0.68487 39.743 0.686043C40.39 0.709994 41.0011 0.989421 41.4425 1.46307C41.8838 1.93673 42.1195 2.566 42.0978 3.21305Z" fill="white"/>
<path d="M49.4146 3.24749C49.4372 3.57131 49.3929 3.89632 49.2845 4.20231C49.1762 4.50829 49.006 4.78871 48.7846 5.0261C48.5632 5.26349 48.2953 5.45279 47.9976 5.58222C47.6999 5.71165 47.3788 5.77842 47.0542 5.77842C46.7296 5.77842 46.4084 5.71165 46.1107 5.58222C45.813 5.45279 45.5451 5.26349 45.3237 5.0261C45.1023 4.78871 44.9322 4.50829 44.8238 4.20231C44.7154 3.89632 44.6711 3.57131 44.6937 3.24749C44.6711 2.92366 44.7154 2.59865 44.8238 2.29266C44.9322 1.98668 45.1023 1.70626 45.3237 1.46887C45.5451 1.23148 45.813 1.04221 46.1107 0.912782C46.4084 0.783353 46.7296 0.716553 47.0542 0.716553C47.3788 0.716553 47.6999 0.783353 47.9976 0.912782C48.2953 1.04221 48.5632 1.23148 48.7846 1.46887C49.006 1.70626 49.1762 1.98668 49.2845 2.29266C49.3929 2.59865 49.4372 2.92366 49.4146 3.24749Z" fill="white"/>
<path d="M56.7315 3.28198C56.7002 3.74231 56.5349 4.18344 56.2561 4.55106C55.9773 4.91868 55.5971 5.19676 55.1622 5.35109C54.7274 5.50541 54.257 5.52924 53.8088 5.41965C53.3606 5.31006 52.9542 5.07181 52.6397 4.73425C52.3251 4.39669 52.1162 3.97455 52.0385 3.51975C51.9607 3.06495 52.0177 2.59736 52.2023 2.1745C52.3869 1.75165 52.691 1.39197 53.0774 1.13976C53.4638 0.887554 53.9154 0.75384 54.3768 0.755013C55.0238 0.778964 55.6349 1.05836 56.0763 1.53201C56.5176 2.00566 56.7532 2.63494 56.7315 3.28198Z" fill="white"/>
<path d="M64.0481 3.3164C64.0164 3.77911 63.8495 4.22231 63.568 4.59091C63.2865 4.9595 62.9029 5.23724 62.4648 5.3896C62.0267 5.54196 61.5536 5.56225 61.1041 5.44789C60.6546 5.33354 60.2486 5.08959 59.9366 4.7464C59.6246 4.40322 59.4204 3.97591 59.3493 3.5176C59.2781 3.05929 59.3433 2.5902 59.5366 2.1686C59.7299 1.74701 60.0428 1.39151 60.4365 1.1463C60.8302 0.901097 61.2872 0.776999 61.7509 0.789424C62.3877 0.827976 62.9842 1.11372 63.4133 1.58577C63.8425 2.05782 64.0703 2.67882 64.0481 3.3164Z" fill="white"/>
</g>
</svg>
