<svg width="20" height="20" viewBox="0 0 20 20" fill="none" xmlns="http://www.w3.org/2000/svg">
<path d="M14.09 0C17.62 0 20 2.271 20 5.66V14.33C20 17.72 17.62 20 14.09 20H5.92C2.38 20 0 17.72 0 14.33V5.66C0 2.271 2.38 0 5.92 0H14.09ZM10.21 5.72C9.92 5.43 9.44 5.43 9.15 5.72L5.38 9.47C5.1 9.75 5.1 10.25 5.38 10.53L9.15 14.28C9.44 14.57 9.92 14.57 10.21 14.28C10.5 13.98 10.5 13.51 10.21 13.21L7.73 10.75H14.08C14.5 10.75 14.83 10.41 14.83 10C14.83 9.58 14.5 9.25 14.08 9.25H7.73L10.21 6.78C10.35 6.64 10.43 6.44 10.43 6.25C10.43 6.061 10.35 5.87 10.21 5.72Z" fill="#006600"/>
</svg>
