<svg width="97" height="115" viewBox="0 0 97 115" fill="none" xmlns="http://www.w3.org/2000/svg">
<path d="M68.1854 24.4395L62.27 26.553L59.7315 18.8227C55.068 4.56813 40.2047 -3.00136 26.5475 1.81141C12.8902 6.62418 5.6194 22.2571 10.2828 36.5116L12.8213 44.2419L6.8829 46.3669C4.61847 47.2452 2.7796 48.9623 1.74851 51.1614C0.717427 53.3605 0.573437 55.8723 1.34648 58.1748L17.8064 108.473C18.1481 109.613 18.7154 110.673 19.4746 111.589C20.2338 112.505 21.1694 113.26 22.2259 113.807C23.2824 114.355 24.4381 114.684 25.6245 114.776C26.8109 114.868 28.0036 114.721 29.1319 114.343L90.4345 92.4156C92.7288 91.5388 94.5937 89.8064 95.637 87.5828C96.6802 85.3592 96.8205 82.8177 96.0283 80.4928L79.5569 30.1941C79.2064 29.0575 78.6304 28.0031 77.8635 27.094C77.0966 26.1848 76.1543 25.4394 75.093 24.9023C74.0318 24.3652 72.8731 24.0475 71.6863 23.9679C70.4995 23.8884 69.3089 24.0488 68.1854 24.4395ZM21.459 32.4799C20.2016 28.7735 20.4273 24.7243 22.0889 21.1806C23.7505 17.637 26.7189 14.8738 30.3724 13.47C32.1765 12.8528 34.0864 12.6053 35.9882 12.7422C37.89 12.8792 39.7447 13.3979 41.4417 14.2673C43.1386 15.1367 44.6431 16.339 45.8653 17.8025C47.0875 19.266 48.0023 20.9607 48.5553 22.7854L51.0823 30.5157L23.986 40.2102L21.459 32.4799ZM55.918 77.1158L60.122 89.9575C60.1992 90.215 60.1743 90.4923 60.0524 90.7319C59.9305 90.9715 59.7209 91.1549 59.4673 91.244L53.5748 93.346C53.3403 93.411 53.0897 93.3827 52.8756 93.2671C52.6615 93.1515 52.5004 92.9575 52.4262 92.7257L48.1877 79.9414C45.8506 79.8141 43.6082 78.9758 41.7607 77.5389C39.9132 76.1019 38.5487 74.1348 37.85 71.901C36.851 68.9478 37.0333 65.7226 38.3586 62.9007C39.6839 60.0788 42.0495 57.8791 44.9601 56.762C46.3972 56.271 47.9184 56.0744 49.4331 56.1838C50.9478 56.2932 52.425 56.7064 53.7766 57.3988C55.1283 58.0912 56.3266 59.0487 57.3004 60.2141C58.2741 61.3795 59.0032 62.729 59.4443 64.1822C60.1834 66.4514 60.2445 68.8868 59.6202 71.1902C58.9959 73.4936 57.7133 75.5648 55.9295 77.1502L55.918 77.1158Z" fill="#FF725E"/>
<path d="M62.0058 26.4151C62.0058 26.5759 51.0363 30.6995 37.3906 35.6042C23.7448 40.5088 12.6145 44.4486 12.5571 44.3338C12.4997 44.2189 23.5266 40.0609 37.1838 35.1447C50.8411 30.2286 61.9484 26.2658 62.0058 26.4151Z" fill="#263238"/>
<path d="M75.0313 28.5286C75.082 28.6283 75.1243 28.732 75.1577 28.8388C75.2496 29.0685 75.3529 29.3671 75.4908 29.7347C75.7894 30.5732 76.2029 31.7333 76.7198 33.1806L81.1306 46.0223C82.9684 51.4668 85.1623 57.9221 87.5974 65.0896C88.746 68.6848 90.1014 72.4294 91.3649 76.3692C92.0412 78.3994 92.3333 80.5379 92.2264 82.6752C92.129 83.7867 91.8128 84.868 91.296 85.8569C90.744 86.8425 90.0068 87.7122 89.125 88.4183C87.3505 89.7137 85.3807 90.718 83.29 91.3933L77.3746 93.5183L66.1754 97.527L47.2114 104.281L34.4042 108.784L30.9583 109.932L30.0394 110.231C29.9411 110.275 29.8363 110.302 29.7292 110.311C29.7292 110.311 29.8211 110.311 30.0164 110.173L30.9123 109.817L34.3582 108.519L47.0966 103.833L66.0261 96.9412L77.2023 92.898L83.1177 90.7616C85.149 90.1137 87.0616 89.14 88.7805 87.8785C89.6009 87.2233 90.2873 86.416 90.8021 85.5008C91.2885 84.5862 91.5817 83.5815 91.6636 82.5488C91.7693 80.4895 91.4888 78.4287 90.8365 76.4726C89.596 72.5672 88.2866 68.7882 87.1035 65.193C84.7143 58.014 82.5089 51.5357 80.763 46.0912C79.0171 40.6467 77.5468 36.2704 76.536 33.1921C76.0536 31.6874 75.6861 30.5158 75.3874 29.6658L75.1117 28.7469C75.0771 28.6773 75.0501 28.6041 75.0313 28.5286Z" fill="#263238"/>
<path d="M42.6858 12.689C42.6858 12.689 42.077 12.3904 40.9514 11.9309C39.3469 11.3144 37.6499 10.9727 35.9318 10.9201C33.3853 10.8328 30.851 11.3114 28.5117 12.3214C25.667 13.5792 23.2345 15.6135 21.4936 18.191C19.7409 20.761 18.8005 23.7983 18.7943 26.9091C18.8182 29.4587 19.2049 31.992 19.9429 34.4326C20.5402 36.5231 21.1604 38.1887 21.5739 39.3488C21.8179 39.938 22.0175 40.5447 22.1712 41.1636C21.845 40.6127 21.5719 40.0319 21.3557 39.4292C20.8848 38.2805 20.2071 36.6495 19.5409 34.5475C18.7231 32.0812 18.2779 29.5067 18.2199 26.9091C18.1893 23.6807 19.1517 20.521 20.9767 17.8578C22.7784 15.1862 25.3102 13.089 28.2705 11.816C30.6828 10.8005 33.2961 10.3525 35.9089 10.5066C37.6642 10.5961 39.3886 11.0048 40.9973 11.7127C41.4275 11.9111 41.8421 12.1415 42.2379 12.4018C42.4012 12.4736 42.5524 12.5705 42.6858 12.689Z" fill="#263238"/>
<path d="M43.2142 57.635C43.3976 57.5239 43.5896 57.4279 43.7885 57.3479C44.3635 57.0884 44.959 56.8771 45.5689 56.7161C46.5371 56.4304 47.5357 56.2607 48.5439 56.2107C49.9152 56.137 51.2872 56.3442 52.5756 56.8195C55.5161 57.8533 58.2154 60.8512 59.5478 64.8599C60.1867 67.0112 60.1867 69.3018 59.5478 71.4531C58.8393 73.788 57.5694 75.9137 55.8492 77.6442L55.9181 77.3341C57.4458 81.5266 59.1113 86.0752 60.8343 90.819L60.9377 91.1062L60.6505 91.2095L58.0201 92.0825L52.277 94.0007L51.9898 94.0926L51.8979 93.8055C50.3243 89.0501 48.6013 84.6164 47.3034 80.2631L47.5561 80.4583C45.3105 80.2718 43.1695 79.429 41.3994 78.0347C39.7979 76.8013 38.4847 75.2333 37.5515 73.4402C36.7094 71.8501 36.2901 70.0702 36.3339 68.2713C36.3871 66.4329 36.8461 64.629 37.6782 62.9887C38.5102 61.3485 39.6947 59.9125 41.1467 58.7836C41.7444 58.2985 42.4151 57.9108 43.1338 57.635C42.485 58.02 41.8562 58.4378 41.2501 58.887C39.655 60.2365 38.433 61.9727 37.7008 63.9295C37.0724 65.4051 36.7784 67.0015 36.84 68.6042C36.9016 70.2068 37.3171 71.7759 38.0569 73.199C38.9745 74.924 40.2561 76.429 41.8129 77.6097C43.5015 78.935 45.5428 79.7339 47.6824 79.907H47.8777L47.9351 80.0793C49.1986 84.3522 50.9331 88.8204 52.5297 93.5987L52.1506 93.4149L57.8938 91.4967L60.5126 90.6123L60.3289 91.0028C58.6174 86.2589 56.9634 81.6989 55.4472 77.5064V77.3341L55.585 77.1962C57.2549 75.5375 58.5 73.5004 59.2147 71.2578C59.8239 69.1999 59.8239 67.0097 59.2147 64.9518C57.9627 61.0924 55.3783 58.1634 52.5756 57.1296C51.335 56.6512 50.0105 56.4285 48.6817 56.4749C47.6895 56.4976 46.7031 56.6325 45.7412 56.8769C44.0298 57.3019 43.2257 57.6924 43.2142 57.635Z" fill="#263238"/>
</svg>
