<svg width="96" height="165" viewBox="0 0 96 165" fill="none" xmlns="http://www.w3.org/2000/svg">
<path d="M21.5698 122.753C3.8234 110.36 -0.19681 87.3526 0.503856 66.6657C0.618719 63.2198 0.239685 59.5672 1.88223 56.5463C3.52478 53.5254 7.3612 51.4463 10.451 52.8936C13.0125 54.0997 14.1267 57.0861 15.5625 59.5557C17.4782 62.8449 20.2857 65.525 23.6603 67.286C25.8542 68.4346 28.5765 69.1238 30.7474 67.9292C33.7338 66.2867 34.0784 62.1861 34.0554 58.7402C34.0554 52.3308 34.0172 45.9291 33.9406 39.535C33.7342 36.1016 34.0832 32.6573 34.9743 29.3351C36.0426 26.073 38.4202 23.0521 41.6709 22.1332C44.9215 21.2143 48.9762 23.1096 49.7113 26.4636C49.8378 27.8841 49.8724 29.3114 49.8147 30.7365C49.9066 32.1723 50.5728 33.7459 51.9167 34.1824C53.2606 34.6189 54.6619 33.6195 55.6957 32.6087C59.2335 29.1628 61.6456 24.6717 63.8854 20.238C66.1253 15.8042 68.3192 11.2442 71.5353 7.46516C74.7515 3.68616 79.1967 0.688234 84.1703 0.401075C89.1439 0.113917 94.3242 3.16928 95.5647 7.99354C96.8053 12.8178 93.9911 17.7454 90.9702 21.6623C86.4117 27.4763 81.0381 32.6022 75.0157 36.8817C73.8401 37.5235 72.9019 38.5262 72.3394 39.7418C71.5928 42.039 73.7637 44.3363 76.0265 45.0599C78.5879 45.9099 81.3676 45.6457 84.0669 45.9673C86.7662 46.2889 89.6378 47.4606 90.6601 49.9875C92.0614 53.5024 89.1209 57.178 86.2378 59.5901C80.4487 64.4144 73.8752 68.2101 66.803 70.8123C64.276 71.7312 61.6226 72.5467 59.578 74.3156C57.5335 76.0845 56.3159 79.1743 57.545 81.5979C58.774 84.0216 61.9328 84.7912 64.5861 84.2972C67.2394 83.8033 69.5941 82.379 72.1211 81.4257C76.842 79.6453 82.9298 79.9669 85.9047 84.0445C86.8264 85.4492 87.4098 87.0484 87.6091 88.7165C87.8084 90.3847 87.6182 92.0764 87.0534 93.6586C85.9038 96.8074 84.1344 99.6938 81.8501 102.147C74.327 111.135 64.5522 117.965 53.5248 121.938C42.5783 125.728 32.4359 126.762 21.5583 122.776" fill="#FF725E"/>
<path d="M90.5108 3.23828C90.5108 3.23828 90.4074 3.35314 90.1777 3.5599L89.1553 4.46731C88.2594 5.27135 86.9385 6.44297 85.273 7.99362C80.5508 12.3781 76.1659 17.1124 72.1556 22.1563C69.5941 25.338 66.9408 28.9447 64.1152 32.8615C61.2895 36.7784 58.372 41.0053 55.4775 45.4965C52.3915 50.2325 49.5655 55.1329 47.012 60.176C45.6796 62.8064 44.508 65.5516 43.3019 68.3543L39.7412 76.9116C35.0476 87.6904 30.9597 98.723 27.4967 109.958C24.7073 119.15 22.7845 128.583 21.7536 138.134C21.0855 144.579 20.9779 151.07 21.432 157.534C21.6157 159.831 21.7881 161.589 21.9489 162.783C22.0178 163.358 22.0637 163.817 22.1097 164.15V164.621C22.0602 164.472 22.0256 164.318 22.0063 164.162C21.9488 163.829 21.8799 163.381 21.788 162.806C21.5813 161.658 21.3631 159.843 21.1563 157.546C20.6021 151.07 20.6406 144.557 21.2712 138.088C22.2381 128.496 24.1189 119.019 26.888 109.785C30.3219 98.5191 34.3986 87.4588 39.0979 76.6589L42.7506 68.136C43.9567 65.3449 45.1397 62.5766 46.4836 59.9348C49.0549 54.8765 51.904 49.9643 55.018 45.2208C57.9585 40.6263 60.922 36.4682 63.7131 32.5859C66.5043 28.7035 69.2036 25.0738 71.7536 21.9036C75.8047 16.873 80.2485 12.1719 85.0433 7.84429C86.7432 6.31661 88.0986 5.16798 89.0175 4.39839L90.0857 3.53692C90.2167 3.42291 90.3591 3.32283 90.5108 3.23828Z" fill="#263238"/>
<path d="M46.633 59.9117C46.471 59.4385 46.3593 58.9496 46.2999 58.453C46.1161 57.4996 45.9094 56.1557 45.6682 54.4098C45.1743 50.9639 44.6689 46.243 44.129 41.0167C43.5892 35.7904 42.9804 31.0581 42.475 27.6466C42.2108 25.9466 41.9811 24.5798 41.8202 23.6264C41.6948 23.1384 41.6292 22.637 41.625 22.1332C41.8228 22.5933 41.9654 23.0753 42.05 23.569C42.3027 24.5108 42.5898 25.8662 42.9115 27.5777C43.5662 31.0236 44.2094 35.71 44.7492 40.9478C45.2891 46.1855 45.7486 50.7801 46.1047 54.3523C46.277 55.9604 46.4263 57.3273 46.5411 58.4185C46.6304 58.9109 46.6612 59.4121 46.633 59.9117Z" fill="#263238"/>
<path d="M90.8323 51.6646C90.2733 51.7863 89.7042 51.8555 89.1323 51.8713C87.9837 51.9747 86.3526 52.1126 84.331 52.3423C80.2878 52.7788 74.7284 53.5828 68.6292 54.7314C62.5299 55.8801 57.051 57.178 53.1112 58.1773C51.147 58.6827 49.5619 59.1422 48.5167 59.4523C47.9586 59.6506 47.381 59.7892 46.7937 59.8658C47.3245 59.5989 47.878 59.3798 48.4477 59.2111C49.5274 58.8321 51.0896 58.3037 53.0422 57.7408C56.9591 56.5922 62.4381 55.2253 68.5603 54.0537C73.7464 53.0621 78.9793 52.3337 84.2391 51.8713C86.2722 51.699 87.9147 51.6301 89.0634 51.6071C89.6535 51.567 90.2461 51.5863 90.8323 51.6646Z" fill="#263238"/>
<path d="M27.4509 108.981C27.3284 108.815 27.2281 108.634 27.1523 108.442L26.3942 106.845C25.7394 105.455 24.855 103.399 23.7982 100.884C21.6618 95.8295 18.9395 88.7539 16.045 80.8973C13.1504 73.0406 10.4856 65.9651 8.46397 60.8537C7.47615 58.3726 6.66065 56.3395 6.05187 54.8233L5.4086 53.1808C5.31945 52.9914 5.2576 52.7903 5.22485 52.5835C5.34732 52.7498 5.44768 52.9313 5.52347 53.1234L6.28158 54.72C6.92481 56.1098 7.82076 58.1659 8.8775 60.6814C11.014 65.7354 13.7362 72.8109 16.6308 80.6676C19.5253 88.5242 22.1902 95.5998 24.2118 100.711C25.1996 103.192 26.0151 105.225 26.6124 106.742C26.8766 107.396 27.0948 107.89 27.2671 108.384C27.3563 108.574 27.4181 108.775 27.4509 108.981Z" fill="#263238"/>
<path d="M86.1229 90.0634C85.9389 90.1689 85.742 90.25 85.5371 90.3046L83.8371 90.8789L77.5541 92.912C72.2474 94.6349 64.9191 97.093 56.8787 99.8038C48.8382 102.515 41.4755 104.927 36.1343 106.535C33.4695 107.35 31.2986 107.971 29.7939 108.384L28.0594 108.832C27.8578 108.896 27.6499 108.938 27.4392 108.958C27.6231 108.853 27.82 108.772 28.025 108.717L29.725 108.143L36.008 106.11C41.3147 104.387 48.643 101.929 56.6834 99.218C64.7238 96.5072 72.0751 94.095 77.4162 92.487C80.0925 91.6714 82.2519 91.0512 83.7681 90.6377L85.5026 90.1897C85.7043 90.1256 85.9122 90.0833 86.1229 90.0634Z" fill="#263238"/>
</svg>
