<svg width="667" height="698" viewBox="0 0 667 698" fill="none" xmlns="http://www.w3.org/2000/svg">
<path d="M53.8512 697.352C53.8512 697.352 27.1922 559.51 27.1922 531.126C27.1922 491.921 57.1443 476.239 57.1443 476.239L45.4771 442.947H109.678L99.6105 476.051C99.6105 476.051 133.405 493.975 128.7 534.67C119.871 610.773 105.836 697.336 105.836 697.336L53.8512 697.352Z" fill="#F5F5F5"/>
<path d="M115.088 491.921C114.848 491.942 114.607 491.942 114.367 491.921C113.674 491.847 112.978 491.815 112.281 491.827C109.58 491.868 106.914 492.449 104.441 493.536C100.56 495.274 97.1351 497.888 94.4356 501.173C92.7284 503.202 91.1916 505.368 89.8408 507.65C88.2891 510.184 86.9414 512.837 85.8106 515.585C84.5574 518.562 83.9225 521.764 83.9445 524.994C84.044 528.483 85.3904 531.821 87.7395 534.403C88.9726 535.744 90.5431 536.73 92.2872 537.257C94.0815 537.783 95.9953 537.733 97.7601 537.116C99.5913 536.411 101.236 535.295 102.568 533.854C103.901 532.413 104.884 530.686 105.444 528.805C105.993 526.815 106.035 524.719 105.567 522.709C105.098 520.698 104.134 518.837 102.763 517.294C99.9535 513.959 96.0734 511.703 91.7854 510.912C87.3026 510.226 82.7179 510.768 78.5186 512.48C74.1604 514.202 70.1293 516.657 66.6004 519.741C59.4536 525.745 54.5144 533.962 52.5653 543.091C51.6661 547.382 51.7519 551.822 52.8162 556.075C53.7036 560.164 55.9071 563.849 59.0889 566.566C60.6043 567.852 62.4429 568.698 64.405 569.013C66.2997 569.304 68.2366 568.921 69.8779 567.931C71.4036 566.885 72.6481 565.479 73.5014 563.838C74.3548 562.197 74.7907 560.371 74.7707 558.522C74.8274 556.762 74.4787 555.013 73.7513 553.409C72.9837 551.871 71.9175 550.501 70.615 549.379C68.1431 547.275 65.1455 545.881 61.943 545.349C56.4336 544.471 50.7889 545.47 45.9162 548.187C42.1777 550.206 38.9241 553.016 36.3817 556.42C34.7475 558.553 33.4467 560.922 32.524 563.446C31.881 565.171 31.6615 566.127 31.6144 566.112C31.7851 565.183 32.0316 564.271 32.3515 563.383C33.2109 560.808 34.4704 558.384 36.0837 556.201C38.6162 552.706 41.8945 549.819 45.681 547.748C50.6925 544.891 56.5303 543.835 62.2252 544.753C65.552 545.286 68.6699 546.717 71.2423 548.893C72.5989 550.066 73.7124 551.494 74.5197 553.096C75.3006 554.801 75.6814 556.662 75.6331 558.537C75.6478 560.513 75.1762 562.461 74.2601 564.212C73.344 565.962 72.0114 567.46 70.3798 568.574C68.5776 569.673 66.4448 570.101 64.358 569.781C62.2486 569.46 60.2683 568.565 58.6341 567.194C55.2717 564.365 52.9349 560.507 51.985 556.216C50.8729 551.838 50.771 547.264 51.6871 542.84C53.6842 533.54 58.7217 525.17 66.0045 519.051C69.6193 515.898 73.7452 513.384 78.2049 511.617C82.5645 509.866 87.316 509.324 91.9579 510.049C96.4706 510.871 100.554 513.245 103.5 516.761C104.904 518.485 105.92 520.49 106.479 522.642C107.019 524.765 106.959 526.996 106.307 529.087C105.702 531.091 104.645 532.928 103.217 534.459C101.79 535.99 100.03 537.172 98.0737 537.916C96.1486 538.575 94.0659 538.619 92.1147 538.041C90.2349 537.457 88.5493 536.373 87.2376 534.905C84.7714 532.158 83.3648 528.622 83.2702 524.931C83.2565 521.589 83.929 518.28 85.2461 515.209C86.4192 512.446 87.8033 509.777 89.3861 507.227C90.7644 504.926 92.3384 502.749 94.0906 500.719C96.8541 497.401 100.363 494.784 104.331 493.082C106.839 492.017 109.541 491.483 112.266 491.513C113.219 491.546 114.165 491.682 115.088 491.921Z" fill="#E0E0E0"/>
<path d="M116.751 596.048C116.918 598.395 116.722 600.754 116.17 603.042C115.595 605.773 114.646 608.412 113.348 610.883C111.663 614.157 109.381 617.087 106.62 619.523C103.266 622.48 99.2472 624.583 94.906 625.655C89.9082 626.952 84.653 626.877 79.6947 625.436C74.2117 623.771 69.4111 620.383 66.0045 615.776C62.2092 610.858 60.3359 604.725 60.7355 598.526C60.8926 595.331 62.2476 592.313 64.5304 590.073C65.7257 589.066 67.1572 588.38 68.6906 588.078C70.224 587.776 71.8089 587.869 73.2965 588.348C74.7353 588.745 76.0781 589.43 77.2429 590.363C78.4076 591.296 79.37 592.457 80.0711 593.774C81.3167 596.353 81.6325 599.284 80.9649 602.07C80.3807 604.701 79.1091 607.131 77.2797 609.111C75.5548 610.947 73.4594 612.395 71.1325 613.361C66.9666 615.052 62.431 615.625 57.9755 615.023C54.3211 614.569 50.7751 613.476 47.5 611.792C45.028 610.541 42.7382 608.958 40.6942 607.088C38.9097 605.54 37.3756 603.726 36.1465 601.709C36.265 601.81 36.3704 601.926 36.4601 602.054L37.3069 603.12C38.4234 604.44 39.634 605.677 40.9294 606.821C42.9866 608.616 45.2693 610.134 47.7196 611.338C50.9535 612.948 54.4469 613.972 58.0382 614.364C62.3746 614.918 66.7803 614.328 70.8188 612.655C73.0443 611.726 75.0444 610.33 76.6838 608.562C78.3973 606.681 79.587 604.382 80.1338 601.897C80.7415 599.299 80.4427 596.571 79.287 594.166C78.6307 592.959 77.7365 591.897 76.6584 591.046C75.5802 590.194 74.3405 589.57 73.0143 589.211C71.6811 588.79 70.2632 588.714 68.8924 588.988C67.5216 589.262 66.2424 589.878 65.1734 590.779C63.0645 592.859 61.8208 595.66 61.692 598.62C61.2927 604.576 63.0642 610.476 66.6788 615.227C69.9538 619.708 74.5916 623.009 79.8986 624.636C84.7129 626.057 89.8214 626.155 94.6865 624.918C98.9367 623.898 102.879 621.87 106.181 619.006C108.912 616.64 111.182 613.791 112.877 610.601C114.19 608.202 115.176 605.639 115.81 602.979C116.209 601.299 116.477 599.589 116.61 597.867C116.61 597.318 116.61 596.879 116.688 596.518C116.687 596.359 116.708 596.201 116.751 596.048Z" fill="#E0E0E0"/>
<path d="M104.801 661.002C104.707 661.174 101.916 659.669 97.0544 658.257C95.7351 657.864 94.3948 657.545 93.0399 657.301C91.5971 656.972 90.0133 656.815 88.3353 656.595C84.7315 656.251 81.1031 656.251 77.4992 656.595C73.9094 657.034 70.3699 657.816 66.9297 658.932C65.3616 659.512 63.7934 660.014 62.5232 660.657C61.2628 661.214 60.0327 661.837 58.838 662.523C54.4157 664.969 52.0164 667.055 51.9066 666.898C52.3692 666.342 52.8955 665.842 53.4748 665.408C54.1348 664.84 54.8315 664.316 55.5605 663.84C56.4877 663.158 57.4566 662.535 58.4616 661.974C59.6538 661.25 60.8898 660.6 62.1625 660.03C63.6354 659.336 65.1428 658.718 66.6788 658.179C70.1701 656.993 73.7754 656.173 77.4365 655.733C81.086 655.359 84.7642 655.359 88.4138 655.733C89.9945 655.926 91.5647 656.198 93.1183 656.548C94.4887 656.822 95.8401 657.183 97.1642 657.63C98.2677 657.96 99.3515 658.353 100.41 658.806C101.228 659.114 102.024 659.475 102.794 659.888C103.503 660.182 104.177 660.555 104.801 661.002Z" fill="#E0E0E0"/>
<path d="M100.316 478.027C99.6602 478.591 98.9513 479.09 98.1992 479.517C96.8035 480.442 94.7178 481.665 92.0833 483.061C78.2427 490.325 62.9611 494.422 47.3432 495.057C44.3637 495.167 41.9487 495.152 40.2864 495.057C39.4189 495.066 38.5525 494.993 37.6989 494.838C38.5553 494.712 39.4214 494.664 40.2864 494.697C41.9487 494.697 44.348 494.603 47.3119 494.415C62.7773 493.433 77.8916 489.376 91.7697 482.481C94.4199 481.163 96.4742 480.034 98.0424 479.219C98.7665 478.76 99.527 478.362 100.316 478.027Z" fill="#E0E0E0"/>
<path d="M108.408 444.593C108.408 444.688 106.84 444.452 103.986 444.437C99.9723 444.45 95.9864 445.101 92.1774 446.365C89.5577 447.238 87.0394 448.389 84.6658 449.8C83.3509 450.59 82.0885 451.465 80.8865 452.419C79.5893 453.381 78.4241 454.509 77.4208 455.775C76.3638 457.051 75.6416 458.571 75.3195 460.197C75.1705 461.02 75.2271 461.867 75.4843 462.663C75.7414 463.459 76.1912 464.18 76.7936 464.76C78.1399 465.936 79.756 466.76 81.4981 467.159C83.2403 467.781 85.1017 467.996 86.9397 467.787C87.7751 467.531 88.5078 467.017 89.032 466.318C89.5562 465.619 89.8449 464.771 89.8565 463.898C89.9891 462.105 89.6141 460.312 88.7744 458.723C87.2141 455.626 84.7099 453.105 81.6235 451.525C78.8523 450.041 75.7791 449.21 72.6379 449.094C69.8881 449.041 67.1485 449.443 64.5304 450.286C60.7264 451.562 57.1523 453.442 53.9452 455.853C52.8162 456.715 51.9537 457.421 51.3734 457.876C51.0919 458.144 50.7817 458.381 50.4482 458.582C50.6827 458.271 50.9509 457.987 51.248 457.735C51.7968 457.217 52.628 456.48 53.7414 455.571C56.9044 453.011 60.4853 451.016 64.3266 449.674C67.0042 448.75 69.8211 448.294 72.6536 448.326C75.9341 448.422 79.1504 449.259 82.0626 450.772C85.3255 452.419 87.9746 455.068 89.6212 458.331C90.5342 460.071 90.9416 462.032 90.7974 463.992C90.7185 465.024 90.3727 466.019 89.7937 466.877C89.1756 467.773 88.2487 468.41 87.1906 468.665C85.1981 468.933 83.1705 468.717 81.2785 468.038C79.3765 467.6 77.6138 466.695 76.1506 465.403C75.4513 464.722 74.9287 463.88 74.6282 462.951C74.3276 462.022 74.2581 461.033 74.4256 460.071C74.7884 458.294 75.5858 456.635 76.7465 455.241C77.8025 453.937 79.0197 452.773 80.369 451.776C81.6081 450.816 82.9071 449.936 84.2581 449.141C86.6904 447.729 89.2731 446.593 91.9578 445.754C95.837 444.515 99.9003 443.953 103.97 444.092C105.073 444.116 106.173 444.211 107.263 444.374C107.652 444.405 108.036 444.479 108.408 444.593Z" fill="#E0E0E0"/>
<path d="M216.581 9.76978H17.3283V367.706H216.581V9.76978Z" fill="#EBEBEB"/>
<path d="M206.56 20.1509H25.2947V357.042H206.56V20.1509Z" fill="#FAFAFA"/>
<path d="M225.002 370.921L216.581 367.706V3.70093H225.002V370.921Z" fill="#E0E0E0"/>
<path d="M69.8152 237.767C85.4969 223.13 101.179 208.541 116.86 193.999C122.82 188.463 130.613 182.489 138.282 185.217C141.983 186.534 144.758 189.686 148.365 191.192C155.594 194.203 163.859 189.859 169.41 184.339C174.961 178.819 179.352 171.919 186.095 167.92C192.839 163.921 203.345 164.439 206.607 171.527V219.137L138.188 248.43L69.8152 237.767Z" fill="#F5F5F5"/>
<path d="M25.2947 210.387C42.6387 203.33 59.9514 209.32 72.34 223.355C74.9431 226.304 77.3268 229.628 80.9179 231.337C85.7792 233.549 91.3933 231.902 96.7094 231.337C104.003 230.604 111.358 231.904 117.959 235.092C124.56 238.281 130.15 243.234 134.11 249.403L76.1663 277.881L25.2947 277.52V210.387Z" fill="#E0E0E0"/>
<path d="M206.56 210.622C195.144 205.102 185.076 211.782 174.538 218.839C164 225.896 154.152 234.96 141.842 237.814C133.577 239.711 124.717 238.661 116.751 241.499C100.473 247.301 91.064 267.954 73.8297 268.942C64.4207 269.475 56.0623 263.799 47.7039 259.533C39.3455 255.268 32.7592 251.222 25.3104 256.93V357.027H206.56V210.622Z" fill="#EBEBEB"/>
<path d="M210.496 117.064H25.2947V120.656H210.496V117.064Z" fill="#E0E0E0"/>
<path d="M210.496 197.292H25.2947V200.883H210.496V197.292Z" fill="#E0E0E0"/>
<path d="M210.496 277.52H25.2947V281.111H210.496V277.52Z" fill="#E0E0E0"/>
<path d="M111.356 118.836L111.356 366.577H120.514L120.514 118.836H111.356Z" fill="#E0E0E0"/>
<path d="M64.3579 20.1509H60.2023V118.852H64.3579V20.1509Z" fill="#E0E0E0"/>
<path d="M100.144 20.1509H95.988V118.852H100.144V20.1509Z" fill="#E0E0E0"/>
<path d="M135.914 20.1509H131.758V118.852H135.914V20.1509Z" fill="#E0E0E0"/>
<path d="M171.7 20.1509H167.544V118.852H171.7V20.1509Z" fill="#E0E0E0"/>
<path d="M17.3283 3.70093H8.90723V369.917H17.3283V3.70093Z" fill="#E0E0E0"/>
<path d="M225.002 0H8.90723V9.76974H225.002V0Z" fill="#E0E0E0"/>
<path d="M230.694 372.128H2.91681V381.224H230.694V372.128Z" fill="#E0E0E0"/>
<path d="M216.581 367.706L230.71 372.128H2.91681L17.3283 367.706H216.581Z" fill="#EBEBEB"/>
<path d="M594.762 692.177V222.179H588.944V692.287L540.848 695.894H588.944H594.762H642.858L594.762 692.177Z" fill="#EBEBEB"/>
<path d="M558.631 181.234L537.038 277.787H646.684L622.017 181.532L558.631 181.234Z" fill="#E0E0E0"/>
<path d="M578.735 316.913C578.484 316.913 578.312 305.057 578.343 290.442C578.375 275.826 578.594 263.971 578.845 263.987C579.096 264.002 579.284 275.826 579.237 290.442C579.19 305.057 578.986 316.913 578.735 316.913Z" fill="#E0E0E0"/>
<path d="M578.688 316.724C578.688 316.615 579.472 316.724 579.817 317.712C579.913 318.006 579.938 318.319 579.889 318.625C579.84 318.93 579.719 319.22 579.535 319.469C579.28 319.779 578.931 319.998 578.541 320.094C578.152 320.19 577.741 320.158 577.371 320.002C577.03 319.9 576.726 319.699 576.497 319.426C576.269 319.153 576.125 318.818 576.085 318.464C576.045 318.11 576.11 317.752 576.272 317.434C576.433 317.116 576.685 316.853 576.995 316.677C577.92 316.128 578.563 316.583 578.563 316.677C578.563 316.771 577.983 316.677 577.434 317.211C577.291 317.34 577.175 317.497 577.094 317.672C577.013 317.847 576.969 318.037 576.963 318.23C576.988 318.446 577.075 318.651 577.214 318.818C577.354 318.985 577.539 319.108 577.747 319.171C577.947 319.261 578.17 319.288 578.385 319.249C578.601 319.21 578.8 319.106 578.955 318.951C579.078 318.802 579.169 318.629 579.22 318.442C579.272 318.256 579.283 318.06 579.253 317.869C579.112 317.132 578.626 316.85 578.688 316.724Z" fill="#E0E0E0"/>
<path d="M648.864 20.7783H538.386V135.945H648.864V20.7783Z" fill="#E0E0E0"/>
<path d="M641.384 20.7783H530.906V135.945H641.384V20.7783Z" fill="#EBEBEB"/>
<path d="M626.533 36.2563H545.757V120.467H626.533V36.2563Z" fill="#FAFAFA"/>
<path d="M545.757 121.016C545.168 121.847 544.496 122.614 543.749 123.306C542.448 124.67 540.613 126.442 538.59 128.512C536.567 130.582 534.701 132.291 533.321 133.577C532.626 134.312 531.853 134.969 531.016 135.537C531.613 134.719 532.285 133.958 533.023 133.264C534.325 131.899 536.159 130.127 538.182 128.057C540.205 125.987 542.087 124.262 543.467 122.992C544.161 122.258 544.928 121.596 545.757 121.016Z" fill="#E0E0E0"/>
<path d="M626.518 120.812C627.349 121.405 628.117 122.083 628.807 122.835C630.171 124.137 631.944 125.972 634.014 127.979C636.084 129.986 637.793 131.884 639.079 133.248C639.813 133.943 640.471 134.716 641.039 135.553C640.215 134.963 639.453 134.29 638.765 133.546C637.416 132.244 635.629 130.409 633.559 128.387C631.489 126.364 629.764 124.482 628.494 123.117C627.756 122.42 627.094 121.648 626.518 120.812Z" fill="#E0E0E0"/>
<path d="M626.314 36.4758C626.916 35.6519 627.593 34.8855 628.337 34.1863C629.638 32.8377 631.473 31.05 633.48 28.9956C635.488 26.9413 637.385 25.2007 638.749 23.9304C639.453 23.2047 640.225 22.5482 641.055 21.9702C640.469 22.7935 639.802 23.5554 639.063 24.2441C637.761 25.5927 635.927 27.3804 633.904 29.4504C631.881 31.5204 629.999 33.2454 628.635 34.5156C627.934 35.2512 627.156 35.9084 626.314 36.4758Z" fill="#E0E0E0"/>
<path d="M545.537 36.6954C544.713 36.0932 543.947 35.416 543.248 34.6725C541.899 33.3709 540.111 31.5361 538.057 29.5289C536.003 27.5216 534.262 25.6241 532.992 24.2598C532.27 23.5476 531.609 22.7765 531.016 21.9546C531.847 22.5416 532.615 23.2144 533.305 23.9619C534.654 25.2478 536.442 27.0982 538.512 29.1212C540.582 31.1441 542.307 33.0259 543.577 34.3902C544.311 35.0857 544.969 35.8586 545.537 36.6954Z" fill="#E0E0E0"/>
<path d="M626.314 120.467C626.314 120.467 626.314 120.326 626.314 120.06C626.314 119.793 626.314 119.385 626.314 118.883C626.314 117.833 626.314 116.312 626.314 114.336C626.314 110.368 626.314 104.566 626.314 97.1799C626.314 82.439 626.235 61.4255 626.173 36.2562L626.439 36.5228H545.898L546.211 36.2249C546.211 67.1336 546.211 96.0508 546.211 120.436L545.945 120.169L604.297 120.31H620.668H624.997H620.778H604.453L545.945 120.436H545.694V120.185C545.694 95.7999 545.694 66.867 545.694 35.974V35.676H546.008H626.549H626.518V35.9426C626.518 61.1746 626.424 82.2509 626.392 97.1015C626.392 104.456 626.392 110.227 626.392 114.195C626.392 116.155 626.392 117.66 626.392 118.695V120.075C626.374 120.207 626.348 120.338 626.314 120.467Z" fill="#E0E0E0"/>
<path d="M567.084 71.4619C567.084 71.4619 565.343 92.3187 587.925 92.3187C587.925 81.1532 578.751 72.3715 567.084 71.4619Z" fill="#EBEBEB"/>
<path d="M608.39 71.4619C608.39 71.4619 587.548 69.737 587.548 92.3187C598.667 92.303 607.449 83.1135 608.39 71.4619Z" fill="#EBEBEB"/>
<path d="M586.921 60.0454C586.921 60.0454 569.891 75.3351 587.862 92.2871C596.22 83.4269 595.499 69.5486 586.921 60.0454Z" fill="#E0E0E0"/>
<path d="M460.181 33.5591H291.226C269.254 33.5591 251.441 51.3713 251.441 73.3437V509.438C251.441 531.41 269.254 549.222 291.226 549.222H460.181C482.154 549.222 499.966 531.41 499.966 509.438V73.3437C499.966 51.3713 482.154 33.5591 460.181 33.5591Z" fill="#FAFAFA"/>
<path d="M460.181 549.222L463.945 548.987C465.184 548.83 466.721 548.595 468.524 548.266L471.409 547.513C472.444 547.247 473.495 546.776 474.64 546.384C480.23 544.189 485.241 540.739 489.287 536.301C491.904 533.513 494.078 530.339 495.732 526.892C497.672 523 498.929 518.804 499.448 514.487C499.813 509.635 499.928 504.767 499.793 499.903C499.793 494.77 499.793 489.396 499.793 483.782C499.793 472.539 499.793 460.26 499.793 447.213C499.793 420.977 499.793 391.088 499.793 358.062C499.793 292.01 499.793 213.366 499.699 125.972V92.8988C499.699 87.3161 499.699 81.6864 499.699 76.0409C499.699 74.6296 499.699 73.2025 499.621 71.8069C499.605 70.4035 499.479 69.0035 499.244 67.6198L498.915 65.5185C498.774 64.8442 498.57 64.1542 498.413 63.4799C498.257 62.8055 498.068 62.0999 497.864 61.4255L497.127 59.434C495.124 54.1111 491.976 49.2931 487.907 45.3204C483.785 41.2912 478.835 38.2088 473.401 36.2877C470.671 35.3163 467.841 34.6536 464.964 34.3118C463.537 34.1079 462.079 34.1236 460.62 34.0295C459.162 33.9354 457.688 34.0295 456.214 34.0295H291.257C285.01 34.0584 278.856 35.5458 273.286 38.3734C267.759 41.1903 262.984 45.2872 259.361 50.3229C255.713 55.2933 253.319 61.0711 252.382 67.1651L252.037 69.4232L251.927 71.7128C251.818 73.281 251.927 74.8491 251.927 76.3232V85.5441C251.927 110.091 251.927 134.257 251.927 158.041C251.927 205.572 251.927 251.41 251.927 295.084C251.927 338.757 251.927 380.251 251.927 419.095C251.927 438.509 251.927 457.244 251.927 475.299C251.927 484.3 251.927 493.144 251.927 501.785C251.805 506.043 251.92 510.305 252.272 514.55C252.775 518.673 253.957 522.684 255.769 526.421C257.47 530.105 259.764 533.485 262.56 536.426C267.907 542.18 274.854 546.2 282.507 547.968C283.423 548.21 284.356 548.383 285.298 548.485C286.22 548.667 287.152 548.788 288.09 548.846C289.956 548.956 291.822 549.05 293.688 549.019H335.715H403.006L445.55 549.097L403.006 549.175H335.715H293.688C291.822 549.175 289.94 549.175 288.043 549.019C287.102 549.019 286.161 548.768 285.22 548.658C284.268 548.542 283.325 548.364 282.397 548.125C278.587 547.253 274.925 545.827 271.53 543.891C268.026 541.911 264.852 539.398 262.121 536.442C259.28 533.466 256.949 530.044 255.221 526.311C253.377 522.521 252.175 518.451 251.661 514.268C251.3 509.997 251.174 505.709 251.285 501.424V475.236C251.285 457.202 251.285 438.467 251.285 419.032C251.285 380.189 251.285 338.695 251.285 295.021C251.285 251.347 251.285 205.51 251.285 157.978V76.2605C251.285 74.6923 251.285 73.1241 251.363 71.556L251.488 69.2194L251.833 66.9142C252.779 60.6738 255.222 54.7552 258.953 49.6642C262.662 44.5291 267.536 40.3477 273.176 37.4638C278.861 34.5867 285.137 33.0676 291.508 33.0259H456.088C457.562 33.0259 459.036 33.0259 460.511 33.0259C461.985 33.0259 463.474 33.12 464.933 33.3238C473.758 34.3787 481.986 38.327 488.33 44.552C492.488 48.6296 495.7 53.5707 497.739 59.0262L498.476 61.0492C498.696 61.7392 498.852 62.4449 499.041 63.1349C499.229 63.8249 499.401 64.5305 499.558 65.2362L499.887 67.3532C500.119 68.7692 500.25 70.1999 500.279 71.6344C500.374 73.0771 500.279 74.4885 500.358 75.8998C500.358 81.5452 500.358 87.175 500.358 92.7577V125.909C500.358 213.241 500.358 291.885 500.264 357.999C500.264 391.025 500.264 420.914 500.264 447.15C500.264 460.26 500.264 472.476 500.264 483.72C500.264 489.334 500.264 494.707 500.264 499.841C500.388 504.716 500.262 509.594 499.887 514.456C499.371 518.827 498.092 523.073 496.108 527.001C494.418 530.443 492.225 533.614 489.6 536.41C485.516 540.853 480.46 544.293 474.828 546.462C473.668 546.854 472.617 547.325 471.582 547.576L468.681 548.313C466.862 548.642 465.309 548.862 464.086 549.003L460.181 549.222Z" fill="#263238"/>
<path d="M476.083 64.0913C470.052 64.6349 463.985 64.6349 457.954 64.0913C463.985 63.5477 470.052 63.5477 476.083 64.0913Z" fill="#263238"/>
<path d="M476.083 70.0034C470.052 70.547 463.985 70.547 457.954 70.0034C463.985 69.4598 470.052 69.4598 476.083 70.0034Z" fill="#263238"/>
<path d="M476.083 75.9155C470.052 76.4591 463.985 76.4591 457.954 75.9155C463.985 75.3719 470.052 75.3719 476.083 75.9155Z" fill="#263238"/>
<path d="M350.926 75.9156V69.6429L347.79 74.8336H347.226L344.089 69.69V75.8686H342.913V67.3848H343.917L347.476 73.3752L350.989 67.3848H352.087V75.9156H350.926Z" fill="#263238"/>
<path d="M360.21 69.4547L357.074 76.5742C356.509 77.9385 355.756 78.362 354.768 78.362C354.159 78.3787 353.566 78.166 353.106 77.766L353.608 76.8879C353.92 77.1885 354.335 77.3571 354.768 77.3583C355.333 77.3583 355.678 77.1074 356.007 76.3547L356.211 75.9156L353.357 69.4547H354.58L356.791 74.5983L359.018 69.4233L360.21 69.4547Z" fill="#263238"/>
<path d="M371.658 70.3486C371.658 72.2147 370.309 73.3282 368.082 73.3282H365.981V75.9156H364.758V67.3848H368.082C370.309 67.3848 371.658 68.4982 371.658 70.3486ZM370.435 70.3486C370.435 69.1411 369.619 68.4354 368.051 68.4354H365.981V72.2775H368.051C369.619 72.2775 370.435 71.5718 370.435 70.3486Z" fill="#263238"/>
<path d="M376.645 69.3917V70.5208H376.362C376.078 70.5016 375.793 70.5461 375.528 70.6512C375.263 70.7563 375.025 70.9193 374.831 71.1282C374.637 71.3371 374.492 71.5867 374.407 71.8588C374.322 72.1308 374.299 72.4184 374.339 72.7006V75.8369H373.163V69.4545H374.277V70.5365C374.525 70.144 374.879 69.8288 375.297 69.6265C375.716 69.4242 376.182 69.3429 376.645 69.3917Z" fill="#263238"/>
<path d="M377.413 72.685C377.4 72.0157 377.588 71.3578 377.95 70.7951C378.313 70.2325 378.835 69.7906 379.45 69.5258C380.065 69.2609 380.745 69.1851 381.403 69.3081C382.061 69.431 382.668 69.747 383.146 70.216C383.623 70.6849 383.951 71.2855 384.086 71.9411C384.221 72.5968 384.158 73.2779 383.905 73.8977C383.652 74.5174 383.22 75.0477 382.664 75.421C382.108 75.7944 381.454 75.9938 380.784 75.9939C380.341 76.0157 379.898 75.9456 379.484 75.7879C379.069 75.6302 378.691 75.3883 378.374 75.0775C378.058 74.7666 377.809 74.3936 377.643 73.9819C377.478 73.5701 377.399 73.1286 377.413 72.685ZM382.964 72.685C382.943 72.2593 382.797 71.8491 382.545 71.5054C382.293 71.1617 381.945 70.8994 381.545 70.7511C381.146 70.6029 380.711 70.5751 380.296 70.6711C379.881 70.7672 379.503 70.983 379.209 71.2918C378.915 71.6006 378.718 71.9888 378.642 72.4083C378.566 72.8279 378.616 73.2604 378.783 73.6524C378.951 74.0443 379.23 74.3785 379.586 74.6135C379.941 74.8485 380.358 74.974 380.784 74.9746C381.082 74.982 381.378 74.9269 381.653 74.813C381.928 74.6991 382.177 74.5288 382.382 74.3131C382.587 74.0974 382.745 73.8411 382.846 73.5607C382.946 73.2803 382.986 72.982 382.964 72.685Z" fill="#263238"/>
<path d="M388.061 66.7574C388.529 66.7402 388.99 66.872 389.378 67.1338L389.033 68.0276C388.768 67.8359 388.45 67.7318 388.124 67.7297C387.434 67.7297 387.073 68.1217 387.073 68.8587V69.4233H388.955V70.3799H387.104V75.8842H385.928V70.4112H384.83V69.4547H385.928V68.8744C385.901 68.5883 385.938 68.2998 386.036 68.0296C386.134 67.7595 386.29 67.5143 386.494 67.3119C386.698 67.1094 386.944 66.9547 387.215 66.8588C387.486 66.763 387.775 66.7283 388.061 66.7574ZM390.836 67.416C390.839 67.313 390.861 67.2115 390.902 67.1171C390.943 67.0228 391.003 66.9375 391.077 66.8661C391.151 66.7948 391.239 66.7388 391.335 66.7013C391.431 66.6638 391.533 66.6455 391.636 66.6476C391.844 66.6476 392.044 66.7302 392.191 66.8773C392.338 67.0243 392.42 67.2238 392.42 67.4317C392.42 67.6397 392.338 67.8391 392.191 67.9861C392.044 68.1332 391.844 68.2158 391.636 68.2158C391.533 68.2179 391.431 68.1996 391.335 68.1621C391.239 68.1247 391.151 68.0686 391.077 67.9973C391.003 67.9259 390.943 67.8406 390.902 67.7463C390.861 67.6519 390.839 67.5504 390.836 67.4474V67.416ZM391.04 69.4233H392.216V75.8842H391.04V69.4233Z" fill="#263238"/>
<path d="M394.428 66.8672H395.604V75.9156H394.428V66.8672Z" fill="#263238"/>
<path d="M403.664 73.0301H398.426C398.486 73.5832 398.754 74.0926 399.177 74.4541C399.6 74.8156 400.145 75.0018 400.7 74.9747C401.049 74.9857 401.397 74.9214 401.719 74.7861C402.041 74.6508 402.33 74.4477 402.566 74.1906L403.209 74.9433C402.894 75.2999 402.501 75.5798 402.06 75.7618C401.62 75.9439 401.144 76.0233 400.669 75.994C400.218 76.0269 399.765 75.9652 399.339 75.8128C398.914 75.6605 398.524 75.4209 398.197 75.1094C397.869 74.7978 397.61 74.4213 397.436 74.0038C397.262 73.5864 397.178 73.1372 397.188 72.6851C397.166 72.2508 397.234 71.8167 397.389 71.4103C397.544 71.004 397.781 70.6342 398.086 70.3245C398.392 70.0148 398.758 69.772 399.162 69.6115C399.566 69.4509 399.999 69.3762 400.434 69.392C400.862 69.3912 401.286 69.4781 401.679 69.6474C402.072 69.8166 402.427 70.0646 402.721 70.3761C403.015 70.6875 403.242 71.0559 403.388 71.4584C403.534 71.8609 403.596 72.2891 403.57 72.7165C403.608 72.8191 403.639 72.9238 403.664 73.0301ZM398.426 72.1833H402.566C402.523 71.669 402.284 71.1909 401.899 70.8469C401.514 70.5029 401.012 70.319 400.496 70.3329C399.971 70.3116 399.458 70.4992 399.07 70.8547C398.682 71.2102 398.451 71.7048 398.426 72.2304V72.1833Z" fill="#263238"/>
<path d="M417.37 243.569H334.837V248.462H417.37V243.569Z" fill="#68D668"/>
<path d="M450.459 256.381C450.459 256.617 418.311 256.805 378.652 256.805C338.993 256.805 306.829 256.617 306.829 256.381C306.829 256.146 338.977 255.974 378.652 255.974C418.327 255.974 450.459 256.162 450.459 256.381Z" fill="#263238"/>
<path d="M304.022 331.889C317.533 331.889 328.486 320.936 328.486 307.425C328.486 293.915 317.533 282.962 304.022 282.962C290.511 282.962 279.559 293.915 279.559 307.425C279.559 320.936 290.511 331.889 304.022 331.889Z" fill="#68D668"/>
<path d="M375.578 331.889C389.089 331.889 400.042 320.936 400.042 307.425C400.042 293.915 389.089 282.962 375.578 282.962C362.067 282.962 351.115 293.915 351.115 307.425C351.115 320.936 362.067 331.889 375.578 331.889Z" fill="#68D668"/>
<path d="M447.134 331.889C460.645 331.889 471.598 320.936 471.598 307.425C471.598 293.915 460.645 282.962 447.134 282.962C433.623 282.962 422.67 293.915 422.67 307.425C422.67 320.936 433.623 331.889 447.134 331.889Z" fill="#68D668"/>
<path d="M334.617 342.756C334.617 342.976 320.912 343.164 304.022 343.164C287.133 343.164 273.443 342.976 273.443 342.756C273.443 342.537 287.133 342.349 304.022 342.349C320.912 342.349 334.617 342.474 334.617 342.756Z" fill="#263238"/>
<path d="M402.174 342.756C402.174 342.976 390.272 343.164 375.515 343.164C360.759 343.164 348.856 342.976 348.856 342.756C348.856 342.537 360.759 342.349 375.515 342.349C390.272 342.349 402.174 342.474 402.174 342.756Z" fill="#263238"/>
<path d="M471.613 342.756C471.613 342.976 459.711 343.164 444.954 343.164C430.198 343.164 418.374 342.976 418.374 342.756C418.374 342.537 430.276 342.349 444.954 342.349C459.632 342.349 471.613 342.474 471.613 342.756Z" fill="#263238"/>
<path d="M474.922 426.842C474.922 426.842 474.922 426.481 474.922 425.807C474.922 425.133 474.922 424.129 474.922 422.827C474.922 420.193 474.922 416.319 474.922 411.301C474.922 401.234 474.844 386.602 474.781 368.129L475.032 368.38L276.36 368.537L276.767 368.129V426.842L276.36 426.45L418.327 426.622L459.946 426.732H471.143H474.044H475.048H474.091H471.111H460.009L418.468 426.858L276.234 427.03H275.842V426.638C275.842 407.945 275.842 388.202 275.842 367.926V367.518H276.266L474.938 367.659H475.204V367.926C475.204 386.461 475.095 401.155 475.063 411.239C475.063 416.241 475.063 420.099 475.063 422.718C475.063 424.003 475.063 424.976 475.063 425.666C475.063 426.356 474.922 426.842 474.922 426.842Z" fill="#263238"/>
<path d="M461.169 386.822C461.169 387.042 422.984 387.23 375.86 387.23C328.737 387.23 290.552 387.042 290.552 386.822C290.552 386.603 328.737 386.415 375.86 386.415C422.984 386.415 461.169 386.665 461.169 386.822Z" fill="#263238"/>
<path d="M461.169 398.442C461.169 398.678 422.984 398.85 375.86 398.85C328.737 398.85 290.552 398.678 290.552 398.442C290.552 398.207 328.737 398.035 375.86 398.035C422.984 398.035 461.169 398.223 461.169 398.442Z" fill="#263238"/>
<path d="M461.169 410.078C461.169 410.298 422.984 410.486 375.86 410.486C328.737 410.486 290.552 410.298 290.552 410.078C290.552 409.859 328.737 409.67 375.86 409.67C422.984 409.67 461.169 409.859 461.169 410.078Z" fill="#263238"/>
<path d="M474.922 500.515C474.922 500.515 474.922 500.17 474.922 499.496C474.922 498.821 474.922 497.802 474.922 496.501C474.922 493.866 474.922 489.993 474.922 484.974C474.922 474.922 474.844 460.276 474.781 441.803L475.032 442.069L276.36 442.21L276.767 441.803V500.515L276.36 500.123L418.327 500.311L459.946 500.421H471.143H474.044H475.048C475.048 500.421 474.734 500.421 474.091 500.421H471.237H460.134L418.593 500.531L276.36 500.719H275.968V500.311C275.968 481.619 275.968 461.891 275.968 441.599V441.191H276.391L475.063 441.348H475.33V441.599C475.33 460.134 475.22 474.844 475.189 484.927C475.189 489.93 475.189 493.772 475.189 496.406C475.189 497.677 475.189 498.665 475.189 499.339C475.189 500.013 474.922 500.515 474.922 500.515Z" fill="#263238"/>
<path d="M461.169 460.495C461.169 460.73 422.984 460.903 375.86 460.903C328.737 460.903 290.552 460.73 290.552 460.495C290.552 460.26 328.737 460.087 375.86 460.087C422.984 460.087 461.169 460.276 461.169 460.495Z" fill="#263238"/>
<path d="M461.169 472.131C461.169 472.35 422.984 472.539 375.86 472.539C328.737 472.539 290.552 472.35 290.552 472.131C290.552 471.911 328.737 471.723 375.86 471.723C422.984 471.723 461.169 471.896 461.169 472.131Z" fill="#263238"/>
<path d="M461.169 483.751C461.169 483.986 422.984 484.159 375.86 484.159C328.737 484.159 290.552 483.986 290.552 483.751C290.552 483.516 328.737 483.344 375.86 483.344C422.984 483.344 461.169 483.532 461.169 483.751Z" fill="#263238"/>
<path d="M278.916 75.931H279.214H280.045H283.087L282.993 76.0251C282.993 75.3508 282.993 74.6138 282.993 73.814C282.993 73.4063 282.993 73.0142 282.993 72.5438C283.039 72.2981 283.163 72.0738 283.347 71.9043C283.53 71.7347 283.764 71.629 284.012 71.6029C284.514 71.6029 284.938 71.6029 285.471 71.6029C285.751 71.6476 286.005 71.7906 286.189 72.0061C286.373 72.2216 286.474 72.4957 286.474 72.779C286.474 73.7983 286.474 74.8804 286.474 75.9153L286.333 75.7742H290.175L290.018 75.9153C290.018 74.3472 290.018 72.779 290.018 71.1324C290.018 70.7247 290.018 70.317 290.018 69.9092C290.002 69.7299 289.945 69.5566 289.853 69.4019C289.761 69.2473 289.635 69.1152 289.485 69.0154L287.792 67.2747L286.223 65.7065L285.439 64.9381C285.173 64.6715 284.969 64.4049 284.655 64.3422C284.505 64.3023 284.348 64.297 284.196 64.3269C284.044 64.3568 283.901 64.421 283.777 64.5147C283.542 64.7029 283.291 64.9852 283.056 65.2204C282.821 65.4556 282.131 66.1613 281.676 66.6004C280.813 67.5099 279.904 68.3254 279.261 69.1095C279.067 69.5585 278.996 70.0512 279.057 70.5365V71.8851C279.057 72.7163 279.057 73.4533 279.057 74.0649C279.057 74.6765 279.057 75.0842 279.057 75.4606C279.072 75.6275 279.072 75.7955 279.057 75.9624C279.057 75.9624 279.057 75.8056 279.057 75.4919C279.057 75.1783 279.057 74.6765 279.057 74.1276C279.057 73.5788 279.057 72.7633 279.057 71.9322C279.057 71.4931 279.057 71.0383 279.057 70.5522V69.7995C279.057 69.518 279.133 69.2418 279.276 68.9997C279.982 68.1215 280.845 67.4315 281.707 66.4279L283.071 65.0322C283.322 64.7813 283.526 64.5461 283.808 64.2952C283.967 64.1799 284.149 64.1005 284.341 64.0626C284.533 64.0247 284.731 64.0291 284.922 64.0756C285.285 64.2068 285.604 64.4345 285.847 64.7343L286.631 65.5027L288.199 67.0708L289.877 68.639C290.038 68.7772 290.18 68.9353 290.301 69.1095C290.431 69.2989 290.502 69.5227 290.505 69.7524C290.505 70.1602 290.505 70.5679 290.505 70.9756C290.505 72.5438 290.505 74.206 290.505 75.7585V75.8997H290.363H286.521H286.223V75.7585C286.223 74.6451 286.223 73.5631 286.223 72.6222C286.227 72.3998 286.152 72.1833 286.011 72.0111C285.871 71.8389 285.674 71.722 285.455 71.6813H284.059C283.858 71.701 283.669 71.7848 283.519 71.9203C283.37 72.0559 283.268 72.236 283.228 72.434C283.228 72.8104 283.228 73.2651 283.228 73.6572V75.9467H278.979L278.916 75.931Z" fill="#263238"/>
<path d="M432.96 179.376C440.7 146.008 419.925 112.684 386.558 104.944C353.19 97.2035 319.866 117.978 312.126 151.346C304.385 184.713 325.16 218.038 358.528 225.778C391.895 233.518 425.22 212.743 432.96 179.376Z" fill="#E0E0E0"/>
<path d="M422.2 171.966C423.632 170.297 424.57 168.261 424.907 166.087C425.244 163.914 424.967 161.69 424.108 159.665C423.249 157.64 421.842 155.896 420.044 154.628C418.247 153.36 416.131 152.619 413.936 152.49C414.66 150.442 414.839 148.241 414.458 146.103C414.076 143.965 413.146 141.963 411.758 140.292C410.37 138.622 408.573 137.34 406.541 136.572C404.509 135.805 402.313 135.578 400.167 135.914C400.024 133.756 399.366 131.664 398.249 129.812C397.132 127.96 395.588 126.403 393.746 125.27C391.903 124.137 389.817 123.461 387.66 123.3C385.503 123.138 383.34 123.495 381.349 124.341C380.07 122.785 378.449 121.546 376.611 120.721C374.773 119.896 372.77 119.508 370.757 119.587C368.745 119.666 366.778 120.21 365.011 121.176C363.243 122.143 361.724 123.505 360.571 125.156L357.309 125.329C354.48 125.437 351.707 126.146 349.174 127.409C346.64 128.671 344.404 130.459 342.615 132.652C342.43 132.903 342.22 133.134 341.988 133.342C338.851 136.275 335.558 139.411 334.445 143.567C333.206 148.177 334.853 153.477 332.516 157.68C331.607 159.327 330.117 160.66 329.505 162.385C328.329 165.756 330.603 169.394 330.336 172.954C330.07 176.514 326.933 180.011 327.31 183.775C327.578 185.119 328.12 186.393 328.902 187.518C329.685 188.643 330.691 189.595 331.857 190.314C334.195 191.744 336.377 193.415 338.365 195.301C339.808 196.869 340.749 198.986 342.16 200.664C344.267 202.954 347.163 204.36 350.265 204.598C353.368 204.837 356.445 203.891 358.877 201.95C360.539 203.214 362.48 204.061 364.538 204.421C366.595 204.782 368.708 204.644 370.701 204.02C374.675 202.748 378.415 200.836 381.772 198.359C382.52 199.382 383.512 200.201 384.659 200.741C385.805 201.28 387.069 201.523 388.334 201.446C389.598 201.37 390.824 200.977 391.897 200.303C392.97 199.629 393.856 198.696 394.475 197.59C395.353 200.335 398.615 201.73 401.484 201.448C404.314 200.932 406.993 199.79 409.325 198.108C413.936 195.269 419.079 191.521 419.205 186.111C419.283 182.802 417.37 179.384 418.625 176.326C419.579 174.693 420.786 173.222 422.2 171.966Z" fill="#263238"/>
<path d="M391.134 151.439C390.099 148.616 390.554 145.48 390.162 142.5C389.315 135.914 384.187 130.362 378.009 127.947C371.688 125.732 364.796 125.771 358.501 128.057C353.739 129.486 349.464 132.199 346.143 135.898C344.045 138.431 342.584 141.431 341.883 144.645C341.181 147.859 341.261 151.194 342.113 154.371L375.766 149.871C378.739 152.684 382.15 154.993 385.865 156.708C386.96 157.206 388.165 157.412 389.362 157.304C389.958 157.239 390.522 157.006 390.989 156.63C391.456 156.255 391.806 155.754 391.997 155.187C392.089 153.879 391.788 152.574 391.134 151.439Z" fill="#263238"/>
<path d="M386.916 143.896L357.67 137.325C348.339 136.573 342.443 148.193 342.098 157.555C341.706 167.952 341.659 180.654 343.086 188.354C345.955 203.863 357.952 205.525 357.952 205.525C357.952 205.525 357.952 216.126 358.218 221.772C368.804 226.805 379.687 226.084 390.789 221.129L391.95 149.338C391.95 147.963 391.432 146.64 390.499 145.631C389.565 144.622 388.286 144.003 386.916 143.896Z" fill="#B78876"/>
<path d="M348.166 167.199C348.179 167.718 348.391 168.212 348.759 168.577C349.128 168.943 349.623 169.151 350.142 169.159C350.397 169.172 350.652 169.134 350.891 169.047C351.131 168.961 351.352 168.828 351.54 168.656C351.728 168.484 351.88 168.276 351.987 168.045C352.095 167.814 352.155 167.563 352.165 167.309C352.153 166.79 351.941 166.296 351.572 165.93C351.204 165.565 350.708 165.356 350.189 165.348C349.934 165.334 349.679 165.37 349.438 165.456C349.197 165.541 348.976 165.674 348.787 165.847C348.599 166.019 348.447 166.228 348.34 166.46C348.233 166.692 348.174 166.943 348.166 167.199Z" fill="#263238"/>
<path d="M345.014 164.063C345.281 164.313 346.755 163.169 348.903 163.106C351.052 163.043 352.651 164.094 352.887 163.827C353.122 163.561 352.73 163.247 352.04 162.761C351.1 162.147 349.995 161.836 348.874 161.87C347.752 161.904 346.668 162.28 345.767 162.949C345.108 163.482 344.889 163.984 345.014 164.063Z" fill="#263238"/>
<path d="M368.537 167.199C368.545 167.719 368.757 168.215 369.126 168.581C369.495 168.948 369.993 169.155 370.513 169.159C370.767 169.174 371.022 169.137 371.262 169.052C371.502 168.966 371.722 168.833 371.909 168.66C372.097 168.487 372.247 168.279 372.352 168.046C372.457 167.814 372.514 167.563 372.52 167.309C372.512 166.789 372.301 166.292 371.932 165.926C371.562 165.56 371.064 165.352 370.544 165.348C370.29 165.334 370.035 165.37 369.795 165.456C369.555 165.542 369.335 165.675 369.148 165.848C368.961 166.02 368.81 166.229 368.705 166.461C368.6 166.693 368.543 166.944 368.537 167.199Z" fill="#263238"/>
<path d="M366.2 163.984C366.451 164.235 367.941 163.075 370.09 163.028C372.238 162.981 373.838 164.016 374.057 163.733C374.277 163.451 373.916 163.153 373.21 162.683C372.282 162.068 371.187 161.756 370.074 161.789C368.938 161.796 367.836 162.176 366.938 162.871C366.2 163.326 366.028 163.812 366.2 163.984Z" fill="#263238"/>
<path d="M358.767 180.058C357.625 179.724 356.444 179.539 355.255 179.509C354.706 179.509 354.188 179.384 354.094 179.007C354.04 178.465 354.149 177.919 354.408 177.439C354.894 176.091 355.396 174.679 355.976 173.221C357.384 169.657 358.506 165.986 359.332 162.244C357.632 165.698 356.216 169.286 355.098 172.97L353.655 177.204C353.321 177.874 353.237 178.642 353.42 179.368C353.505 179.56 353.633 179.73 353.793 179.866C353.953 180.002 354.142 180.1 354.345 180.152C354.648 180.226 354.959 180.258 355.27 180.246C356.439 180.331 357.614 180.267 358.767 180.058Z" fill="#263238"/>
<path d="M357.952 205.51C365.284 205.434 372.45 203.322 378.652 199.409C378.652 199.409 373.681 210.387 358.062 209.273L357.952 205.51Z" fill="#AA6550"/>
<path d="M359.818 185.202C360.207 184.67 360.725 184.247 361.323 183.973C361.922 183.698 362.58 183.582 363.237 183.634C363.712 183.663 364.176 183.788 364.602 184.001C365.027 184.214 365.406 184.51 365.714 184.873C366.015 185.221 366.199 185.655 366.241 186.113C366.283 186.571 366.181 187.031 365.95 187.429C365.616 187.824 365.173 188.111 364.676 188.254C364.179 188.396 363.65 188.387 363.158 188.228C362.135 187.89 361.188 187.358 360.367 186.66C360.124 186.488 359.912 186.276 359.74 186.033C359.659 185.915 359.615 185.776 359.615 185.633C359.615 185.49 359.659 185.351 359.74 185.233" fill="#AA6550"/>
<path d="M365.134 181.375C364.773 181.375 364.836 183.696 362.876 185.406C360.916 187.115 358.438 186.974 358.438 187.24C358.438 187.507 359.003 187.679 360.006 187.679C361.37 187.664 362.686 187.17 363.723 186.284C364.716 185.428 365.335 184.218 365.448 182.912C365.557 181.924 365.291 181.36 365.134 181.375Z" fill="#263238"/>
<path d="M365.62 157.429C365.855 158.01 367.988 157.68 370.513 157.915C373.038 158.151 375.092 158.794 375.421 158.26C375.562 158.01 375.202 157.461 374.355 156.912C373.244 156.244 371.993 155.841 370.701 155.736C369.405 155.616 368.1 155.804 366.89 156.285C365.981 156.692 365.526 157.163 365.62 157.429Z" fill="#263238"/>
<path d="M345.406 154.653C345.798 155.14 347.257 154.654 349.045 154.512C350.832 154.371 352.338 154.763 352.667 154.246C352.808 153.995 352.557 153.509 351.883 153.07C350.998 152.517 349.96 152.259 348.919 152.333C347.871 152.384 346.864 152.757 346.034 153.399C345.422 153.916 345.234 154.418 345.406 154.653Z" fill="#263238"/>
<path d="M396.576 146.97C393.644 138 380.518 125.658 371.109 126.379L356.148 135.506C356.665 138.058 357.86 140.424 359.606 142.356C361.353 144.287 363.587 145.713 366.075 146.483C368.741 147.283 371.94 147.471 373.524 149.745C375.108 152.019 374.245 155.485 375.766 157.868C377.868 161.193 383.607 161.005 385.175 164.596C385.865 166.164 385.52 168.046 386.242 169.614C387.214 171.684 392.514 174.318 394.679 173.581C396.843 172.844 396.827 169.159 397.533 167.215C398.41 165.008 398.504 162.567 397.799 160.299C396.78 155.955 397.972 151.251 396.576 146.97Z" fill="#263238"/>
<path d="M394.631 169.818C394.553 169.818 394.867 169.018 395.102 167.56C395.397 165.495 395.231 163.39 394.616 161.397C393.731 158.441 391.839 155.889 389.268 154.183C387.68 153.265 386.035 152.448 384.344 151.737C382.449 150.962 380.736 149.803 379.31 148.334C378.109 146.703 377.129 144.921 376.394 143.033C375.369 140.817 373.748 138.93 371.713 137.581C369.678 136.232 367.308 135.476 364.867 135.396C362.782 135.344 360.712 135.767 358.814 136.635C357.45 137.231 356.791 137.749 356.744 137.686C356.697 137.623 356.885 137.513 357.199 137.278C357.662 136.921 358.155 136.606 358.673 136.337C360.581 135.321 362.706 134.782 364.867 134.769C368.117 134.783 371.252 135.969 373.696 138.109C375.133 139.365 376.296 140.902 377.115 142.626C377.82 144.45 378.77 146.169 379.938 147.738C381.262 149.133 382.865 150.234 384.642 150.968C386.362 151.698 388.028 152.547 389.629 153.509C391.862 155.041 393.597 157.195 394.617 159.704C395.638 162.213 395.899 164.966 395.369 167.622C395.249 168.197 395.075 168.758 394.851 169.3C394.757 169.645 394.663 169.833 394.631 169.818Z" fill="#455A64"/>
<path d="M393.204 153.148C393.126 153.148 392.859 152.599 392.044 151.8C390.832 150.726 389.441 149.871 387.935 149.275C386.863 148.808 385.816 148.285 384.799 147.707C383.657 147.078 382.662 146.211 381.882 145.166C380.204 142.814 379.671 139.678 377.444 137.513C375.358 135.479 372.666 134.18 369.776 133.813C367.394 133.526 364.979 133.717 362.672 134.377C360.532 135.048 358.437 135.855 356.399 136.792C356.867 136.378 357.396 136.04 357.968 135.788C359.412 134.965 360.942 134.303 362.531 133.813C364.904 133.053 367.41 132.802 369.886 133.076C372.962 133.412 375.835 134.777 378.04 136.949C380.455 139.333 380.988 142.594 382.509 144.79C384.052 146.604 386.018 148.01 388.233 148.883C389.772 149.541 391.164 150.501 392.326 151.705C392.633 152.044 392.892 152.424 393.095 152.835C393.173 153.007 393.236 153.132 393.204 153.148Z" fill="#455A64"/>
<path d="M388.155 175.51C388.155 174.35 389.394 171.59 390.539 171.386C393.581 170.822 399.101 170.931 399.352 178.694C399.697 189.295 388.97 187.46 388.955 187.162C388.939 186.864 388.312 179.525 388.155 175.51Z" fill="#B78876"/>
<path d="M392.122 183.022C392.122 183.022 392.311 183.147 392.624 183.288C393.068 183.462 393.561 183.462 394.004 183.288C394.678 182.833 395.217 182.207 395.567 181.474C395.917 180.74 396.065 179.927 395.996 179.117C395.998 178.203 395.788 177.302 395.384 176.482C395.277 176.153 395.091 175.855 394.842 175.615C394.594 175.374 394.29 175.198 393.957 175.102C393.741 175.058 393.517 175.088 393.32 175.187C393.123 175.287 392.967 175.451 392.875 175.651C392.75 175.949 392.875 176.153 392.765 176.185C392.656 176.216 392.53 176.012 392.609 175.573C392.651 175.303 392.791 175.058 393.001 174.883C393.285 174.66 393.644 174.554 394.004 174.585C394.443 174.654 394.856 174.834 395.205 175.108C395.554 175.383 395.826 175.743 395.996 176.153C396.481 177.054 396.734 178.062 396.733 179.086C396.733 181.234 395.714 183.273 394.192 183.79C393.909 183.883 393.609 183.911 393.313 183.873C393.017 183.835 392.734 183.732 392.483 183.571C392.154 183.288 392.091 183.053 392.122 183.022Z" fill="#AA6550"/>
<path d="M396.764 185.641C396.921 185.421 397.282 185.312 397.799 185.531C398.141 185.717 398.44 185.971 398.678 186.279C398.916 186.587 399.086 186.941 399.179 187.319C399.354 187.943 399.367 188.6 399.219 189.231C399.071 189.862 398.766 190.445 398.332 190.926C397.794 191.511 397.116 191.95 396.362 192.203C395.608 192.455 394.802 192.512 394.02 192.368C393.245 192.209 392.522 191.857 391.919 191.344C391.316 190.832 390.852 190.175 390.57 189.436C390.344 188.876 390.239 188.275 390.264 187.672C390.288 187.069 390.441 186.478 390.711 185.939C390.89 185.567 391.154 185.241 391.48 184.988C391.807 184.735 392.188 184.561 392.593 184.48C393.204 184.48 393.502 184.7 393.534 184.967C393.528 185.263 393.486 185.558 393.408 185.845C393.363 186.173 393.363 186.505 393.408 186.833C393.514 187.198 393.69 187.539 393.926 187.836C394.122 188.099 394.405 188.283 394.726 188.354C395.038 188.398 395.357 188.36 395.651 188.244C395.793 188.187 395.921 188.1 396.027 187.989C396.132 187.878 396.213 187.746 396.262 187.601C396.654 186.895 396.466 186.111 396.764 185.641Z" fill="#E0E0E0"/>
<path d="M344.34 220.611L358.124 218.212L390.852 217.036L405.671 217.773C405.671 217.773 377.178 237.532 344.34 220.611Z" fill="#68D668"/>
<path d="M434.542 165.348C434.542 165.348 434.542 165.003 434.447 164.345C434.353 163.686 434.353 162.667 434.259 161.397C434.259 160.754 434.259 160.032 434.134 159.233C434.008 158.433 433.883 157.57 433.742 156.645C433.601 155.72 433.428 154.701 433.256 153.618C433.051 152.481 432.784 151.355 432.456 150.247C431.008 144.449 428.693 138.903 425.587 133.797C421.534 127.005 416.21 121.057 409.906 116.28L407.24 114.289C406.299 113.677 405.311 113.112 404.339 112.501C403.366 111.889 402.394 111.246 401.328 110.76L398.113 109.192L396.545 108.408L394.82 107.796L391.291 106.573C390.115 106.181 388.876 105.93 387.653 105.601C386.429 105.238 385.182 104.955 383.921 104.754C381.332 104.269 378.712 103.97 376.08 103.86C374.747 103.86 373.414 103.672 372.065 103.703L367.973 103.907C367.298 103.907 366.608 103.907 365.918 104.048L363.864 104.362C362.484 104.582 361.088 104.754 359.708 105.036C354.057 106.317 348.592 108.315 343.446 110.98C342.145 111.685 340.906 112.548 339.62 113.269C338.993 113.677 338.318 114.022 337.707 114.477L335.903 115.841C333.436 117.656 331.099 119.642 328.909 121.785C326.739 124.025 324.722 126.409 322.872 128.92L321.445 130.817L320.206 132.84L318.967 134.879C318.54 135.553 318.157 136.255 317.822 136.98C317.132 138.423 316.427 139.881 315.737 141.34C315.047 142.798 314.623 144.366 314.059 145.903C309.814 158.514 309.814 172.167 314.059 184.778C314.607 186.346 315.172 187.914 315.721 189.342C316.27 190.769 317.117 192.258 317.822 193.701L318.34 194.767L318.967 195.802L320.206 197.841L321.445 199.864L322.856 201.761C324.707 204.281 326.73 206.67 328.909 208.912C331.105 211.042 333.436 213.027 335.888 214.856L337.707 216.22C338.323 216.65 338.962 217.048 339.62 217.412C340.906 218.18 342.145 218.98 343.446 219.717C346.049 221.064 348.737 222.243 351.491 223.245C354.175 224.227 356.92 225.034 359.708 225.66C361.088 225.943 362.484 226.1 363.864 226.335L365.918 226.648C366.608 226.743 367.298 226.648 367.973 226.774L372.065 226.993C373.414 226.993 374.747 226.884 376.08 226.837C378.711 226.719 381.331 226.42 383.921 225.943C385.179 225.727 386.425 225.444 387.653 225.096C388.876 224.767 390.115 224.516 391.291 224.124L394.773 222.853L396.482 222.226L398.05 221.458L401.186 219.89C402.253 219.403 403.194 218.713 404.197 218.149C405.201 217.584 406.158 216.988 407.098 216.377L409.764 214.385C416.069 209.609 421.394 203.661 425.446 196.869C428.546 191.76 430.862 186.215 432.315 180.419C432.643 179.305 432.91 178.174 433.115 177.031C433.287 175.965 433.46 174.961 433.601 174.02C433.742 173.08 433.914 172.217 433.993 171.433C434.071 170.649 434.087 169.865 434.118 169.269C434.212 167.983 434.275 167.011 434.306 166.321C434.338 165.631 434.4 165.317 434.4 165.317C434.4 165.317 434.4 165.662 434.4 166.321C434.4 166.979 434.4 167.999 434.291 169.269C434.291 169.928 434.291 170.649 434.197 171.449C434.102 172.248 433.977 173.111 433.836 174.052C433.695 174.993 433.554 176.012 433.397 177.094C433.204 178.243 432.942 179.379 432.613 180.497C431.227 186.35 428.941 191.952 425.838 197.104C421.798 203.968 416.474 209.99 410.156 214.84L407.459 216.863C406.518 217.49 405.53 218.055 404.542 218.666C403.554 219.278 402.582 219.937 401.5 220.438L398.27 222.007L396.701 222.791L394.961 223.418L391.464 224.704C390.272 225.112 389.033 225.363 387.794 225.708C386.552 226.067 385.29 226.355 384.015 226.57C381.425 227.059 378.806 227.374 376.174 227.511C374.825 227.511 373.461 227.683 372.097 227.668L367.973 227.464C367.283 227.464 366.577 227.464 365.887 227.338L363.801 227.025C362.421 226.79 361.01 226.633 359.614 226.35C353.886 225.09 348.342 223.103 343.117 220.438C341.8 219.717 340.545 218.87 339.228 218.118C338.585 217.71 337.911 217.365 337.299 216.894L335.464 215.53C332.969 213.684 330.601 211.672 328.376 209.508C326.171 207.24 324.123 204.824 322.244 202.279L320.817 200.366L319.547 198.311L318.293 196.242L317.665 195.207L317.132 194.109L315.015 189.718C314.451 188.15 313.886 186.582 313.306 185.092C309.009 172.307 309.009 158.468 313.306 145.684L315 140.979L317.117 136.588C317.449 135.846 317.843 135.133 318.293 134.455L319.547 132.385L320.802 130.331L322.244 128.418C325.883 123.306 330.345 118.833 335.449 115.182L337.283 113.802C337.895 113.348 338.585 113.003 339.212 112.595C340.529 111.811 341.784 111.027 343.101 110.274C345.731 108.894 348.456 107.704 351.256 106.714C353.981 105.755 356.769 104.979 359.598 104.393C360.994 104.111 362.405 103.939 363.785 103.719L365.871 103.405C366.561 103.311 367.267 103.311 367.957 103.264L372.081 103.076C373.445 103.076 374.81 103.186 376.143 103.233C378.774 103.37 381.394 103.684 383.984 104.174C385.262 104.374 386.524 104.662 387.763 105.036C388.986 105.366 390.241 105.632 391.432 106.024L394.929 107.31L396.654 107.953L398.301 108.737L401.531 110.305C402.614 110.792 403.57 111.497 404.574 112.062C405.577 112.626 406.55 113.254 407.491 113.881L410.172 115.888C416.525 120.73 421.877 126.758 425.932 133.64C429.029 138.795 431.314 144.396 432.707 150.247C433.04 151.364 433.301 152.5 433.491 153.65C433.648 154.732 433.805 155.736 433.93 156.692C434.055 157.649 434.228 158.495 434.291 159.295C434.353 160.095 434.291 160.863 434.385 161.459C434.385 162.745 434.463 163.718 434.495 164.423C434.526 165.129 434.542 165.348 434.542 165.348Z" fill="#263238"/>
<path d="M629.293 560.356C625.297 556.507 620.396 553.726 615.042 552.27C609.688 550.814 604.053 550.73 598.658 552.026C593.263 553.321 588.281 555.954 584.171 559.682C580.062 563.41 576.957 568.113 575.144 573.356L579.065 588.521C580.554 583.361 583.769 578.359 588.678 576.242C593.586 574.125 599.749 575.285 605.002 577.198C610.256 579.112 615.415 581.652 620.982 581.997C626.549 582.342 632.869 579.692 634.531 574.36C636.099 569.358 633.073 564.01 629.293 560.356Z" fill="#FF725E"/>
<g opacity="0.3">
<path d="M629.293 560.356C625.297 556.507 620.396 553.727 615.042 552.271C609.688 550.815 604.053 550.73 598.658 552.026C593.263 553.321 588.281 555.954 584.171 559.682C580.062 563.41 576.957 568.113 575.144 573.357L579.065 588.521C580.554 583.362 583.769 578.359 588.678 576.242C593.586 574.125 599.749 575.286 605.002 577.199C610.256 579.112 615.415 581.652 620.982 581.997C626.549 582.342 632.869 579.692 634.531 574.36C636.099 569.358 633.073 564.01 629.293 560.356Z" fill="#68D668"/>
</g>
<path d="M534.873 610.914C526.688 603.073 527.033 589.603 531.173 579.08C535.313 568.558 544.173 560.466 554.115 555.15C563.829 550.047 574.573 547.211 585.541 546.855C596.508 546.499 607.413 548.633 617.438 553.096C612.531 553.308 607.751 554.72 603.516 557.207C599.281 559.695 595.721 563.183 593.147 567.366C588.662 574.815 587.658 583.848 583.957 591.72C579.777 600.584 572.362 607.512 563.234 611.082C554.106 614.651 543.958 614.591 534.873 610.914Z" fill="#68D668"/>
<path d="M530.937 564.214C521.873 553.519 520.666 536.348 521.999 522.406C523.332 508.465 526.562 494.399 524.367 480.567C523.065 472.366 519.882 464.525 518.815 456.292C517.749 448.059 519.254 438.744 525.637 433.428C532.976 427.328 544.455 428.724 552.139 434.51C559.823 440.297 564.198 449.251 567.429 458.237C574.517 477.964 577.12 499.84 571.302 519.991C565.484 540.142 551.794 558.129 531.721 564.214" fill="#68D668"/>
<path d="M526.578 651.969C526.554 651.557 526.554 651.143 526.578 650.73C526.578 649.931 526.578 648.739 526.656 647.202C526.766 644.066 527.064 639.69 527.754 634.249C528.554 627.863 529.717 621.528 531.235 615.274C533.106 607.595 536.019 600.209 539.892 593.319C543.753 586.428 548.497 580.07 554.005 574.407C558.488 569.779 563.457 565.646 568.824 562.081C571.083 560.513 573.278 559.321 575.097 558.224C576.916 557.126 578.72 556.373 580.1 555.715L583.361 554.335C583.735 554.159 584.123 554.017 584.522 553.911C584.167 554.121 583.801 554.309 583.424 554.476L580.288 555.965C578.939 556.671 577.277 557.534 575.364 558.584C573.451 559.635 571.349 560.937 569.091 562.52C557.303 570.577 547.523 581.232 540.503 593.664C532.176 608.233 529.902 623.554 528.24 634.296C527.487 639.722 527.111 644.144 526.907 647.202C526.829 648.676 526.75 649.852 526.703 650.715C526.706 651.136 526.664 651.557 526.578 651.969Z" fill="#263238"/>
<path d="M448.436 522.03C431.672 532.145 431.719 541.35 434.526 550.038C437.333 558.725 447.62 564.763 456.135 561.501C460.965 559.666 464.462 555.479 467.442 551.261C470.421 547.042 473.228 542.542 477.4 539.515C481.571 536.489 487.656 535.344 491.843 538.339" fill="#FF725E"/>
<path d="M497.159 541.178L481.101 535.14L487.499 535.893C489.227 536.071 490.88 536.692 492.297 537.696L497.159 541.178Z" fill="black"/>
<g opacity="0.3">
<path d="M448.436 522.03C431.672 532.145 431.719 541.35 434.526 550.038C437.333 558.726 447.62 564.763 456.135 561.501C460.965 559.666 464.462 555.479 467.442 551.261C470.421 547.043 473.228 542.542 477.4 539.515C480.28 537.387 483.836 536.378 487.405 536.677L448.436 522.03Z" fill="#68D668"/>
</g>
<path d="M435.89 533.117C440.265 527.064 451.101 525.276 457.939 528.334C464.776 531.392 469.778 537.335 474.263 543.326C478.748 549.316 483.108 555.62 489.318 559.792C495.528 563.963 504.2 565.437 510.473 561.266C512.444 559.792 514.095 557.932 515.325 555.8C516.554 553.667 517.336 551.306 517.624 548.862C518.17 543.971 517.84 539.022 516.651 534.246C515.161 527.221 512.746 519.882 507.132 515.428C500.86 510.457 492.156 510.206 484.159 510.473C474.969 510.771 465.654 511.461 457.029 514.644C448.404 517.827 439.622 524.696 435.969 533.133" fill="#68D668"/>
<path d="M512.652 638.546C512.632 638.421 512.632 638.294 512.652 638.169C512.652 637.887 512.652 637.526 512.652 637.087C512.652 636.084 512.574 634.688 512.511 632.932C512.417 629.262 512.26 624.04 512.072 617.626C511.884 611.212 511.602 603.513 511.147 594.95C510.692 586.388 510.034 577.058 508.732 567.288C508.193 562.515 507.265 557.795 505.956 553.174C504.625 548.933 502.909 544.823 500.828 540.895C498.959 537.327 496.793 533.922 494.352 530.718C492.195 527.925 489.825 525.304 487.264 522.877C483.523 519.429 479.296 516.549 474.718 514.331C473.903 513.954 473.15 513.593 472.538 513.327L470.97 512.7L469.967 512.292C469.848 512.253 469.737 512.195 469.637 512.119C469.76 512.14 469.881 512.172 469.998 512.213L471.017 512.543L472.695 513.123C473.354 513.358 474.075 513.703 474.906 514.064C479.571 516.203 483.881 519.043 487.687 522.485C490.298 524.901 492.71 527.523 494.901 530.326C497.392 533.537 499.601 536.958 501.503 540.55C503.627 544.513 505.375 548.666 506.725 552.955C508.048 557.575 508.992 562.295 509.547 567.068C510.849 576.869 511.461 586.247 511.9 594.794C512.339 603.34 512.527 611.024 512.668 617.485C512.809 623.946 512.856 629.184 512.872 632.806V636.962C512.872 637.401 512.872 637.762 512.872 638.044C512.826 638.222 512.752 638.391 512.652 638.546Z" fill="#263238"/>
<path d="M518.69 646.12C517.892 643.772 517.279 641.365 516.855 638.922C515.687 632.244 515.429 625.439 516.087 618.693C517.107 608.704 519.248 598.862 522.469 589.352C525.903 578.563 530.577 567.037 534.575 554.633C536.54 548.613 538.142 542.48 539.374 536.269C540.515 530.475 541.337 524.622 541.836 518.737C542.604 508.767 542.782 498.76 542.369 488.769C542.087 480.238 541.632 473.338 541.35 468.555L541.021 463.067C541.021 462.471 541.021 462 541.021 461.64C541 461.478 541 461.315 541.021 461.154C541.06 461.308 541.087 461.465 541.099 461.624C541.099 461.985 541.178 462.455 541.24 463.051C541.35 464.353 541.507 466.187 541.695 468.54C542.071 473.244 542.605 480.207 542.965 488.753C543.453 498.767 543.327 508.801 542.589 518.8C542.133 524.709 541.348 530.588 540.237 536.41C539.009 542.655 537.401 548.819 535.422 554.868C531.423 567.303 526.735 578.814 523.269 589.556C519.984 599.015 517.749 608.807 516.604 618.755C515.915 625.457 516.094 632.219 517.137 638.875C517.545 641.227 517.921 643.046 518.251 644.254C518.392 644.834 518.502 645.304 518.596 645.649L518.69 646.12Z" fill="#263238"/>
<path d="M560.247 653.694H481.54L479.736 638.546H560.247V653.694Z" fill="#455A64"/>
<path d="M489.977 651.969L499.825 697.415H542.589L551.794 651.969H489.977Z" fill="#455A64"/>
<path d="M560.247 653.694C560.247 653.898 542.997 654.024 521.591 653.961C500.185 653.898 482.951 653.679 482.951 653.475C482.951 653.271 500.201 653.145 521.591 653.208C542.981 653.271 560.247 653.49 560.247 653.694Z" fill="#455A64"/>
<path d="M546.729 676.119C544.589 674.518 542.262 673.185 539.798 672.152C537.112 671.097 534.261 670.524 531.376 670.458C527.836 670.467 524.325 671.11 521.011 672.355C517.42 673.579 514.064 674.99 510.802 675.758C507.905 676.386 504.918 676.476 501.989 676.025C500.017 675.74 498.105 675.136 496.328 674.237C495.853 673.976 495.397 673.683 494.963 673.359C494.665 673.139 494.524 673.014 494.54 672.998C494.556 672.983 495.199 673.39 496.453 673.971C498.238 674.765 500.129 675.293 502.067 675.539C504.935 675.899 507.843 675.756 510.661 675.115C513.797 674.331 517.153 672.904 520.776 671.681C524.167 670.402 527.767 669.764 531.392 669.799C534.355 669.889 537.275 670.532 540.001 671.697C541.838 672.453 543.563 673.456 545.129 674.676C545.559 675.006 545.967 675.362 546.352 675.743C546.619 675.962 546.745 676.103 546.729 676.119Z" fill="#263238"/>
<path d="M546.133 679.161C544.072 677.607 541.842 676.292 539.484 675.241C536.898 674.183 534.138 673.614 531.345 673.563C527.925 673.572 524.533 674.182 521.324 675.366C517.859 676.527 514.597 677.875 511.492 678.707C508.743 679.499 505.88 679.822 503.024 679.663C501.092 679.546 499.203 679.039 497.472 678.173C497.008 677.924 496.562 677.641 496.139 677.327C495.857 677.123 495.716 676.997 495.732 676.982C495.747 676.966 496.39 677.358 497.598 677.907C499.325 678.652 501.176 679.067 503.055 679.13C505.845 679.217 508.631 678.852 511.304 678.048C514.346 677.185 517.576 675.821 521.089 674.661C524.378 673.452 527.857 672.846 531.361 672.873C536.18 673.017 540.823 674.717 544.596 677.719C545.007 678.041 545.4 678.387 545.772 678.754C546.023 679.004 546.149 679.146 546.133 679.161Z" fill="white"/>
<path d="M547.513 673.108C545.306 671.447 542.918 670.042 540.393 668.921C537.654 667.735 534.731 667.029 531.753 666.835C528.099 666.761 524.467 667.401 521.058 668.717C517.612 670.077 514.088 671.23 510.504 672.167C507.49 672.694 504.407 672.694 501.393 672.167C499.361 671.849 497.389 671.225 495.544 670.317C495.049 670.065 494.576 669.772 494.132 669.439C493.819 669.203 493.662 669.078 493.677 669.062C493.693 669.047 494.383 669.47 495.669 670.05C497.524 670.832 499.475 671.359 501.471 671.618C504.425 672.05 507.429 671.991 510.363 671.446C513.907 670.465 517.398 669.303 520.823 667.964C524.32 666.613 528.053 665.978 531.8 666.098C536.931 666.512 541.833 668.401 545.913 671.54C546.354 671.88 546.773 672.246 547.168 672.638C547.387 672.951 547.529 673.092 547.513 673.108Z" fill="white"/>
<path d="M560.937 653.757C560.937 653.961 543.232 654.133 521.403 654.133C499.574 654.133 481.853 653.961 481.853 653.757C481.853 653.553 499.558 653.38 521.403 653.38C543.248 653.38 560.937 653.553 560.937 653.757Z" fill="#263238"/>
<path d="M666.537 697.415C666.537 697.635 517.31 697.823 333.284 697.823C149.259 697.823 0 697.635 0 697.415C0 697.196 149.196 697.007 333.284 697.007C517.373 697.007 666.537 697.164 666.537 697.415Z" fill="#263238"/>
<path d="M170.273 678.158L165.552 608.656L203.157 612.185L200.021 679.569L181.532 680.604L170.273 678.158Z" fill="#B78876"/>
<path d="M169.191 674.708V676.778C169.191 676.778 134.942 690.891 134.691 697.462L202.985 696.427L201.667 673.641C191.584 678.534 180.968 679.224 169.191 674.708Z" fill="#68D668"/>
<g opacity="0.6">
<path d="M194.862 681.043C195.518 681.234 196.081 681.658 196.445 682.236C196.809 682.814 196.949 683.506 196.837 684.18C196.673 684.852 196.255 685.435 195.67 685.807C195.085 686.178 194.38 686.308 193.701 686.171C193.002 685.966 192.402 685.511 192.017 684.891C191.633 684.272 191.49 683.533 191.615 682.815C191.861 682.138 192.359 681.583 193.005 681.264C193.651 680.945 194.395 680.889 195.081 681.106" fill="white"/>
</g>
<g opacity="0.6">
<path d="M202.938 696.38L202.624 690.923L137.247 693.902C137.247 693.902 134.22 695.282 134.597 697.415L202.938 696.38Z" fill="white"/>
</g>
<path d="M168.971 676.919C168.971 677.264 170.649 677.389 172.311 678.487C173.973 679.585 174.867 680.918 175.165 680.776C175.463 680.635 174.946 678.722 172.923 677.483C170.9 676.245 168.893 676.621 168.971 676.919Z" fill="#263238"/>
<path d="M161.851 679.992C161.773 680.322 163.231 680.87 164.392 682.266C165.552 683.662 165.882 685.136 166.227 685.12C166.572 685.105 166.744 683.207 165.27 681.498C163.796 679.788 161.851 679.679 161.851 679.992Z" fill="#263238"/>
<path d="M157.915 688.633C158.213 688.633 158.652 687.065 157.774 685.214C156.896 683.364 155.312 682.69 155.187 682.972C155.061 683.254 156.018 684.211 156.755 685.716C157.492 687.222 157.633 688.602 157.915 688.633Z" fill="#263238"/>
<path d="M247.427 631.598L205.212 576.179L238.551 558.412L273.051 616.387L258.185 627.427L247.427 631.598Z" fill="#B78876"/>
<path d="M244.635 629.309L245.765 630.987C245.765 630.987 224.971 661.676 228.311 667.369L284.765 628.901L271.2 610.648C268.368 615.48 264.53 619.647 259.947 622.866C255.363 626.086 250.142 628.283 244.635 629.309Z" fill="#68D668"/>
<g opacity="0.6">
<path d="M269.554 620.464C270.212 620.265 270.921 620.315 271.546 620.604C272.17 620.893 272.667 621.402 272.941 622.033C273.162 622.689 273.123 623.404 272.831 624.032C272.539 624.659 272.017 625.151 271.373 625.404C270.679 625.622 269.929 625.574 269.268 625.27C268.607 624.966 268.083 624.427 267.797 623.758C267.624 623.057 267.73 622.317 268.093 621.693C268.456 621.07 269.047 620.612 269.742 620.417" fill="white"/>
</g>
<g opacity="0.6">
<path d="M284.734 628.823L281.472 624.432L228.593 662.899C228.593 662.899 226.821 665.707 228.311 667.29L284.734 628.823Z" fill="white"/>
</g>
<path d="M245.67 631.3C245.874 631.567 247.333 630.752 249.293 630.72C251.253 630.689 252.759 631.348 252.947 631.065C253.135 630.783 251.63 629.497 249.246 629.497C246.862 629.497 245.451 631.065 245.67 631.3Z" fill="#263238"/>
<path d="M241.421 637.761C241.546 638.075 242.989 637.761 244.777 638.263C246.564 638.765 247.631 639.831 247.913 639.643C248.195 639.455 247.301 637.761 245.137 637.15C242.973 636.538 241.248 637.573 241.421 637.761Z" fill="#263238"/>
<path d="M242.895 647.139C243.177 647.029 242.628 645.398 240.888 644.363C239.147 643.328 237.453 643.611 237.485 643.924C237.516 644.238 238.88 644.504 240.292 645.367C241.703 646.229 242.597 647.296 242.895 647.139Z" fill="#263238"/>
<path d="M182.191 393.095C182.191 393.095 149.573 509.391 151.768 517.749C153.964 526.107 211.908 611.965 213.554 612.498C215.201 613.031 261.007 585.714 261.007 585.714L213.554 507.493C213.554 507.493 239.978 450.929 247.678 425.948C255.377 400.967 256.867 399.681 252.084 376.927C249.183 363.127 236.246 344.654 236.246 344.654L234.16 338.271H180.701L182.191 393.095Z" fill="#263238"/>
<path d="M146.985 338.256L143.112 353.734C136.51 358.438 126.615 380.628 126.066 389.504C125.517 398.379 123.384 434.855 123.321 460.072C123.227 489.302 155.72 662.899 155.72 662.899H214.087L193.56 387.355L188.416 338.256H146.985Z" fill="#263238"/>
<path d="M180.325 373.132C180.314 373.354 180.282 373.574 180.23 373.79C180.136 374.261 180.027 374.904 179.87 375.719C179.525 377.444 179.023 379.922 178.396 383.09C177.031 389.488 174.993 398.772 172.311 410.078C169.63 421.385 166.368 434.965 163.153 450.067C161.585 457.609 160.017 465.56 158.699 473.856C157.266 482.391 156.432 491.016 156.206 499.668C156.065 508.528 156.755 517.294 159.844 525.104C162.76 532.631 166.155 539.964 170.006 547.058C177.282 560.654 184.637 572.478 191.082 582.201C197.527 591.924 203.11 599.529 207.109 604.642C209.148 607.198 210.716 609.174 211.814 610.444L213.084 611.934C213.238 612.096 213.375 612.275 213.491 612.467C211.13 610.043 208.895 607.499 206.795 604.846C202.702 599.749 197.041 592.159 190.533 582.452C184.025 572.745 176.624 560.952 169.285 547.34C165.387 540.256 161.961 532.922 159.029 525.386C155.892 517.545 155.171 508.56 155.328 499.668C155.555 490.978 156.398 482.316 157.853 473.746C159.123 465.435 160.738 457.484 162.353 449.925C165.615 434.824 168.955 421.322 171.684 409.968C174.413 398.615 176.561 389.41 177.957 383.043C178.662 379.906 179.195 377.413 179.525 375.688L179.98 373.79C180.07 373.559 180.185 373.338 180.325 373.132Z" fill="#455A64"/>
<path d="M249.277 379.593C248.644 379.906 247.975 380.143 247.286 380.298C245.437 380.812 243.549 381.169 241.64 381.365C235.296 382.03 228.888 381.051 223.032 378.521C217.177 375.992 212.071 371.997 208.207 366.922C207.021 365.407 205.972 363.791 205.07 362.092C204.707 361.488 204.422 360.84 204.224 360.163C204.365 360.069 205.604 362.829 208.614 366.561C212.522 371.445 217.567 375.295 223.309 377.775C229.05 380.255 235.312 381.288 241.546 380.784C246.376 380.392 249.23 379.42 249.277 379.593Z" fill="#455A64"/>
<path d="M150.106 355.443C150.106 355.443 150.106 355.913 149.839 356.729C149.526 357.871 149.138 358.992 148.679 360.085C145.644 367.392 140.638 373.711 134.22 378.338C133.256 379.036 132.251 379.675 131.209 380.251C130.847 380.502 130.444 380.688 130.017 380.8C130.017 380.69 131.586 379.718 133.875 377.883C139.989 373.083 144.879 366.903 148.146 359.849C149.4 357.152 149.98 355.396 150.106 355.443Z" fill="#455A64"/>
<path d="M244.761 133.311C245.999 131.865 246.809 130.103 247.1 128.223C247.391 126.342 247.152 124.418 246.409 122.666C245.666 120.914 244.448 119.404 242.894 118.307C241.339 117.209 239.51 116.567 237.61 116.453C238.198 114.682 238.325 112.791 237.979 110.958C237.633 109.125 236.825 107.41 235.632 105.975C234.44 104.541 232.901 103.434 231.162 102.76C229.423 102.085 227.54 101.865 225.692 102.12C225.569 100.249 225 98.4351 224.032 96.8298C223.064 95.2245 221.725 93.8746 220.128 92.8933C218.531 91.9119 216.721 91.3277 214.852 91.1895C212.982 91.0512 211.107 91.3631 209.383 92.0989C208.273 90.7579 206.869 89.6912 205.279 88.982C203.69 88.2727 201.958 87.94 200.219 88.0098C198.479 88.0796 196.78 88.5501 195.252 89.3844C193.725 90.2188 192.41 91.3947 191.412 92.8203C189.467 93.1366 187.614 93.8753 185.986 94.9844C184.191 94.671 182.343 94.946 180.717 95.7685C178.716 96.8712 176.888 98.2607 175.291 99.8928C172.578 102.433 169.724 105.146 168.767 108.737C167.685 112.736 169.112 117.315 167.089 120.938C166.105 122.235 165.234 123.615 164.486 125.062C163.467 127.979 165.443 131.115 165.207 134.204C164.972 137.294 162.259 140.305 162.589 143.614C162.82 144.777 163.289 145.88 163.966 146.855C164.644 147.829 165.514 148.652 166.525 149.275C168.547 150.511 170.434 151.957 172.154 153.587C173.409 155.014 174.209 156.723 175.448 158.213C177.263 160.203 179.768 161.427 182.454 161.637C185.139 161.847 187.804 161.026 189.906 159.342C191.344 160.434 193.023 161.166 194.801 161.477C196.58 161.788 198.407 161.669 200.131 161.13C203.569 160.031 206.806 158.379 209.712 156.237C210.362 157.116 211.222 157.818 212.212 158.28C213.203 158.742 214.293 158.949 215.384 158.882C216.475 158.815 217.532 158.476 218.458 157.896C219.385 157.317 220.152 156.515 220.689 155.563C221.185 156.712 222.049 157.663 223.145 158.268C224.241 158.873 225.506 159.096 226.743 158.903C229.211 158.471 231.548 157.484 233.58 156.018C237.563 153.556 242.032 150.325 242.126 145.636C242.126 142.767 240.558 139.803 241.64 137.153C242.471 135.715 243.524 134.418 244.761 133.311Z" fill="#263238"/>
<path d="M155.861 114.618C158.26 111.272 161.329 108.463 164.875 106.37C168.42 104.278 172.363 102.948 176.451 102.465C187.82 100.536 200.46 102.465 209.697 109.365C218.165 115.637 222.869 126.128 224.186 136.635C224.641 140.336 223.528 143.896 222.493 147.471C220.892 151.622 217.928 155.106 214.087 157.351C210.779 159.091 209.383 157.978 206.607 155.516C205.015 153.872 203.776 151.918 202.969 149.776C198.955 141.01 194.36 132.323 187.601 125.438C180.842 118.554 171.606 113.63 161.961 113.928" fill="#006600"/>
<path d="M206.011 131.962C204.851 128.826 205.353 125.329 204.929 121.988C203.973 114.665 198.264 108.471 191.365 105.773C184.321 103.312 176.644 103.357 169.63 105.899C164.327 107.486 159.563 110.503 155.861 114.618C153.523 117.442 151.895 120.785 151.112 124.367C150.329 127.949 150.414 131.666 151.36 135.208L188.871 130.237C192.183 133.371 195.987 135.941 200.131 137.843C201.348 138.414 202.697 138.646 204.035 138.517C204.701 138.447 205.331 138.187 205.852 137.766C206.372 137.346 206.76 136.785 206.968 136.149C207.07 134.689 206.737 133.232 206.011 131.962Z" fill="#263238"/>
<path d="M168.704 116.218L201.291 123.572C202.815 123.69 204.24 124.376 205.282 125.494C206.325 126.612 206.91 128.081 206.921 129.61L205.619 200.35C205.553 205.174 203.9 209.842 200.915 213.633L197.778 217.616C196.121 219.724 193.965 221.385 191.505 222.451C189.045 223.516 186.358 223.952 183.687 223.719C181.016 223.485 178.446 222.59 176.208 221.114C173.97 219.637 172.135 217.627 170.868 215.264C170.553 214.673 170.311 214.047 170.147 213.397C170.016 212.882 169.921 212.358 169.865 211.829C169.345 208.284 169.198 204.694 169.426 201.119C169.191 194.846 169.128 192.227 169.128 192.29C169.128 192.353 155.767 190.424 152.552 173.142C150.984 164.549 150.984 150.388 151.454 138.799C151.737 128.34 158.292 115.371 168.704 116.218Z" fill="#B78876"/>
<path d="M158.119 149.541C158.127 150.121 158.361 150.675 158.771 151.085C159.181 151.495 159.735 151.729 160.315 151.737C160.599 151.754 160.884 151.713 161.152 151.617C161.421 151.521 161.667 151.372 161.876 151.179C162.086 150.986 162.254 150.752 162.371 150.492C162.488 150.232 162.551 149.952 162.557 149.667C162.549 149.088 162.315 148.536 161.904 148.129C161.494 147.721 160.94 147.491 160.362 147.487C160.079 147.47 159.795 147.51 159.527 147.605C159.26 147.7 159.015 147.848 158.805 148.039C158.596 148.231 158.428 148.462 158.31 148.721C158.192 148.979 158.127 149.258 158.119 149.541Z" fill="#263238"/>
<path d="M154.607 146.06C154.889 146.342 156.551 145.041 158.935 144.994C161.318 144.947 163.122 146.091 163.373 145.778C163.624 145.464 163.2 145.135 162.416 144.602C161.367 143.908 160.129 143.557 158.872 143.598C157.623 143.623 156.414 144.046 155.422 144.805C154.701 145.401 154.497 145.934 154.607 146.06Z" fill="#263238"/>
<path d="M180.811 149.541C180.823 150.122 181.06 150.676 181.473 151.086C181.885 151.495 182.441 151.729 183.022 151.737C183.306 151.751 183.59 151.709 183.857 151.613C184.125 151.516 184.37 151.367 184.579 151.174C184.788 150.981 184.956 150.748 185.074 150.49C185.192 150.231 185.256 149.951 185.264 149.667C185.256 149.086 185.019 148.531 184.606 148.123C184.192 147.716 183.634 147.487 183.053 147.487C182.77 147.47 182.486 147.51 182.219 147.605C181.952 147.7 181.706 147.848 181.497 148.039C181.288 148.231 181.119 148.462 181.001 148.721C180.883 148.979 180.819 149.258 180.811 149.541Z" fill="#263238"/>
<path d="M178.16 145.887C178.443 146.17 180.089 144.884 182.489 144.821C184.888 144.758 186.676 145.919 186.927 145.621C187.177 145.323 186.754 144.978 185.97 144.429C184.914 143.741 183.67 143.395 182.41 143.441C181.166 143.469 179.964 143.892 178.976 144.648C178.255 145.166 178.019 145.762 178.16 145.887Z" fill="#263238"/>
<path d="M169.928 163.874C168.658 163.505 167.345 163.305 166.023 163.278C165.411 163.278 164.831 163.122 164.706 162.698C164.651 162.07 164.776 161.439 165.066 160.879C165.615 159.311 166.164 157.743 166.76 156.175C169.096 149.478 170.774 143.99 170.508 143.896C170.241 143.802 168.124 149.149 165.803 155.845C165.239 157.492 164.69 159.076 164.235 160.55C163.863 161.292 163.773 162.145 163.984 162.949C164.078 163.162 164.219 163.351 164.395 163.503C164.571 163.655 164.779 163.766 165.003 163.827C165.348 163.906 165.701 163.943 166.054 163.937C167.343 164.076 168.644 164.055 169.928 163.874Z" fill="#263238"/>
<path d="M169.018 192.211C177.2 192.139 185.201 189.8 192.133 185.453C192.133 185.453 186.613 197.606 169.191 196.43L169.018 192.211Z" fill="#AA6550"/>
<path d="M171.088 169.614C171.529 169.029 172.111 168.566 172.781 168.27C173.451 167.974 174.185 167.853 174.914 167.92C175.444 167.949 175.963 168.086 176.438 168.324C176.912 168.561 177.333 168.894 177.674 169.3C178.005 169.692 178.208 170.175 178.255 170.686C178.303 171.196 178.193 171.709 177.941 172.155C177.565 172.596 177.065 172.916 176.507 173.072C175.948 173.229 175.355 173.215 174.805 173.033C173.652 172.664 172.585 172.066 171.668 171.276C171.392 171.092 171.153 170.858 170.963 170.586C170.874 170.454 170.826 170.299 170.826 170.139C170.826 169.98 170.874 169.825 170.963 169.693" fill="#AA6550"/>
<path d="M177.016 165.348C176.624 165.348 176.686 167.936 174.522 169.833C172.358 171.731 169.567 171.527 169.551 171.888C169.536 172.248 170.178 172.374 171.355 172.374C172.878 172.363 174.347 171.807 175.495 170.806C176.606 169.857 177.303 168.513 177.439 167.058C177.502 165.96 177.204 165.333 177.016 165.348Z" fill="#263238"/>
<path d="M177.565 138.658C177.816 139.301 180.199 138.941 183.022 139.191C185.845 139.442 188.134 140.164 188.495 139.583C188.652 139.301 188.244 138.69 187.303 138.015C186.06 137.278 184.667 136.833 183.227 136.713C181.787 136.594 180.339 136.803 178.992 137.325C178.019 137.827 177.455 138.36 177.565 138.658Z" fill="#263238"/>
<path d="M155.03 135.569C155.469 136.102 157.1 135.569 159.091 135.412C161.083 135.255 162.761 135.679 163.122 135.098C163.294 134.816 163.012 134.283 162.259 133.781C161.266 133.179 160.109 132.899 158.95 132.981C157.784 133.035 156.662 133.446 155.736 134.158C155.046 134.738 154.842 135.302 155.03 135.569Z" fill="#263238"/>
<path d="M212.064 126.991C208.803 117.002 194.172 103.249 183.696 104.048L167.042 114.226C167.604 117.068 168.919 119.708 170.85 121.868C172.781 124.028 175.257 125.629 178.019 126.505C180.983 127.399 184.559 127.618 186.331 130.143C188.103 132.668 187.13 136.525 188.824 139.207C191.176 142.908 197.512 142.688 199.284 146.687C200.052 148.444 199.676 150.545 200.476 152.286C201.542 154.591 207.454 157.508 209.885 156.708C212.315 155.908 212.3 151.784 213.021 149.604C214.01 147.15 214.115 144.428 213.319 141.904C212.3 137.012 213.617 131.774 212.064 126.991Z" fill="#263238"/>
<path d="M218.572 119.527L217.286 125.046C217.343 121.108 216.347 117.227 214.401 113.803C210.214 107.53 201.009 103.217 193.748 101.132C186.487 99.0461 177.565 100.316 170.539 103.123C164.217 105.507 158.78 109.777 154.967 115.355C149.635 122.569 148.397 133.436 151.69 135.365C154.293 127.885 158.417 119.307 164.956 114.822C168.196 112.519 171.901 110.954 175.81 110.236C179.72 109.518 183.739 109.665 187.585 110.666C196.053 113.16 202.499 120.326 206.247 128.308C208.074 132.399 209.497 136.659 210.496 141.026C211.715 146.155 211.677 151.503 210.386 156.614L206.152 171.433L206.058 176.247C216.361 172.437 222.728 161.695 224.437 150.843C226.147 139.991 224.923 129.484 218.572 119.527Z" fill="#68D668"/>
<path d="M209.9 152.474C209.822 152.474 210.183 151.58 210.449 149.949C210.791 147.643 210.609 145.29 209.916 143.065C208.931 139.761 206.816 136.908 203.941 135.004C202.176 133.97 200.342 133.059 198.453 132.276C196.347 131.414 194.446 130.121 192.87 128.481C191.527 126.671 190.435 124.687 189.624 122.584C188.471 120.11 186.654 118.004 184.375 116.501C182.097 114.998 179.446 114.156 176.718 114.069C174.39 114.018 172.081 114.49 169.959 115.449C168.391 116.139 167.716 116.704 167.685 116.641C167.83 116.471 167.999 116.323 168.187 116.202C168.704 115.809 169.255 115.463 169.833 115.167C172.498 113.782 175.519 113.236 178.5 113.599C181.481 113.963 184.281 115.22 186.535 117.205C188.139 118.602 189.437 120.316 190.345 122.239C191.14 124.269 192.194 126.188 193.482 127.947C194.99 129.499 196.799 130.726 198.798 131.554C200.713 132.362 202.568 133.305 204.349 134.377C206.834 136.077 208.766 138.469 209.906 141.256C211.046 144.044 211.344 147.104 210.763 150.059C210.628 150.696 210.439 151.32 210.198 151.925C210.124 152.12 210.024 152.305 209.9 152.474Z" fill="#455A64"/>
<path d="M208.317 133.891C208.317 133.891 207.94 133.264 207.046 132.323C205.686 131.127 204.133 130.173 202.452 129.5C201.417 129.014 200.24 128.496 199.049 127.791C197.727 127.073 196.581 126.072 195.693 124.858C193.827 122.255 193.231 118.742 190.753 116.327C188.418 114.046 185.399 112.592 182.159 112.187C179.529 111.885 176.865 112.104 174.318 112.83C171.952 113.583 169.636 114.49 167.387 115.543C167.904 115.109 168.473 114.74 169.081 114.446C170.693 113.542 172.396 112.811 174.162 112.266C176.799 111.43 179.581 111.152 182.332 111.45C185.758 111.823 188.958 113.343 191.412 115.763C194.093 118.413 194.673 122.036 196.383 124.419C198.092 126.803 200.774 127.916 202.781 128.983C204.496 129.713 206.047 130.78 207.344 132.119C207.688 132.49 207.978 132.907 208.207 133.358C208.269 133.703 208.348 133.875 208.317 133.891Z" fill="#455A64"/>
<path d="M202.765 158.809C202.765 157.523 204.145 154.434 205.415 154.199C208.803 153.587 214.95 153.697 215.232 162.353C215.624 174.177 203.675 172.123 203.643 171.762C203.612 171.402 202.859 163.279 202.765 158.809Z" fill="#B78876"/>
<path d="M207.109 167.121C207.109 167.121 207.313 167.262 207.674 167.419C208.176 167.624 208.739 167.624 209.242 167.419C210.001 166.907 210.607 166.2 210.997 165.372C211.386 164.543 211.544 163.625 211.453 162.714C211.452 161.698 211.222 160.696 210.779 159.782C210.664 159.413 210.461 159.077 210.188 158.804C209.915 158.531 209.579 158.328 209.21 158.213C208.971 158.158 208.72 158.188 208.502 158.3C208.284 158.412 208.112 158.598 208.019 158.825C207.862 159.154 207.94 159.39 207.877 159.405C207.815 159.421 207.626 159.217 207.705 158.731C207.765 158.439 207.919 158.174 208.144 157.978C208.461 157.721 208.866 157.597 209.273 157.633C209.763 157.713 210.224 157.919 210.611 158.229C210.999 158.54 211.299 158.945 211.484 159.405C212.021 160.409 212.307 161.529 212.315 162.667C212.315 165.066 211.171 167.372 209.477 167.873C209.162 167.979 208.828 168.011 208.499 167.967C208.17 167.924 207.856 167.806 207.579 167.623C207.14 167.481 207.062 167.215 207.109 167.121Z" fill="#AA6550"/>
<path d="M217.051 168.108C217.19 167.687 217.374 167.282 217.6 166.901C217.976 166.101 218.525 164.941 219.09 163.388C220.671 158.984 221.447 154.33 221.379 149.651C221.316 146.424 220.98 143.209 220.376 140.038C219.767 136.394 218.822 132.813 217.553 129.343C216.128 125.519 214.129 121.934 211.625 118.711C208.916 115.276 205.651 112.318 201.965 109.96C194.784 105.376 186.213 103.482 177.768 104.613C174.111 105.088 170.553 106.147 167.23 107.749C164.34 109.158 161.668 110.975 159.295 113.144C155.848 116.302 153.07 120.12 151.125 124.372C150.466 125.94 150.027 127.101 149.761 127.932C149.642 128.359 149.495 128.778 149.322 129.186C149.373 128.744 149.468 128.308 149.604 127.885C149.94 126.647 150.353 125.432 150.843 124.247C154.001 116.812 159.705 110.746 166.932 107.138C170.311 105.469 173.939 104.362 177.674 103.86C186.297 102.648 195.07 104.561 202.404 109.255C209.728 113.925 215.297 120.89 218.243 129.061C219.519 132.581 220.459 136.215 221.05 139.913C221.627 143.122 221.931 146.375 221.96 149.635C221.988 154.372 221.115 159.071 219.388 163.482C218.928 164.665 218.404 165.822 217.82 166.948C217.594 167.354 217.337 167.742 217.051 168.108Z" fill="#263238"/>
<path d="M212.033 170.257C212.19 170.037 212.566 169.943 213.099 170.257C213.455 170.458 213.766 170.73 214.011 171.056C214.257 171.383 214.432 171.757 214.526 172.154C214.689 172.736 214.716 173.348 214.605 173.942C214.465 174.684 214.123 175.373 213.617 175.934C213.056 176.551 212.346 177.014 211.555 177.278C210.764 177.542 209.918 177.598 209.099 177.44C208.28 177.283 207.515 176.917 206.878 176.379C206.242 175.84 205.754 175.147 205.462 174.365C205.223 173.774 205.11 173.139 205.131 172.502C205.153 171.864 205.309 171.238 205.588 170.665C205.772 170.27 206.044 169.923 206.384 169.651C206.724 169.379 207.123 169.189 207.548 169.096C208.191 169.002 208.505 169.3 208.536 169.567C208.528 169.872 208.469 170.174 208.364 170.461C208.307 170.824 208.307 171.195 208.364 171.558C208.456 171.989 208.637 172.395 208.897 172.75C209.134 173.074 209.478 173.302 209.869 173.393C210.259 173.46 210.66 173.399 211.014 173.221C211.177 173.14 211.321 173.025 211.438 172.885C211.554 172.744 211.639 172.581 211.688 172.405C211.986 171.543 211.719 170.712 212.033 170.257Z" fill="#455A64"/>
<path d="M119.228 244.338C119.228 244.338 121.189 228.656 128.794 220.705C136.4 212.755 169.238 202.64 169.238 202.64C169.238 202.64 169.457 214.213 177.078 216.926C185.139 219.796 192.98 218.275 198.892 211.422C202.42 207.132 204.771 201.998 205.713 196.524C205.713 196.524 245.482 200.209 251.661 210.638C257.84 221.066 265.837 261.305 265.837 261.305L230.365 268.833L235.195 338.256H140.948L142.798 273.114L117.127 276.767L119.228 244.338Z" fill="#455A64"/>
<path d="M223.324 271.122C223.219 270.606 223.176 270.08 223.199 269.554C223.199 268.534 223.199 267.076 223.199 265.288C223.199 261.682 223.199 256.71 223.371 251.175C223.544 245.639 223.622 240.715 223.779 237.061C223.857 235.258 223.92 233.799 223.998 232.796C223.984 232.267 224.048 231.738 224.186 231.228C224.3 231.742 224.342 232.27 224.312 232.796C224.312 233.799 224.312 235.258 224.312 237.061C224.312 240.652 224.312 245.623 224.139 251.175C223.967 256.726 223.873 261.634 223.716 265.288C223.716 267.092 223.575 268.55 223.512 269.554C223.527 270.083 223.464 270.611 223.324 271.122Z" fill="#263238"/>
<path d="M134.11 242.55C134.33 242.55 136.541 249.528 139.066 258.232C141.591 266.935 143.441 274.133 143.222 274.18C141.313 269.039 139.664 263.805 138.282 258.498C135.679 249.748 133.844 242.613 134.11 242.55Z" fill="#263238"/>
<path d="M247.693 208.113C247.693 208.254 246 208.567 243.412 209.555C236.62 212.145 230.967 217.064 227.464 223.434C226.131 225.864 225.582 227.511 225.441 227.464C225.467 227.05 225.557 226.643 225.708 226.256C226.029 225.177 226.444 224.128 226.946 223.12C228.599 219.813 230.888 216.865 233.681 214.443C236.474 212.022 239.717 210.174 243.224 209.006C244.284 208.656 245.369 208.389 246.47 208.207C247.254 208.097 247.678 208.05 247.693 208.113Z" fill="#263238"/>
<path d="M128.214 223.888C129.016 225.424 129.577 227.075 129.876 228.781C130.435 230.423 130.732 232.143 130.755 233.878C129.389 230.702 128.531 227.331 128.214 223.888Z" fill="#263238"/>
<path d="M259.565 262.654C259.565 262.654 248.932 316.599 247.725 321.209C246.517 325.82 244.588 338.256 231.682 340.827C214.307 344.293 146.107 341.878 146.107 341.878L158.966 325.585L218.651 308.852L226.805 269.648L259.565 262.654Z" fill="#B78876"/>
<path d="M100.708 252.633C100.708 252.633 110.321 284.985 114.304 298.973C118.554 313.823 127.806 347.586 147.565 341.58C162.589 337.017 158.166 317.54 158.166 317.54L142.798 273.113L130.833 275.105L119.228 245.137L100.708 252.633Z" fill="#B78876"/>
<path d="M152.929 318.936C153.464 316.529 153.464 314.034 152.929 311.628C152.317 309.038 151.255 306.575 149.792 304.352C147.898 301.645 145.801 299.087 143.519 296.699C141.23 294.278 139.133 291.683 137.247 288.936C135.743 286.663 134.427 284.272 133.311 281.785C132.57 280.111 131.931 278.394 131.397 276.642C131.162 276.01 131.004 275.352 130.927 274.682C131.234 275.276 131.491 275.895 131.695 276.532C132.166 277.74 132.84 279.465 133.844 281.535C135.009 283.959 136.357 286.292 137.874 288.513C139.781 291.209 141.878 293.766 144.147 296.166C146.456 298.597 148.554 301.22 150.419 304.007C151.927 306.308 152.991 308.872 153.556 311.565C153.934 313.383 153.961 315.257 153.634 317.085C153.532 317.577 153.39 318.059 153.211 318.528C153.007 318.794 152.929 318.951 152.929 318.936Z" fill="#AA6550"/>
<path d="M84.6815 191.851C84.6815 191.851 86.2497 189.655 90.1231 193.042C93.9965 196.43 109.663 223.042 110.886 225.488C112.109 227.934 119.228 245.137 119.228 245.137L103.358 256.381L100.708 252.633C100.708 252.633 87.3945 240.825 84.6815 237.563C82.2989 234.833 80.1235 231.929 78.1736 228.875C78.0325 228.201 77.0916 224.767 79.7418 223.763C79.7418 223.763 77.1543 219.654 79.4595 217.616C81.7647 215.577 85.9831 217.475 85.9831 217.475L71.8695 199.284C71.8695 199.284 70.6463 193.858 74.7236 195.896C78.8009 197.935 89.5115 213.538 91.409 213.946C93.3065 214.354 93.3065 212.378 93.3065 212.378C93.3065 212.378 82.2509 195.551 84.6815 191.851Z" fill="#B78876"/>
<path d="M99.2028 239.602C99.2028 239.602 99.046 239.351 98.8735 238.849C98.6088 238.114 98.4299 237.351 98.3403 236.575C98.1191 235.158 98.193 233.711 98.5573 232.324C98.9216 230.937 99.5685 229.64 100.457 228.515V228.954C99.0303 227.229 97.4778 225.316 95.7528 223.293L95.8626 223.387C94.7492 222.744 93.6044 222.038 92.4597 221.285L90.719 220.094C90.1057 219.679 89.5333 219.206 89.0097 218.682C88.5065 218.174 88.2055 217.499 88.1629 216.785C88.1591 216.424 88.2327 216.066 88.3788 215.736C88.5249 215.406 88.74 215.111 89.0097 214.872L89.1508 214.715H89.3704L99.1401 217.49L106.824 223.214C107.827 223.903 108.771 224.674 109.647 225.52C108.587 224.932 107.565 224.277 106.589 223.559L98.748 218.055H98.8578L89.0724 215.389H89.4331C89.2599 215.556 89.122 215.755 89.0277 215.976C88.9334 216.197 88.8846 216.435 88.8842 216.675C88.932 217.191 89.1596 217.674 89.5272 218.039C90.009 218.52 90.5339 218.956 91.0954 219.341L92.789 220.517C93.9181 221.27 95.0472 221.975 96.1449 222.603C97.7131 224.673 99.2812 226.602 100.708 228.342L100.881 228.562L100.693 228.781C99.7106 229.949 99.0271 231.337 98.701 232.827C98.4386 233.979 98.3592 235.164 98.4658 236.34C98.9049 238.504 99.2969 239.57 99.2028 239.602Z" fill="#AA6550"/>
<path d="M86.2183 218.369C86.7208 218.839 87.1679 219.365 87.5513 219.937C88.6762 221.466 89.6878 223.075 90.5779 224.751C91.2094 225.915 91.7748 227.114 92.2715 228.342C92.5777 229.081 92.6542 229.896 92.491 230.679C92.3692 231.119 92.1244 231.514 91.7856 231.82C91.4467 232.125 91.0278 232.328 90.5779 232.404C89.6924 232.573 88.7756 232.423 87.9904 231.98C87.2102 231.575 86.4833 231.075 85.8263 230.491C84.5 229.287 83.3351 227.916 82.3606 226.413C81.7804 225.582 81.2629 224.735 80.7925 223.936L81.4354 223.465C83.4757 225.828 85.214 228.436 86.6104 231.228C86.9584 231.895 87.1311 232.64 87.1122 233.392C87.0924 233.767 86.9875 234.133 86.8055 234.462C86.6235 234.79 86.3691 235.073 86.0615 235.289C85.7525 235.455 85.4097 235.549 85.0591 235.562C84.7085 235.576 84.3595 235.509 84.0386 235.368C83.5044 235.129 83.012 234.806 82.5802 234.411C81.3292 233.295 80.1944 232.055 79.1929 230.71C78.8012 230.236 78.4791 229.708 78.2363 229.142C79.6986 230.852 81.2701 232.465 82.9409 233.972C83.6936 234.584 84.8383 235.274 85.7322 234.709C85.9462 234.544 86.1206 234.332 86.2427 234.091C86.3648 233.849 86.4314 233.584 86.4379 233.313C86.4344 232.684 86.2783 232.065 85.9831 231.51C84.5436 228.812 82.8022 226.287 80.7925 223.983L81.4511 223.512C81.9372 224.296 82.4704 225.08 83.0193 225.959C83.9736 227.416 85.1063 228.749 86.3908 229.926C87.6454 230.977 89.1038 232.012 90.4681 231.714C90.7865 231.664 91.0845 231.526 91.3284 231.315C91.5723 231.105 91.7524 230.83 91.8481 230.522C91.9777 229.876 91.9178 229.206 91.6756 228.593C91.2051 227.323 90.6249 226.115 90.1074 225.049C89.2755 223.367 88.3488 221.733 87.3317 220.156C86.9022 219.599 86.5292 219 86.2183 218.369Z" fill="#AA6550"/>
<path d="M157.806 316.474C158.049 316.859 158.224 317.283 158.323 317.728C158.676 318.898 158.907 320.102 159.013 321.319C159.368 325.39 158.518 329.475 156.567 333.065C155.525 335.042 154.211 336.864 152.662 338.475C151.378 339.799 149.828 340.836 148.114 341.517C146.963 341.96 145.753 342.23 144.523 342.317C144.078 342.407 143.62 342.407 143.174 342.317C144.778 342.031 146.353 341.601 147.879 341.031C149.471 340.303 150.909 339.275 152.113 338.005C153.572 336.405 154.825 334.63 155.845 332.72C157.71 329.248 158.599 325.335 158.417 321.398C158.292 318.324 157.633 316.521 157.806 316.474Z" fill="#AA6550"/>
</svg>
