<svg width="60" height="68" viewBox="0 0 60 68" fill="none" xmlns="http://www.w3.org/2000/svg">
<path d="M30.0953 0.64046H29.5555L27.9933 0.75533C27.148 0.806121 26.3073 0.91745 25.4778 1.08844C24.9406 1.16388 24.4077 1.26739 23.8812 1.39856L22.1009 1.89248C19.0706 2.82217 16.2115 4.23812 13.6354 6.08499C10.2319 8.55544 7.38989 11.7184 5.29635 15.3659C4.06586 17.4685 3.08664 19.7084 2.37882 22.0395C1.63507 24.5731 1.20685 27.1887 1.10385 29.8272C1.03539 31.2133 1.05841 32.6023 1.17276 33.9853C1.17276 34.686 1.36803 35.3866 1.45992 36.0988C1.53721 36.8167 1.67164 37.5272 1.86194 38.2237C2.89482 42.8329 4.99056 47.1369 7.98198 50.7925C10.9734 54.448 14.7777 57.3538 19.0914 59.2782C22.2135 60.6253 25.5599 61.3772 28.9582 61.495C32.4681 61.6881 35.9815 61.1845 39.2959 60.0133L40.3067 59.6342H40.4445L40.5594 59.7032L55.0437 67.0544L54.6187 67.422C53.068 62.6207 51.5748 57.9687 50.1275 53.5005V53.3283L50.2539 53.2019C53.7675 49.6629 56.3759 45.3287 57.8578 40.567C59.2 36.2136 59.5917 31.6228 59.0064 27.105C58.4858 23.0899 57.1949 19.2132 55.2045 15.6876C53.4887 12.659 51.2754 9.94086 48.6573 7.64713C46.4972 5.83162 44.1065 4.30987 41.5472 3.12151C39.6108 2.28632 37.594 1.65128 35.5284 1.22627L33.2311 0.847223L31.5656 0.720872L30.5548 0.651957H30.2102C30.3247 0.63925 30.4403 0.63925 30.5548 0.651957H31.5771L33.2426 0.720872L35.5399 1.05397C37.6312 1.44786 39.6755 2.05999 41.6391 2.88031C44.2423 4.05454 46.6762 5.57279 48.8755 7.39443C51.5418 9.67798 53.8021 12.3966 55.5605 15.4349C57.6075 18.9983 58.938 22.9276 59.4774 27.0016C60.1112 31.5892 59.7468 36.2595 58.4091 40.6933C56.9176 45.5541 54.2689 49.9804 50.6903 53.5924L50.7593 53.2938C52.2065 57.762 53.7112 62.414 55.2734 67.2038L55.4916 67.9044L54.8369 67.5713L40.3526 60.2315H40.6053L39.5716 60.6106C36.1934 61.7993 32.6149 62.3144 29.0386 62.1268C25.5671 61.9946 22.1507 61.2155 18.9651 59.8295C12.8885 57.2271 7.83279 52.704 4.57272 46.9533C3.0725 44.2975 1.9769 41.4327 1.32208 38.4535C1.14277 37.739 1.0085 37.0139 0.920064 36.2826C0.828173 35.5589 0.678854 34.8468 0.644395 34.1346C0.333526 30.0476 0.765493 25.9381 1.91938 22.005C2.64481 19.6419 3.65132 17.3743 4.91731 15.2511C7.06079 11.5704 9.96199 8.38733 13.4287 5.9127C16.0471 4.06111 18.9542 2.65606 22.0319 1.75463L23.8353 1.29519C24.3661 1.17207 24.9028 1.07623 25.4434 1.00803C26.2815 0.852847 27.13 0.760692 27.9819 0.732352L29.5555 0.674935C29.7344 0.650836 29.9148 0.639305 30.0953 0.64046Z" fill="#FF725E"/>
<path d="M36.6426 27.4266H34.5177L29.9231 20.9713V16.7328C29.9231 16.7328 26.6381 16.526 27.0286 22.0739C27.4191 27.6218 27.0286 26.209 27.0286 26.209C27.0286 26.209 20.0564 26.209 19.4821 26.8408C18.9078 27.4725 18.8733 34.2035 18.7929 37.9595C18.7489 38.865 19.0087 39.7592 19.531 40.5C20.0534 41.2409 20.8083 41.786 21.676 42.0487C21.9191 42.116 22.1702 42.1508 22.4226 42.1521C24.1685 42.1521 33.0474 40.7392 33.0474 40.7392H36.7116L36.6426 27.4266Z" fill="#FF725E"/>
<path d="M42.7189 26.2894L41.4095 40.8081H37.7798V26.5881L42.7189 26.2894Z" fill="#FF725E"/>
</svg>
