<svg width="30" height="27" viewBox="0 0 30 27" fill="none" xmlns="http://www.w3.org/2000/svg">
<path d="M27.7815 0.442583C27.5002 0.159197 27.1187 0 26.721 0C26.3233 0 25.9418 0.159197 25.6605 0.442583L2.22 24.0677C2.07673 24.2072 1.96246 24.374 1.88385 24.5584C1.80523 24.7428 1.76385 24.9412 1.76212 25.1419C1.76039 25.3426 1.79835 25.5417 1.87377 25.7274C1.94919 25.9132 2.06057 26.082 2.20141 26.2239C2.34225 26.3659 2.50972 26.4781 2.69407 26.5541C2.87841 26.6301 3.07593 26.6684 3.2751 26.6666C3.47427 26.6649 3.6711 26.6232 3.85411 26.5439C4.03711 26.4647 4.20263 26.3496 4.341 26.2052L27.78 2.58002C28.0612 2.29655 28.2192 1.91213 28.2192 1.5113C28.2192 1.11047 28.0627 0.726054 27.7815 0.442583ZM4.662 18.6123L8.502 14.7425C8.39251 14.2779 8.33564 13.8022 8.3325 13.3246C8.3325 9.72849 11.3175 6.81105 15 6.81105C15.429 6.81105 15.846 6.85942 16.2525 6.93501L18.057 5.11803C17.0466 4.94934 16.0242 4.8634 15 4.86106C5.16 4.85955 0 12.1622 0 13.3246C0 13.9641 1.5855 16.4854 4.662 18.6123ZM25.3425 8.04152L21.4995 11.9113C21.603 12.3678 21.666 12.8379 21.666 13.3246C21.666 16.9208 18.6825 19.8352 15 19.8352C14.574 19.8352 14.16 19.7868 13.7565 19.7128L11.9505 21.5312C12.9135 21.6885 13.9245 21.7882 15 21.7882C24.84 21.7882 30 14.4825 30 13.3246C30 12.6837 28.416 10.1653 25.3425 8.04152Z" fill="#C4C4C4"/>
</svg>
